{"glyphs":{"0":{"ha":649,"x_min":18,"x_max":631,"o":"m 631 360 q 631 273 631 360 q 546 85 631 186 q 315 -17 461 -17 q 94 74 169 -17 q 18 338 18 164 q 104 613 18 511 q 336 715 190 715 q 556 625 482 715 q 631 360 631 535 m 168 350 q 324 249 168 249 q 479 342 479 249 q 324 444 479 444 q 168 350 168 444 z "},"1":{"ha":524,"x_min":8,"x_max":511,"o":"m 390 213 q 444 122 390 122 l 506 125 l 511 117 l 492 -8 q 292 0 350 0 q 17 -14 225 0 l 29 99 q 123 128 94 106 q 151 193 151 150 l 151 472 q 138 536 151 521 q 86 551 125 551 l 21 547 l 8 561 l 19 665 q 444 715 183 679 l 467 656 q 408 544 426 625 q 390 213 390 463 z "},"2":{"ha":685,"x_min":3,"x_max":676,"o":"m 283 447 q 215 510 283 510 q 78 422 146 510 l 53 422 l 18 567 q 328 715 164 715 q 506 662 438 715 q 574 531 574 608 q 531 390 574 454 q 353 190 488 325 l 360 178 l 407 178 q 484 206 460 178 q 515 304 508 235 l 676 317 q 639 8 646 132 l 615 -17 q 114 0 257 0 l 10 -8 l 3 61 l 100 168 q 247 352 210 296 q 283 447 285 408 z "},"3":{"ha":622,"x_min":3,"x_max":593,"o":"m 92 467 l 71 465 l 26 608 q 169 685 86 654 q 315 715 251 715 q 485 669 421 715 q 549 555 549 624 q 507 437 549 486 q 394 365 465 388 l 394 350 q 542 272 490 322 q 593 156 593 221 q 452 -42 593 47 q 140 -132 311 -132 q 40 -91 69 -132 q 3 54 11 -50 l 33 86 q 157 61 83 61 q 274 82 231 61 q 317 142 317 103 q 158 217 317 217 l 140 238 l 126 363 l 217 381 q 297 481 297 414 q 281 519 297 504 q 236 533 264 533 q 92 467 175 533 z "},"4":{"ha":681,"x_min":0,"x_max":672,"o":"m 354 713 l 367 715 l 561 699 l 561 240 l 657 240 l 672 219 l 657 63 q 563 65 619 64 l 571 -100 l 556 -115 l 328 -132 l 314 -115 q 322 72 319 -19 q 0 76 156 76 l 1 215 l 354 713 m 324 240 l 324 417 l 308 417 l 189 240 l 324 240 z "},"5":{"ha":588,"x_min":-22,"x_max":563,"o":"m 561 185 q 424 -35 561 63 q 115 -132 288 -132 q 15 -91 46 -132 q -22 54 -15 -50 l 8 86 q 132 61 60 61 q 248 83 204 61 q 292 142 292 104 q 240 201 292 179 q 60 235 188 222 l 47 250 q 79 665 69 449 l 90 676 l 365 685 q 424 698 406 686 q 453 740 443 710 l 563 747 l 522 499 l 496 472 q 247 483 386 483 l 236 414 q 487 331 413 383 q 561 185 561 279 z "},"6":{"ha":657,"x_min":21,"x_max":640,"o":"m 640 282 q 552 63 640 143 q 322 -17 464 -17 q 100 67 179 -17 q 21 293 21 151 q 49 456 21 379 q 121 585 76 532 q 219 682 165 638 q 326 753 272 726 q 525 832 432 807 l 543 822 l 585 710 q 567 703 578 707 q 522 681 556 699 q 458 643 489 664 q 324 513 379 592 l 332 497 l 413 526 q 578 460 517 526 q 640 282 640 394 m 335 360 q 256 336 292 360 q 253 281 253 300 q 332 146 253 146 q 390 169 372 146 q 407 246 407 193 q 335 360 407 360 z "},"7":{"ha":604,"x_min":14,"x_max":608,"o":"m 219 699 l 529 699 l 608 601 q 379 67 479 319 l 326 -132 l 289 -132 l 117 -79 l 100 -40 l 371 500 l 243 488 q 161 460 182 481 q 129 374 140 440 l 14 365 q 42 697 35 550 l 50 704 q 219 699 133 699 z "},"8":{"ha":657,"x_min":26,"x_max":622,"o":"m 26 190 q 156 369 26 314 q 38 586 38 457 q 127 761 38 690 q 338 832 217 832 q 535 772 458 832 q 613 628 613 713 q 501 454 613 514 q 622 258 622 379 q 533 60 622 138 q 314 -17 443 -17 q 106 42 185 -17 q 26 190 26 100 m 319 133 q 393 199 393 133 q 336 267 393 233 q 258 308 281 300 q 232 229 232 272 q 256 160 232 186 q 319 133 281 133 m 335 671 q 319 671 335 671 q 285 655 303 671 q 268 610 268 639 q 296 560 268 582 q 381 514 324 539 q 406 590 406 551 q 386 650 406 629 q 335 671 367 671 z "},"9":{"ha":657,"x_min":17,"x_max":636,"o":"m 17 417 q 105 635 17 556 q 335 715 193 715 q 557 631 478 715 q 636 406 636 547 q 608 243 636 319 q 536 114 581 167 q 438 17 492 61 q 331 -56 383 -28 q 132 -133 226 -107 l 114 -124 l 72 -11 q 90 -4 79 -8 q 135 17 101 0 q 199 56 168 35 q 332 186 281 111 l 325 201 l 244 172 q 78 238 140 172 q 17 417 17 304 m 322 339 q 400 361 363 339 q 404 418 404 389 q 325 553 404 553 q 267 529 285 553 q 250 453 250 506 q 322 339 250 339 z "}," ":{"ha":200,"x_min":0,"x_max":0,"o":""},"!":{"ha":394,"x_min":53,"x_max":382,"o":"m 324 130 q 324 98 324 130 q 286 26 324 65 q 184 -12 249 -12 q 86 22 119 -12 q 53 121 53 56 q 91 225 53 186 q 192 264 129 264 q 290 229 256 264 q 324 130 324 194 m 108 368 l 61 926 l 86 960 l 347 996 l 382 960 l 281 363 l 138 340 l 108 368 z "},"\"":{"ha":481,"x_min":35,"x_max":469,"o":"m 47 565 q 47 625 47 586 q 35 896 47 725 l 221 915 l 233 899 q 175 592 211 747 l 74 557 l 47 565 m 283 565 q 283 625 283 586 q 271 896 283 725 l 457 915 l 469 899 q 411 592 447 747 l 310 557 l 283 565 z "},"#":{"ha":774,"x_min":10,"x_max":763,"o":"m 65 471 l 53 489 l 72 635 l 199 633 l 222 796 l 372 808 l 392 799 l 361 633 l 472 633 l 496 796 l 646 808 l 665 799 l 635 638 l 753 642 l 763 621 l 750 474 l 607 472 l 590 367 l 710 371 l 719 350 l 707 203 l 567 201 l 546 63 l 399 43 l 381 56 l 406 201 l 292 201 l 272 63 l 125 43 l 107 56 l 132 200 l 22 200 l 10 218 l 29 364 l 158 363 l 175 471 l 65 471 m 333 472 l 317 363 l 432 363 l 449 472 l 333 472 z "},"$":{"ha":658,"x_min":18,"x_max":636,"o":"m 201 243 q 306 146 201 146 q 361 178 361 146 q 328 221 361 203 q 254 253 293 238 q 75 349 126 299 q 24 481 24 399 q 92 624 24 564 q 281 704 160 685 l 304 894 l 465 914 l 474 901 l 449 710 q 615 682 538 704 l 631 656 q 599 467 608 564 l 454 457 l 439 467 l 439 478 q 418 530 439 511 q 365 549 397 549 q 315 538 333 549 q 297 515 297 528 q 301 494 297 501 q 313 479 304 486 q 330 467 322 472 q 353 455 338 461 q 380 444 369 449 q 411 433 390 440 q 458 417 432 426 q 512 392 483 407 q 572 353 540 378 q 636 215 636 306 q 563 66 636 124 q 358 -7 490 8 l 333 -210 l 175 -228 l 164 -219 l 190 -7 q 33 35 106 4 l 18 56 q 44 232 40 167 l 201 243 z "},"%":{"ha":1053,"x_min":0,"x_max":1053,"o":"m 111 660 q 217 594 111 594 q 324 653 324 594 q 211 718 324 718 q 135 704 158 718 q 111 660 111 690 m 436 667 q 436 606 436 667 q 376 474 436 544 q 211 403 315 403 q 53 466 107 403 q 0 651 0 529 q 61 844 0 774 q 226 915 122 915 q 383 853 331 915 q 436 667 436 790 m 728 240 q 834 175 728 175 q 940 233 940 175 q 828 299 940 299 q 751 285 775 299 q 728 240 728 271 m 1053 248 q 1053 186 1053 248 q 992 54 1053 125 q 828 -17 932 -17 q 670 47 724 -17 q 617 232 617 110 q 678 425 617 354 q 843 496 739 496 q 1000 433 947 496 q 1053 248 1053 371 m 872 899 l 886 865 q 511 288 638 481 l 249 -126 l 119 -78 l 111 -54 q 381 351 265 168 l 751 943 l 872 899 z "},"&":{"ha":944,"x_min":33,"x_max":1026,"o":"m 628 450 l 872 433 q 963 463 910 433 l 972 463 l 1025 382 l 1026 375 l 932 283 l 906 275 l 822 279 q 663 67 778 151 q 417 -17 549 -17 q 139 83 244 -17 q 33 344 33 183 q 120 574 33 476 q 324 671 207 671 q 413 643 375 671 q 451 581 451 615 l 451 569 l 460 564 q 540 710 514 644 q 576 872 565 776 l 596 894 l 668 894 q 757 731 757 767 q 736 682 757 708 q 268 221 549 372 q 454 156 338 156 q 654 289 625 156 l 635 290 q 572 264 607 290 l 564 264 l 507 346 l 507 351 l 604 443 l 628 450 m 275 478 q 219 454 239 478 q 199 392 199 431 q 210 313 199 353 q 298 376 276 353 q 319 431 319 399 q 275 478 319 478 z "},"'":{"ha":244,"x_min":35,"x_max":233,"o":"m 47 565 q 47 625 47 586 q 35 896 47 725 l 221 915 l 233 899 q 175 592 211 747 l 74 557 l 47 565 z "},"(":{"ha":429,"x_min":75,"x_max":408,"o":"m 75 226 l 75 467 q 99 642 75 563 q 158 768 124 722 q 286 889 231 863 l 310 901 l 333 901 l 406 813 l 404 800 q 367 762 389 789 q 331 703 346 735 q 293 488 293 619 l 293 247 q 367 -57 293 56 q 408 -104 385 -83 l 408 -119 l 322 -203 l 306 -203 q 230 -151 274 -189 q 156 -70 186 -114 q 100 53 125 -26 q 75 226 75 132 z "},")":{"ha":429,"x_min":21,"x_max":354,"o":"m 354 472 l 354 232 q 330 56 354 136 q 271 -69 306 -24 q 144 -192 199 -164 l 119 -203 l 96 -203 l 24 -114 l 25 -101 q 62 -63 40 -90 q 97 -4 83 -36 q 136 211 136 79 l 136 451 q 94 692 136 603 q 33 792 60 768 l 21 803 l 21 818 l 107 901 l 124 901 q 199 850 156 888 q 274 769 243 813 q 329 646 304 725 q 354 472 354 567 z "},"*":{"ha":506,"x_min":17,"x_max":519,"o":"m 51 946 q 197 849 113 913 l 185 781 l 172 771 l 17 813 q 36 942 17 888 l 51 946 m 43 646 q 179 754 93 693 l 242 721 l 246 708 l 160 572 q 42 629 88 594 l 43 646 m 325 546 q 264 710 296 607 l 315 758 l 331 758 l 432 633 q 340 539 389 571 l 325 546 m 508 783 q 333 775 458 775 l 303 839 l 308 854 l 458 911 q 519 794 504 850 l 508 783 m 340 1031 q 292 861 325 963 l 222 854 l 211 861 l 200 1022 q 331 1044 272 1044 l 340 1031 z "},"+":{"ha":703,"x_min":21,"x_max":681,"o":"m 433 685 l 454 675 q 446 449 449 553 l 671 457 l 681 436 l 663 247 l 446 246 l 447 50 l 267 25 l 249 38 q 250 246 249 140 l 33 244 l 21 263 l 46 450 q 250 449 147 449 l 251 667 l 433 685 z "},",":{"ha":331,"x_min":-11,"x_max":301,"o":"m 42 201 q 178 263 121 263 q 269 224 236 263 q 301 117 301 186 q 239 -30 301 49 q 69 -169 176 -108 l -11 -106 l -11 -71 q 53 -1 29 -42 q 78 88 78 39 q 38 182 78 138 l 42 201 z "},"-":{"ha":450,"x_min":46,"x_max":404,"o":"m 388 456 l 404 431 l 386 281 l 64 244 l 46 269 l 60 417 l 272 440 l 388 456 z "},".":{"ha":331,"x_min":29,"x_max":300,"o":"m 300 130 q 300 98 300 130 q 263 26 300 65 q 160 -12 225 -12 q 63 22 96 -12 q 29 121 29 56 q 67 225 29 186 q 169 264 106 264 q 266 229 232 264 q 300 130 300 194 z "},"/":{"ha":457,"x_min":6,"x_max":478,"o":"m 454 938 l 478 910 q 311 299 371 524 l 196 -153 l 21 -153 l 6 -132 q 129 314 75 103 l 289 938 l 454 938 z "},":":{"ha":331,"x_min":29,"x_max":300,"o":"m 300 130 q 300 98 300 130 q 263 26 300 65 q 160 -12 225 -12 q 63 22 96 -12 q 29 121 29 56 q 67 225 29 186 q 169 264 106 264 q 266 229 232 264 q 300 130 300 194 m 300 498 q 300 466 300 498 q 263 394 300 433 q 160 356 225 356 q 63 390 96 356 q 29 489 29 424 q 67 593 29 554 q 169 632 106 632 q 266 597 232 632 q 300 498 300 563 z "},";":{"ha":331,"x_min":-11,"x_max":301,"o":"m 42 201 q 178 263 121 263 q 269 224 236 263 q 301 117 301 186 q 239 -30 301 49 q 69 -169 176 -108 l -11 -106 l -11 -71 q 53 -1 29 -42 q 78 88 78 39 q 38 182 78 138 l 42 201 m 300 498 q 300 466 300 498 q 263 394 300 433 q 160 356 225 356 q 63 390 96 356 q 29 489 29 424 q 67 593 29 554 q 169 632 106 632 q 266 597 232 632 q 300 498 300 563 z "},"<":{"ha":599,"x_min":35,"x_max":564,"o":"m 46 256 l 35 276 l 35 489 l 282 596 l 492 693 l 517 678 l 564 532 q 208 383 446 486 l 208 372 l 350 304 l 551 215 l 564 186 l 486 58 q 294 146 394 99 l 46 256 z "},"=":{"ha":703,"x_min":21,"x_max":681,"o":"m 671 318 l 681 297 l 663 108 l 33 106 l 21 124 l 46 311 q 364 310 240 310 l 671 318 m 671 596 l 681 575 l 663 386 l 33 383 l 21 401 l 46 589 q 364 588 240 588 l 671 596 z "},">":{"ha":599,"x_min":35,"x_max":564,"o":"m 553 496 l 564 475 l 564 263 l 317 156 l 107 58 l 82 74 l 35 219 q 390 368 153 265 l 390 379 l 249 447 l 47 536 l 35 565 l 113 693 q 304 606 204 653 l 553 496 z "},"?":{"ha":529,"x_min":54,"x_max":546,"o":"m 300 683 q 74 793 300 782 l 54 818 l 111 982 l 135 994 q 428 918 311 990 q 546 742 546 846 q 501 617 546 669 q 319 474 457 564 l 315 465 l 326 369 l 314 350 l 150 322 l 129 333 l 96 518 l 100 539 l 235 604 q 300 683 300 640 m 364 130 q 364 98 364 130 q 326 26 364 65 q 224 -12 289 -12 q 126 22 160 -12 q 93 121 93 56 q 131 225 93 186 q 233 264 169 264 q 330 229 296 264 q 364 130 364 194 z "},"@":{"ha":1246,"x_min":19,"x_max":1226,"o":"m 738 -207 l 736 -244 l 685 -333 q 197 -182 374 -333 q 19 235 19 -31 q 76 500 19 371 q 224 724 132 629 q 442 877 317 819 q 700 935 567 935 q 1085 815 944 935 q 1226 475 1226 694 q 1087 119 1226 256 q 710 -17 947 -17 q 656 4 676 -17 q 635 51 635 25 q 668 219 635 76 l 654 219 q 469 -17 549 38 q 315 41 371 -17 q 260 201 260 99 q 373 510 260 365 q 613 656 486 656 l 713 628 l 719 656 l 746 672 l 932 656 l 943 624 q 847 156 876 333 l 857 144 q 1015 226 953 144 q 1078 431 1078 307 q 965 693 1078 597 q 650 788 853 789 q 309 643 447 788 q 171 272 171 499 q 317 -81 171 44 q 738 -207 463 -207 m 533 199 q 602 287 557 199 q 674 474 647 375 q 571 510 621 510 q 533 438 551 510 q 514 282 514 365 q 533 199 514 199 z "},"A":{"ha":939,"x_min":-7,"x_max":946,"o":"m 549 247 q 447 250 474 250 q 331 243 421 250 q 313 149 313 164 q 320 128 313 133 q 356 124 328 124 l 392 124 l 403 110 l 392 -6 q 178 -1 263 -1 l -7 -3 l 3 118 q 74 194 53 131 l 294 892 l 660 914 l 681 897 q 854 213 814 363 q 885 144 867 165 q 936 119 904 122 l 946 106 l 935 -4 q 739 -1 815 -1 l 474 -8 l 463 4 l 471 121 q 547 135 535 128 q 560 158 560 142 q 549 247 560 175 m 446 418 q 518 421 468 418 l 471 664 l 440 664 l 375 418 l 446 418 z "},"B":{"ha":921,"x_min":18,"x_max":897,"o":"m 858 689 q 724 476 858 567 q 849 403 801 449 q 897 275 897 358 q 497 -15 897 -15 q 269 0 383 0 l 18 -10 l 31 115 q 104 146 85 125 q 124 217 124 167 l 125 713 q 88 776 125 776 l 40 774 l 24 790 l 40 901 q 275 899 231 899 l 542 908 q 778 852 697 908 q 858 689 858 796 m 393 222 q 496 158 393 158 q 599 260 599 158 q 510 361 599 333 l 400 361 l 393 222 m 572 639 q 438 733 572 733 q 413 714 414 733 l 403 540 q 514 525 482 525 q 554 572 536 539 q 572 639 572 606 z "},"C":{"ha":838,"x_min":21,"x_max":811,"o":"m 760 38 q 424 -15 610 -15 q 129 103 238 -15 q 21 443 21 221 q 147 790 21 665 q 508 915 274 915 q 800 879 614 915 l 811 851 q 772 554 782 724 l 558 542 q 561 627 561 578 q 540 700 561 676 q 465 724 518 724 q 365 672 393 724 q 338 473 338 619 q 370 253 338 326 q 472 181 403 181 q 550 217 525 181 q 582 342 575 253 l 794 356 q 778 60 778 193 l 760 38 z "},"D":{"ha":947,"x_min":24,"x_max":926,"o":"m 125 233 l 125 699 q 117 758 125 742 q 90 774 110 774 l 46 771 l 32 790 l 44 903 q 256 899 199 899 l 486 907 q 926 489 926 907 q 797 119 926 256 q 443 -17 667 -17 q 222 0 310 0 l 24 -11 l 35 118 q 106 151 88 126 q 125 233 125 175 m 436 731 q 407 693 408 731 q 393 225 393 494 q 403 171 393 185 q 443 157 414 157 q 571 221 533 157 q 608 445 608 285 q 572 668 608 606 q 436 731 535 731 z "},"E":{"ha":838,"x_min":18,"x_max":817,"o":"m 403 538 l 517 536 l 669 544 l 686 525 l 667 365 q 517 369 564 369 q 396 361 471 369 q 394 251 394 314 q 406 174 394 189 q 461 160 418 160 q 581 187 551 160 q 622 307 610 214 l 800 319 l 817 299 q 778 13 792 164 l 757 -10 q 386 0 526 0 q 18 -14 185 0 l 31 114 q 102 148 83 122 q 121 236 121 174 l 122 701 q 115 761 122 746 q 85 776 107 776 l 49 774 l 32 793 l 44 903 q 453 899 242 899 q 797 915 664 899 l 815 893 q 783 617 790 747 l 592 604 q 594 656 594 638 q 569 717 594 703 q 486 732 543 732 q 420 725 429 732 q 411 694 411 718 l 403 538 z "},"F":{"ha":769,"x_min":18,"x_max":776,"o":"m 394 243 q 406 176 394 193 q 453 160 418 160 q 533 171 489 160 l 556 146 l 538 -4 q 311 0 376 0 q 18 -14 185 0 l 31 114 q 102 148 83 122 q 121 236 121 174 l 122 701 q 115 761 122 746 q 85 776 107 776 l 49 774 l 32 793 l 44 903 q 440 899 242 899 q 758 915 638 899 l 776 893 q 751 617 757 744 l 560 606 q 563 656 563 639 q 541 716 563 700 q 474 732 519 732 q 420 725 429 732 q 411 694 411 718 l 401 514 l 517 513 l 663 521 l 679 501 l 660 342 q 514 346 561 346 q 396 338 467 346 l 394 243 z "},"G":{"ha":888,"x_min":21,"x_max":860,"o":"m 482 181 q 554 197 526 181 l 554 285 q 545 330 554 318 q 510 342 536 342 l 464 340 l 451 360 l 468 492 l 681 492 q 846 499 846 492 l 860 418 q 799 349 811 390 q 788 201 788 308 q 797 53 788 93 l 781 31 q 457 -15 669 -15 q 133 103 244 -15 q 21 444 21 221 q 149 792 21 668 q 522 915 278 915 q 804 879 638 915 l 819 851 q 781 571 789 733 l 567 558 q 569 638 569 590 q 552 705 569 686 q 488 724 535 724 q 370 672 403 724 q 338 472 338 619 q 372 252 338 324 q 482 181 406 181 z "},"H":{"ha":1026,"x_min":21,"x_max":1015,"o":"m 908 217 q 920 144 908 165 q 963 124 932 124 l 1001 128 l 1013 113 l 1000 -3 q 763 0 878 0 l 532 -1 l 543 119 q 614 144 593 121 q 635 225 635 168 l 635 367 q 553 368 588 368 l 396 356 l 396 217 q 405 140 396 158 q 440 121 414 121 l 478 125 l 489 111 l 476 -6 q 251 0 308 0 l 21 -7 l 32 111 q 105 144 88 122 q 122 225 122 167 l 122 706 q 113 763 122 749 q 74 776 103 776 l 38 775 l 25 794 l 36 899 l 215 899 l 492 906 l 482 781 q 424 759 438 772 q 408 708 411 746 l 400 540 l 518 536 q 635 540 594 536 l 635 706 q 625 762 635 747 q 586 776 615 776 l 549 775 l 536 794 l 547 899 l 771 899 l 1015 906 l 1006 783 q 940 761 956 775 q 922 708 924 747 q 908 217 908 521 z "},"I":{"ha":514,"x_min":21,"x_max":499,"o":"m 396 217 q 405 140 396 158 q 440 121 414 121 l 485 125 l 496 111 l 483 -6 q 251 0 310 0 l 21 -7 l 32 111 q 105 146 88 124 q 122 225 122 168 l 122 706 q 113 763 122 749 q 74 776 103 776 l 38 775 l 25 794 l 36 899 l 260 899 l 499 906 l 489 781 q 427 760 442 774 q 410 708 413 747 q 396 217 396 490 z "},"J":{"ha":471,"x_min":-7,"x_max":475,"o":"m 111 183 l 111 706 q 102 763 111 749 q 67 776 93 776 l 17 774 l 4 793 l 15 899 l 211 900 l 475 910 l 464 781 q 413 759 424 771 q 399 708 401 747 q 382 118 382 453 q 302 -99 382 -15 q 49 -228 222 -182 l -7 -161 l -4 -140 q 89 -13 67 -75 q 111 183 111 49 z "},"K":{"ha":963,"x_min":21,"x_max":964,"o":"m 122 225 l 122 706 q 113 763 122 749 q 74 776 103 776 l 38 775 l 25 794 l 38 900 q 260 899 235 899 l 499 906 l 489 781 q 422 753 438 768 q 406 703 407 739 q 396 181 396 207 q 404 138 396 156 q 440 121 413 121 l 485 125 l 496 111 l 483 -6 q 251 0 310 0 l 21 -7 l 32 111 q 105 144 88 122 q 122 225 122 167 m 571 667 q 600 725 600 696 q 588 764 600 754 q 543 775 575 774 l 535 789 l 547 903 q 746 899 682 899 l 946 906 l 958 885 l 946 781 q 742 576 847 725 l 683 494 l 814 242 q 876 151 846 181 q 950 117 907 122 l 964 96 l 949 -7 q 726 -22 771 -22 q 649 2 682 -22 q 583 90 615 26 l 408 440 l 415 482 l 571 667 z "},"L":{"ha":774,"x_min":18,"x_max":774,"o":"m 719 -10 q 378 0 510 0 q 18 -14 185 0 l 31 114 q 102 148 83 122 q 121 236 121 174 l 121 706 q 111 763 121 749 q 72 776 101 776 l 36 775 l 24 794 l 35 899 l 258 899 l 546 906 l 531 769 q 434 748 458 763 q 408 697 410 733 q 394 219 394 489 q 406 174 394 188 q 446 160 418 160 q 546 203 519 160 q 579 386 572 247 l 757 404 l 774 383 q 740 13 753 206 l 719 -10 z "},"M":{"ha":1158,"x_min":10,"x_max":1161,"o":"m 293 169 q 339 122 293 122 l 375 125 l 388 114 l 371 -6 q 183 0 218 0 q 107 -3 147 0 q 10 -11 10 -10 l 21 114 q 78 139 60 118 q 100 206 97 160 q 149 714 149 676 q 137 760 149 751 q 63 775 125 768 l 51 786 l 65 906 q 269 899 211 899 l 483 904 q 586 463 519 721 l 604 463 q 721 899 672 697 q 978 900 956 899 l 1108 907 l 1118 901 l 1107 779 q 1033 764 1050 778 q 1015 708 1015 750 q 1046 244 1015 529 q 1065 150 1051 176 q 1110 124 1079 124 l 1151 126 l 1161 115 l 1149 -4 q 865 -3 989 1 q 729 -11 740 -7 l 746 115 q 801 135 785 119 q 817 183 817 150 l 811 504 l 793 504 q 642 -3 715 271 l 468 -17 q 318 504 396 254 l 300 504 q 293 169 293 200 z "},"N":{"ha":1026,"x_min":18,"x_max":1026,"o":"m 646 776 l 603 776 l 596 792 l 603 904 q 891 899 756 899 q 1026 903 1026 899 l 1019 778 q 958 753 975 772 q 939 690 940 733 l 921 0 l 660 -17 q 375 438 515 224 l 354 438 l 358 190 q 371 135 360 150 q 413 119 382 119 l 460 125 l 472 113 l 457 -6 q 251 0 303 0 q 29 -11 157 0 l 43 114 q 122 201 121 124 l 139 686 q 119 750 139 733 q 35 774 100 767 l 18 793 l 26 906 q 232 899 131 899 l 410 904 q 676 463 521 704 l 697 463 l 692 717 q 681 764 690 751 q 646 776 671 776 z "},"O":{"ha":910,"x_min":21,"x_max":889,"o":"m 339 467 q 339 389 339 467 q 366 235 339 311 q 457 158 393 158 q 546 210 521 158 q 571 419 571 263 q 543 650 571 575 q 451 725 515 725 q 363 674 388 725 q 339 467 339 624 m 889 472 q 771 110 889 238 q 443 -17 653 -17 q 127 99 233 -17 q 21 441 21 215 q 138 791 21 667 q 475 915 254 915 q 889 472 889 915 z "},"P":{"ha":842,"x_min":19,"x_max":863,"o":"m 863 618 q 758 388 863 486 q 515 289 654 289 l 396 289 l 396 222 q 410 143 396 164 q 465 122 424 122 l 511 125 l 518 114 l 504 -6 q 278 0 336 0 l 19 -12 l 32 115 q 103 149 83 124 q 122 233 122 175 l 122 701 q 115 760 122 744 q 86 776 107 776 l 38 774 l 24 790 l 38 899 l 236 899 l 486 907 q 652 887 581 907 q 763 837 724 867 q 825 767 801 807 q 863 618 863 701 m 576 604 q 542 703 576 672 q 433 733 507 733 q 415 728 419 733 q 399 460 408 718 l 494 446 q 576 604 576 475 z "},"Q":{"ha":915,"x_min":21,"x_max":1151,"o":"m 435 -17 q 127 99 233 -17 q 21 441 21 215 q 138 791 21 667 q 475 915 254 915 q 889 472 889 915 q 832 217 889 328 q 674 44 775 106 l 674 25 q 833 -66 749 -32 q 985 -100 917 -100 q 1111 -86 1039 -100 l 1128 -101 l 1151 -196 q 907 -336 958 -336 q 735 -278 821 -336 q 435 -17 649 -219 m 339 467 q 339 389 339 467 q 366 235 339 311 q 457 158 393 158 q 546 210 521 158 q 571 419 571 263 q 543 650 571 575 q 451 725 515 725 q 363 674 388 725 q 339 467 339 624 z "},"R":{"ha":942,"x_min":19,"x_max":946,"o":"m 396 317 l 396 222 q 412 142 396 158 q 494 122 428 125 l 501 111 l 488 -6 q 267 0 318 0 q 19 -12 154 0 l 32 115 q 103 149 83 124 q 122 233 122 175 l 122 715 q 115 763 122 750 q 86 776 107 776 l 38 774 l 24 790 l 39 900 q 236 899 179 899 l 493 907 q 876 646 876 907 q 710 383 876 482 l 796 239 q 931 117 868 117 l 946 94 l 933 -7 l 718 -22 q 623 7 660 -22 q 560 104 586 36 l 474 317 l 396 317 m 506 478 q 572 528 553 497 q 590 619 590 560 q 552 706 590 678 q 433 733 514 733 q 415 728 419 733 q 400 492 406 714 l 506 478 z "},"S":{"ha":765,"x_min":18,"x_max":743,"o":"m 308 -17 q 168 -2 236 -17 q 67 28 100 13 l 35 43 l 18 68 q 47 297 43 206 l 222 310 q 344 168 222 168 q 412 183 388 168 q 436 221 436 199 q 426 258 436 243 q 394 286 417 272 q 352 309 371 300 q 294 335 333 318 q 238 360 256 351 q 83 462 140 403 q 25 618 25 521 q 142 834 25 753 q 453 915 260 915 q 587 906 521 915 q 718 876 653 896 l 735 846 q 697 604 708 729 l 536 593 l 519 604 l 519 626 q 418 724 519 724 q 355 706 379 724 q 331 661 331 689 q 340 631 331 642 q 355 613 349 619 q 374 599 361 606 q 394 587 386 592 q 419 574 403 582 q 446 563 436 567 q 476 550 456 558 q 526 528 496 542 q 592 497 557 515 q 665 447 626 478 q 743 274 743 383 q 627 61 743 139 q 308 -17 511 -17 z "},"T":{"ha":824,"x_min":0,"x_max":824,"o":"m 274 233 l 274 731 q 200 695 218 731 q 172 542 182 660 l 0 531 q 11 894 10 736 l 29 914 l 194 899 l 631 899 l 799 914 l 817 894 l 824 542 l 651 531 q 625 697 640 664 q 556 731 610 731 q 549 222 549 501 q 565 148 549 169 q 621 126 581 126 l 692 131 l 699 122 l 686 -8 q 404 0 483 0 l 125 -12 l 136 115 q 247 145 221 122 q 274 233 274 168 z "},"U":{"ha":871,"x_min":0,"x_max":872,"o":"m 357 306 q 385 199 357 238 q 465 160 413 160 q 540 189 517 160 q 564 282 564 218 l 563 701 q 555 760 563 744 q 526 776 547 776 l 494 774 l 490 779 l 506 903 q 672 899 621 899 l 872 903 l 861 778 q 806 753 818 764 q 794 717 794 742 l 794 325 q 701 69 794 156 q 426 -17 607 -17 q 164 53 246 -17 q 82 276 82 124 l 82 701 q 74 762 82 747 q 43 776 67 776 l 3 774 l 0 779 l 14 903 q 260 899 150 899 l 446 904 l 432 775 q 381 756 396 772 q 365 707 367 740 l 357 306 z "},"V":{"ha":890,"x_min":-7,"x_max":899,"o":"m 463 776 q 385 762 397 768 q 374 731 374 756 q 449 233 374 681 l 479 233 q 593 746 593 700 q 585 769 593 764 q 550 774 578 774 l 514 774 l 503 788 l 514 903 q 728 899 643 899 l 899 900 l 889 779 q 856 758 867 772 q 832 703 844 743 l 625 6 l 243 -18 q 79 685 118 535 q 49 753 67 732 q 3 778 32 774 l -7 792 l 4 901 q 194 899 121 899 l 460 906 l 471 893 l 463 776 z "},"W":{"ha":1386,"x_min":-7,"x_max":1394,"o":"m 460 233 q 569 735 569 676 q 555 769 569 761 q 492 778 540 778 l 482 792 l 494 901 q 719 899 638 899 l 974 906 l 985 893 l 975 776 q 901 762 913 768 q 890 731 890 756 q 961 233 890 672 l 990 233 q 1100 746 1100 700 q 1092 769 1100 764 q 1058 774 1085 774 l 1024 774 l 1014 788 l 1025 903 q 1231 899 1150 899 l 1394 900 l 1385 779 q 1352 758 1363 772 q 1329 703 1342 743 l 1138 6 l 769 -18 l 708 378 l 689 378 l 601 6 l 233 -18 q 76 685 113 535 q 3 778 54 771 l -7 792 l 6 901 q 188 899 117 899 l 443 906 l 453 893 l 444 776 q 370 762 382 768 q 358 731 358 756 q 431 233 358 681 l 460 233 z "},"X":{"ha":988,"x_min":1,"x_max":988,"o":"m 550 589 q 635 749 635 731 q 624 773 635 767 q 582 779 613 779 l 579 788 l 588 899 l 803 899 l 982 903 l 988 892 l 981 771 q 876 707 914 739 q 803 619 838 675 l 672 418 l 793 249 q 967 129 876 131 l 972 124 l 960 -1 q 772 3 825 3 l 485 -7 l 475 3 l 485 119 q 525 147 525 122 q 510 185 525 164 l 425 307 l 372 219 q 349 164 349 182 q 403 122 349 122 l 411 107 l 404 -6 q 194 3 239 3 l 8 -6 l 1 14 l 10 125 q 93 194 40 139 q 185 304 146 249 l 307 481 l 193 649 q 119 731 151 710 q 28 765 86 751 l 21 774 l 33 900 q 278 899 131 899 l 518 907 l 526 892 l 517 778 q 463 744 463 778 q 476 699 463 719 q 493 672 489 678 q 519 633 514 640 q 534 611 524 626 q 550 589 544 596 z "},"Y":{"ha":921,"x_min":0,"x_max":921,"o":"m 413 743 q 490 538 413 732 l 510 538 l 567 696 q 585 758 585 736 q 532 779 585 779 l 528 788 l 539 897 l 758 897 l 915 903 l 921 892 l 910 771 q 756 596 817 718 l 629 343 q 608 230 608 294 q 624 146 608 165 q 678 126 639 126 l 749 131 l 756 122 l 743 -8 q 456 0 536 0 l 176 -12 l 188 115 q 303 142 276 121 q 331 225 331 164 l 331 247 q 292 372 331 300 l 143 649 q 6 765 101 725 l 0 774 l 14 900 q 222 897 176 897 l 472 907 l 482 892 l 469 778 q 413 743 413 778 z "},"Z":{"ha":825,"x_min":4,"x_max":829,"o":"m 793 26 l 764 -4 l 168 4 l 54 -10 l 4 71 l 457 753 l 350 739 q 247 697 269 724 q 222 581 225 669 l 47 568 q 68 901 64 772 l 83 917 l 335 901 l 794 901 l 829 826 q 367 151 640 574 l 513 172 q 610 228 579 185 q 650 369 640 272 l 825 382 q 793 26 796 165 z "},"[":{"ha":453,"x_min":90,"x_max":449,"o":"m 438 -176 l 90 -161 q 106 361 106 222 l 90 888 l 443 903 l 449 889 l 438 772 l 310 749 l 310 -22 l 443 -46 l 449 -61 l 438 -176 z "},"\\":{"ha":457,"x_min":-21,"x_max":451,"o":"m -21 910 l 3 938 l 168 938 l 328 314 l 451 -132 l 436 -153 l 261 -153 q 146 299 204 69 l -21 910 z "},"]":{"ha":453,"x_min":4,"x_max":363,"o":"m 15 903 l 363 888 q 347 365 347 504 l 363 -161 l 10 -176 l 4 -162 l 15 -46 l 143 -22 l 143 749 l 10 772 l 4 788 l 15 903 z "},"^":{"ha":653,"x_min":7,"x_max":646,"o":"m 421 672 l 442 661 q 554 403 513 499 l 646 211 l 518 133 l 489 146 q 396 347 440 249 l 328 489 l 317 489 l 263 364 l 168 133 l 22 181 l 7 206 q 104 415 58 308 l 211 663 l 421 672 z "},"_":{"ha":622,"x_min":-17,"x_max":640,"o":"m 621 -303 l -1 -304 l -17 -278 l -1 -132 l 506 -132 l 626 -129 l 640 -156 l 621 -303 z "},"`":{"ha":553,"x_min":81,"x_max":464,"o":"m 83 892 l 81 915 l 181 1056 l 204 1056 q 464 824 333 936 l 407 739 l 376 729 q 83 892 218 822 z "},"a":{"ha":814,"x_min":6,"x_max":808,"o":"m 472 140 l 468 182 q 383 183 436 183 l 296 179 q 286 124 286 138 q 290 108 286 111 q 317 106 294 106 l 342 106 l 353 93 l 343 -4 q 163 -1 232 -1 l 6 -1 l 14 100 q 68 154 53 111 l 246 694 l 581 713 l 599 697 q 733 186 711 267 q 800 101 756 106 l 808 89 l 799 -3 q 632 -1 697 -1 l 404 -6 l 394 4 l 401 104 q 469 119 464 111 q 472 140 472 125 m 388 331 q 442 332 421 331 l 408 504 l 382 504 l 335 331 l 388 331 z "},"b":{"ha":794,"x_min":18,"x_max":771,"o":"m 740 536 q 714 450 740 489 q 632 372 678 393 q 697 343 660 365 q 771 217 771 297 q 687 44 771 100 q 431 -12 603 -12 q 236 0 356 0 l 18 -7 l 29 99 q 89 122 74 106 q 104 175 104 138 l 106 549 q 76 596 106 596 l 36 594 l 21 608 l 36 703 q 239 700 204 700 l 472 708 q 740 536 740 708 m 347 182 q 425 138 347 138 q 503 206 503 138 q 440 272 503 253 l 353 274 l 347 182 m 483 494 q 383 556 483 556 q 363 543 364 556 l 356 428 q 443 415 415 415 q 483 494 483 444 z "},"c":{"ha":711,"x_min":24,"x_max":686,"o":"m 668 288 q 657 47 657 165 l 640 29 q 357 -11 513 -11 q 113 81 201 -11 q 24 347 24 172 q 126 617 24 522 q 428 713 229 713 q 676 685 515 713 l 686 660 q 653 421 661 558 l 460 410 q 461 476 461 438 q 447 532 461 515 q 386 549 432 549 q 324 515 340 549 q 307 371 307 482 q 328 209 307 260 q 394 158 349 158 q 456 184 439 158 q 476 275 472 210 l 668 288 z "},"d":{"ha":803,"x_min":24,"x_max":779,"o":"m 106 190 l 106 536 q 99 582 106 569 q 78 594 93 594 l 42 592 l 29 608 l 40 703 q 222 700 175 700 l 415 707 q 779 382 779 707 q 672 92 779 197 q 378 -12 565 -12 q 192 0 267 0 l 24 -8 l 32 101 q 90 126 75 107 q 106 190 106 146 m 379 554 q 357 525 358 554 q 346 181 346 394 q 352 145 346 154 q 374 136 358 136 q 468 180 442 136 q 494 346 494 224 q 472 511 494 468 q 379 554 450 554 z "},"e":{"ha":717,"x_min":18,"x_max":697,"o":"m 349 203 q 357 149 349 161 q 415 138 365 138 q 488 158 464 138 q 521 249 511 179 l 681 260 l 696 242 q 664 11 675 133 l 644 -7 q 339 0 460 0 q 18 -11 163 0 l 29 97 q 86 124 71 103 q 101 193 101 144 l 103 538 q 97 584 103 572 q 74 596 92 596 l 44 594 l 29 611 l 40 703 q 389 700 213 700 q 681 713 565 700 l 697 694 q 671 472 676 575 l 497 463 q 500 511 500 488 q 479 546 500 535 q 417 557 458 557 q 368 551 375 557 q 361 531 361 546 l 356 424 l 446 424 l 571 429 l 586 411 l 569 276 q 459 279 486 279 q 349 274 432 279 l 349 203 z "},"f":{"ha":664,"x_min":18,"x_max":663,"o":"m 349 201 q 358 150 349 163 q 399 138 367 138 q 461 147 432 138 l 482 125 l 465 -3 q 275 0 329 0 q 18 -10 186 0 l 29 99 q 86 124 71 104 q 101 193 101 144 l 103 538 q 97 584 103 572 q 74 596 92 596 l 44 594 l 29 611 l 40 703 q 378 700 213 700 q 647 713 544 700 l 663 694 q 643 474 647 572 l 471 464 q 472 510 472 488 q 456 545 472 533 q 407 557 439 557 q 368 551 375 557 q 361 531 361 546 l 354 406 l 446 404 l 567 410 l 582 393 l 567 258 q 456 261 485 261 q 349 256 426 261 l 349 201 z "},"g":{"ha":753,"x_min":24,"x_max":728,"o":"m 393 390 l 572 392 q 715 397 715 392 l 728 328 q 674 274 685 306 q 664 158 664 242 q 672 40 664 75 l 657 21 q 389 -11 568 -11 q 117 81 210 -11 q 24 348 24 172 q 129 618 24 524 q 442 713 235 713 q 676 685 540 713 l 690 660 q 657 436 664 567 l 464 425 q 467 486 467 450 q 456 536 467 522 q 413 550 444 550 q 328 515 349 550 q 307 369 307 481 q 330 207 307 257 q 408 157 353 157 q 456 165 439 157 l 456 222 q 449 255 456 246 q 422 264 442 264 l 390 263 l 378 281 l 393 390 z "},"h":{"ha":868,"x_min":21,"x_max":858,"o":"m 771 176 q 781 122 771 138 q 815 106 792 106 l 844 108 l 856 94 l 844 -1 q 640 0 742 0 l 442 -1 l 450 101 q 508 121 490 103 q 525 178 525 139 l 525 278 q 471 279 496 279 l 349 269 l 349 176 q 356 117 349 132 q 385 103 363 103 l 413 106 l 422 93 l 413 -4 q 223 0 263 0 q 133 -1 183 0 q 21 -4 83 -3 l 31 96 q 89 121 75 104 q 103 183 103 138 l 103 542 q 94 585 103 575 q 63 596 86 596 l 33 596 l 22 613 l 32 700 l 183 700 l 426 704 l 418 599 q 372 583 383 593 q 360 550 361 574 l 353 428 l 438 424 q 525 426 492 424 l 525 542 q 517 585 525 574 q 485 596 508 596 l 454 596 l 443 613 l 453 700 l 647 700 l 858 704 l 850 601 q 796 584 808 594 q 782 543 783 574 q 771 176 771 425 z "},"i":{"ha":447,"x_min":21,"x_max":432,"o":"m 349 176 q 356 117 349 132 q 385 103 363 103 l 418 106 l 428 93 l 418 -4 q 219 0 268 0 l 21 -4 l 31 96 q 90 122 76 106 q 103 183 103 138 l 103 542 q 94 585 103 575 q 63 596 86 596 l 35 596 l 24 613 l 33 700 l 225 700 l 432 704 l 424 599 q 374 583 385 593 q 360 543 363 574 q 349 176 349 399 z "},"j":{"ha":413,"x_min":0,"x_max":414,"o":"m 94 146 l 94 542 q 88 586 94 575 q 58 597 81 597 l 18 594 l 7 613 l 17 700 l 183 701 l 414 708 l 404 599 q 363 582 371 592 q 351 543 354 572 q 338 86 338 346 q 269 -81 338 -17 q 49 -181 200 -146 l 0 -126 l 1 -108 q 76 -8 58 -56 q 94 146 94 40 z "},"k":{"ha":828,"x_min":21,"x_max":821,"o":"m 103 183 l 103 542 q 94 585 103 575 q 63 596 86 596 l 33 596 l 22 613 l 33 701 q 225 700 207 700 l 433 704 l 425 599 q 370 577 382 588 q 357 539 358 567 l 349 176 q 356 117 349 132 q 385 103 363 103 l 419 106 l 429 93 l 419 -4 q 219 0 268 0 l 21 -6 l 29 93 q 89 121 75 104 q 103 183 103 138 m 482 511 q 504 555 504 531 q 495 586 504 579 q 461 594 486 593 l 453 607 l 464 703 q 633 700 579 700 l 807 706 l 819 688 l 808 600 q 633 429 722 550 l 604 388 l 700 199 q 808 100 744 111 l 821 82 l 808 -6 q 613 -18 651 -18 q 547 0 574 -18 q 494 69 521 18 l 357 343 l 363 378 l 482 511 z "},"l":{"ha":669,"x_min":17,"x_max":660,"o":"m 614 -7 q 331 0 443 0 q 17 -11 161 0 l 28 97 q 86 124 71 103 q 101 193 101 144 l 101 542 q 93 585 101 575 q 61 596 85 596 l 33 596 l 21 613 l 31 700 l 224 700 l 478 704 l 464 589 q 382 574 403 583 q 360 540 361 564 q 347 178 347 378 q 383 138 347 138 q 460 173 440 138 q 485 318 479 208 l 644 333 l 660 315 q 633 13 643 169 l 614 -7 z "},"m":{"ha":979,"x_min":13,"x_max":979,"o":"m 86 165 l 125 547 q 117 583 125 578 q 57 593 108 588 l 47 603 l 60 706 q 235 700 185 700 l 425 704 q 496 396 451 568 l 513 396 q 596 700 564 571 q 826 701 807 700 l 933 707 l 942 703 l 932 597 q 872 586 885 596 q 858 543 858 576 q 883 197 858 403 q 898 126 886 146 q 936 106 910 106 l 971 107 l 979 97 l 969 -3 q 606 -8 651 3 l 619 99 q 665 113 651 101 q 678 151 678 125 l 678 361 l 661 361 q 549 0 592 158 l 389 -11 q 278 365 307 293 l 276 365 q 278 361 276 364 l 261 361 q 260 140 260 164 q 299 104 260 104 l 326 106 l 338 97 l 324 -4 q 160 0 189 0 q 97 -2 131 0 q 38 -6 63 -4 q 13 -8 13 -7 l 21 97 q 69 116 54 100 q 86 165 85 132 z "},"n":{"ha":875,"x_min":18,"x_max":869,"o":"m 538 597 l 503 597 l 496 610 l 501 704 q 753 700 636 700 q 869 703 869 700 l 864 597 q 814 577 828 592 q 799 529 800 563 l 783 6 l 543 -7 l 332 301 l 313 301 l 318 158 q 328 113 319 125 q 364 101 338 101 l 400 106 l 413 96 l 399 -4 q 214 0 264 0 l 28 -8 l 40 97 q 88 117 74 101 q 104 165 103 133 l 118 525 q 103 574 118 563 q 33 593 88 586 l 18 610 l 25 706 q 206 700 114 700 l 363 704 q 561 396 436 578 l 581 396 l 575 550 q 565 588 572 578 q 538 597 558 597 z "},"o":{"ha":769,"x_min":24,"x_max":746,"o":"m 310 365 q 310 305 310 365 q 326 191 310 244 q 386 138 342 138 q 445 171 431 138 q 460 325 460 204 q 444 498 460 446 q 383 550 428 550 q 324 518 338 550 q 310 365 310 486 m 746 362 q 746 272 746 362 q 649 85 746 182 q 376 -12 553 -12 q 24 340 24 -12 q 400 713 24 713 q 660 627 575 713 q 746 362 746 542 z "},"p":{"ha":726,"x_min":18,"x_max":740,"o":"m 740 476 q 653 295 740 372 q 449 218 567 218 l 349 218 l 349 175 q 361 120 349 136 q 408 104 374 104 l 443 106 l 449 96 l 438 -4 q 252 0 288 0 q 160 -3 217 0 q 18 -10 104 -6 l 29 99 q 87 125 71 104 q 103 190 103 146 l 103 538 q 97 583 103 571 q 75 596 90 596 l 33 594 l 21 608 l 33 700 l 203 700 l 418 707 q 563 690 501 707 q 658 649 625 672 q 711 592 690 625 q 740 476 740 540 m 483 468 q 458 536 483 515 q 378 557 433 557 q 365 552 368 557 q 360 532 361 547 l 351 363 l 425 353 q 483 468 483 375 z "},"q":{"ha":774,"x_min":24,"x_max":969,"o":"m 24 340 q 400 713 24 713 q 660 627 575 713 q 746 367 746 542 q 581 40 746 146 l 581 24 q 703 -40 635 -15 q 811 -65 772 -65 q 933 -54 872 -65 l 949 -68 l 969 -151 q 754 -267 799 -267 q 615 -220 685 -267 q 369 -12 544 -174 q 112 77 200 -12 q 24 340 24 167 m 310 365 q 310 305 310 365 q 326 191 310 244 q 386 138 342 138 q 445 171 431 138 q 460 325 460 204 q 444 498 460 446 q 383 550 428 550 q 324 518 338 550 q 310 365 310 486 z "},"r":{"ha":811,"x_min":19,"x_max":807,"o":"m 349 238 l 349 179 q 362 119 349 132 q 431 104 375 107 l 438 94 l 425 -4 q 232 0 275 0 q 19 -11 150 0 l 29 97 q 87 125 71 104 q 103 190 103 146 l 103 551 q 97 586 103 576 q 75 596 90 596 l 33 594 l 21 608 l 35 701 q 203 700 156 700 l 425 707 q 756 499 756 707 q 621 294 756 372 l 685 196 q 793 100 747 100 l 807 81 l 796 -6 l 607 -17 q 526 5 556 -17 q 474 81 496 26 l 410 238 l 349 238 m 488 414 q 493 424 488 414 q 499 476 499 435 q 470 537 499 518 q 379 556 442 556 q 364 551 368 556 q 353 388 357 542 l 436 376 q 488 414 476 393 z "},"s":{"ha":657,"x_min":18,"x_max":636,"o":"m 267 -12 q 147 -1 206 -12 q 33 35 89 11 l 18 56 q 44 232 40 167 l 201 243 q 226 171 201 196 q 306 146 251 146 q 361 178 361 146 q 328 221 361 203 q 254 253 293 238 q 75 349 126 299 q 24 476 24 399 q 124 649 24 585 q 390 713 224 713 q 615 682 504 713 l 631 656 q 599 467 608 564 l 454 457 l 439 467 l 439 478 q 418 530 439 511 q 365 549 397 549 q 315 538 333 549 q 297 515 297 528 q 301 494 297 501 q 313 479 304 486 q 330 467 322 472 q 353 455 338 461 q 380 444 369 449 q 411 433 390 440 q 458 417 432 426 q 512 392 483 407 q 572 353 540 378 q 636 215 636 306 q 538 48 636 108 q 267 -12 440 -12 z "},"t":{"ha":710,"x_min":8,"x_max":703,"o":"m 232 182 l 232 554 q 183 525 194 554 q 163 404 171 496 l 8 396 q 17 696 15 567 l 32 713 l 175 700 l 538 700 l 682 713 l 699 696 l 703 404 l 547 396 q 529 527 539 500 q 483 554 519 554 q 479 182 479 388 q 492 124 479 140 q 539 107 506 107 l 596 111 l 603 104 l 592 -7 q 350 0 417 0 l 108 -11 l 117 99 q 209 121 186 104 q 232 182 232 138 z "},"u":{"ha":733,"x_min":4,"x_max":731,"o":"m 336 163 q 346 150 336 163 q 392 138 356 138 q 444 156 428 138 q 461 217 461 174 l 460 538 q 432 596 461 596 l 408 594 l 404 599 l 418 703 q 557 700 515 700 l 731 703 l 721 596 q 678 576 688 585 q 668 551 668 568 l 668 257 q 358 -12 668 -12 q 138 40 206 -12 q 71 213 71 93 l 71 538 q 65 585 71 574 q 39 596 58 596 l 7 594 l 4 599 l 17 703 q 231 700 133 700 l 389 704 l 376 593 q 324 543 326 592 l 317 232 q 336 163 317 189 z "},"v":{"ha":763,"x_min":4,"x_max":761,"o":"m 386 196 l 413 196 q 494 571 494 554 q 490 590 494 588 q 465 593 485 593 l 439 593 l 429 606 l 438 703 q 617 700 547 700 l 761 701 l 753 599 q 728 581 736 593 q 710 539 721 569 l 549 4 l 199 -14 q 78 499 94 438 q 48 578 61 561 q 14 597 35 594 l 4 610 l 14 703 q 175 700 111 700 l 401 704 l 411 694 l 404 594 q 343 584 351 589 q 335 555 335 579 q 386 196 335 531 z "},"w":{"ha":1181,"x_min":4,"x_max":1178,"o":"m 369 196 l 396 196 q 435 364 403 218 q 474 546 468 510 l 481 569 q 472 593 482 589 q 446 597 463 597 q 421 597 429 597 l 413 610 l 424 703 q 617 700 546 700 l 835 704 l 844 694 l 836 594 q 777 584 785 588 q 769 561 769 581 q 817 196 769 521 l 842 196 q 888 397 853 240 q 922 570 922 553 q 917 590 922 588 q 893 593 913 593 l 868 593 l 860 606 l 868 703 q 1040 700 975 700 l 1178 701 l 1171 599 q 1147 581 1154 593 q 1128 539 1139 569 l 979 4 l 643 -14 q 604 267 625 99 l 588 267 l 526 4 l 190 -14 q 74 499 90 438 q 45 578 57 561 q 14 597 33 594 l 4 610 l 15 703 q 169 700 107 700 l 388 704 l 396 694 l 389 594 q 329 584 338 589 q 321 545 321 579 q 369 196 321 511 z "},"x":{"ha":847,"x_min":10,"x_max":842,"o":"m 499 699 l 838 703 l 842 694 l 836 590 q 690 472 736 542 l 586 317 l 676 203 q 819 110 749 110 l 824 106 l 814 0 q 656 3 699 3 l 410 -4 l 401 3 l 410 103 q 435 121 435 103 q 424 147 435 132 l 361 226 l 325 171 q 311 136 311 149 q 353 104 311 104 l 361 92 l 356 -4 q 175 3 211 3 l 15 -4 l 10 13 l 15 106 q 82 160 38 117 q 156 243 126 204 l 254 379 l 167 494 q 81 572 122 556 q 32 586 65 578 l 26 593 l 38 701 q 244 700 114 700 l 450 707 l 457 693 l 449 596 q 444 596 447 596 q 410 572 410 596 q 426 528 410 550 q 445 502 442 507 q 460 485 449 497 q 475 467 471 472 q 500 508 482 481 q 535 578 535 564 q 499 597 535 597 q 493 597 496 597 l 492 604 l 499 699 z "},"y":{"ha":803,"x_min":13,"x_max":790,"o":"m 463 697 l 651 699 l 786 703 l 790 694 l 781 590 q 711 532 746 569 q 656 456 676 494 l 553 258 q 536 179 536 221 q 549 122 536 138 q 594 107 561 107 l 654 111 l 660 104 l 650 -7 q 399 0 468 0 l 154 -10 l 163 99 q 262 118 238 103 q 286 179 286 133 l 286 190 q 254 283 286 229 l 128 501 q 18 586 99 544 l 13 593 l 25 701 q 204 699 168 699 l 417 707 l 426 693 l 414 596 q 407 596 410 596 q 372 571 372 596 q 396 508 372 560 q 429 433 419 457 l 446 433 l 482 536 q 497 582 497 567 q 464 597 497 597 q 457 597 460 597 l 453 604 l 463 697 z "},"z":{"ha":708,"x_min":8,"x_max":710,"o":"m 679 22 l 654 -3 l 150 3 l 53 -8 l 8 60 l 376 575 l 303 564 q 222 530 238 549 q 204 444 206 511 l 46 435 q 63 703 60 601 l 76 714 l 285 703 l 678 704 l 710 640 q 333 131 533 425 l 439 149 q 519 192 494 160 q 549 297 543 225 l 706 308 q 679 22 682 131 z "},"{":{"ha":465,"x_min":57,"x_max":465,"o":"m 157 522 q 120 632 157 550 q 83 754 83 714 q 151 871 83 826 q 326 915 218 915 q 451 899 376 915 l 465 876 l 440 761 q 392 768 413 768 q 322 699 322 768 q 341 613 322 678 q 360 513 360 547 q 333 447 360 478 q 258 403 306 415 l 258 396 q 360 271 360 363 q 341 166 360 240 q 322 61 322 92 q 342 9 322 31 q 399 -12 363 -12 l 442 -6 l 460 -24 l 440 -139 q 296 -171 389 -171 q 143 -124 203 -171 q 83 -10 83 -78 q 120 117 83 33 q 157 225 157 201 q 57 326 157 299 l 63 432 q 157 522 157 461 z "},"|":{"ha":407,"x_min":108,"x_max":299,"o":"m 269 1121 l 299 1099 q 290 404 290 635 l 292 -358 l 129 -374 l 108 -351 q 111 1106 108 -339 l 269 1121 z "},"}":{"ha":465,"x_min":0,"x_max":408,"o":"m 403 326 q 334 292 360 317 q 308 238 308 267 q 345 126 308 208 q 382 4 382 44 q 315 -122 382 -74 q 139 -171 247 -171 q 14 -154 89 -171 l 0 -132 l 25 -17 q 74 -24 53 -24 q 143 46 143 -24 q 124 139 143 68 q 106 238 106 210 q 207 356 106 326 l 207 363 q 106 488 106 396 q 124 585 106 515 q 143 684 143 654 q 123 735 143 714 q 67 757 103 757 l 24 750 l 6 768 l 25 883 q 169 915 76 915 q 322 869 263 915 q 382 754 382 822 q 345 635 382 714 q 308 525 308 556 q 335 467 308 494 q 408 432 361 440 l 403 326 z "},"~":{"ha":701,"x_min":14,"x_max":688,"o":"m 193 475 q 338 451 226 475 q 472 428 449 428 q 525 448 494 428 q 597 508 556 468 l 619 508 l 688 431 l 688 408 l 539 249 l 508 243 q 364 267 475 243 q 230 290 253 290 q 176 270 207 290 q 104 210 146 250 l 82 210 l 14 288 l 14 310 l 163 469 l 193 475 z "}," ":{"ha":200,"x_min":0,"x_max":0,"o":""},"¡":{"ha":394,"x_min":13,"x_max":342,"o":"m 71 530 q 71 562 71 530 q 108 633 71 594 q 210 672 146 672 q 308 638 275 672 q 342 539 342 604 q 303 435 342 474 q 202 396 265 396 q 105 431 139 396 q 71 530 71 465 m 286 292 l 333 -267 l 308 -300 l 47 -336 l 13 -300 l 114 297 l 257 319 l 286 292 z "},"¢":{"ha":611,"x_min":19,"x_max":576,"o":"m 226 0 q 74 112 128 29 q 19 328 19 194 q 97 554 19 461 q 310 667 175 647 l 339 894 l 500 914 l 508 901 l 479 664 q 569 642 529 656 l 576 626 q 544 385 554 510 l 417 378 l 417 428 q 404 490 417 472 q 361 508 392 508 q 282 379 282 508 q 309 223 282 272 q 394 174 336 174 q 514 200 461 174 l 531 210 l 544 203 l 575 99 q 393 -8 482 17 l 368 -210 l 210 -228 l 199 -219 l 226 0 z "},"£":{"ha":710,"x_min":21,"x_max":707,"o":"m 621 300 l 664 300 q 694 232 682 278 q 707 146 707 186 q 660 29 707 75 q 540 -17 613 -17 q 404 21 497 -17 q 267 58 311 58 q 76 -1 178 58 l 56 7 l 21 133 q 132 279 132 190 l 132 326 q 113 369 131 358 q 39 382 94 379 l 33 390 l 44 488 l 132 500 l 132 538 q 248 738 132 644 q 487 831 364 831 q 669 810 610 831 l 676 794 l 617 613 l 590 608 q 441 668 488 668 q 380 649 394 668 q 365 579 365 629 l 363 500 l 556 504 l 563 494 l 547 376 q 358 381 468 381 l 357 328 q 345 254 357 292 q 317 200 333 217 l 399 219 q 469 208 414 219 q 552 196 525 196 q 600 224 579 196 q 621 300 621 253 z "},"¤":{"ha":617,"x_min":-8,"x_max":653,"o":"m 101 389 q 86 477 86 431 q 103 565 86 524 l -8 665 l -3 697 l 143 804 l 235 697 q 325 715 281 715 q 415 697 369 715 l 511 807 l 543 801 l 650 656 l 547 567 q 565 473 565 519 q 546 381 565 426 l 653 288 l 647 256 l 501 149 l 411 251 q 323 236 369 236 q 231 256 276 236 l 133 146 l 101 151 l -6 297 l 101 389 m 252 549 q 237 533 252 549 q 222 475 222 518 q 252 402 222 432 q 325 372 282 372 q 399 402 368 372 q 429 475 429 432 q 399 549 429 518 q 325 579 368 579 q 252 549 282 579 z "},"¥":{"ha":818,"x_min":10,"x_max":788,"o":"m 10 593 q 22 701 14 647 q 254 699 119 699 q 414 707 389 699 l 422 693 l 411 596 q 369 576 369 596 q 426 433 369 567 l 443 433 q 494 585 494 578 q 492 594 494 592 q 484 594 489 596 q 472 592 479 593 q 450 604 458 586 l 460 697 l 649 699 l 782 703 l 788 694 l 778 590 q 714 547 735 567 q 667 483 692 528 l 769 486 l 781 472 l 772 353 l 592 353 l 556 289 l 765 293 l 776 279 l 768 160 l 524 160 q 531 133 524 150 q 585 107 540 107 l 643 111 l 650 104 l 640 -7 q 394 0 461 0 l 149 -10 l 158 99 q 246 115 222 103 q 275 160 269 126 l 49 158 l 35 169 l 51 288 l 256 288 l 219 353 l 53 351 l 39 363 l 56 481 l 140 481 q 76 532 135 489 q 10 593 18 575 z "},"¦":{"ha":407,"x_min":108,"x_max":299,"o":"m 110 208 l 265 232 l 290 208 l 292 -358 l 129 -374 l 108 -351 q 110 208 108 -47 m 110 513 l 111 1106 l 269 1121 l 299 1099 q 290 519 292 761 l 128 497 l 110 513 z "},"§":{"ha":675,"x_min":29,"x_max":651,"o":"m 581 93 q 493 -67 581 -3 q 275 -132 406 -132 q 125 -99 192 -132 q 58 -25 58 -65 q 114 149 58 74 l 151 146 q 196 65 158 99 q 278 32 233 32 q 324 65 324 32 q 293 113 324 90 q 219 155 263 135 q 133 200 176 175 q 60 267 90 225 q 29 364 29 310 q 176 557 29 481 q 104 703 104 617 q 185 853 104 790 q 389 915 265 915 q 531 894 469 915 q 593 844 593 872 q 573 742 593 804 q 535 665 553 681 l 500 665 q 462 722 488 700 q 414 744 436 744 q 379 734 392 744 q 367 706 367 724 q 396 665 367 688 q 467 620 425 643 q 551 569 508 597 q 622 499 593 542 q 651 404 651 456 q 513 221 651 301 q 581 93 581 167 m 272 496 q 246 440 246 469 q 257 390 246 411 q 297 349 268 369 q 406 286 336 322 q 426 339 426 311 q 415 388 426 367 q 375 431 404 410 q 272 496 338 460 z "},"¨":{"ha":553,"x_min":28,"x_max":524,"o":"m 406 776 q 294 888 294 776 q 326 976 294 943 q 413 1008 358 1008 q 495 979 467 1008 q 524 896 524 950 q 492 809 524 842 q 406 776 460 776 m 138 776 q 28 888 28 776 q 60 976 28 943 q 146 1008 92 1008 q 228 979 200 1008 q 257 896 257 950 q 225 809 257 842 q 138 776 193 776 z "},"©":{"ha":971,"x_min":63,"x_max":908,"o":"m 646 201 q 461 176 563 176 q 303 236 360 176 q 246 404 246 296 q 508 646 246 646 q 669 628 558 646 l 676 613 q 654 456 658 546 l 529 450 q 531 493 531 468 q 521 529 531 518 q 481 540 511 540 q 440 518 451 540 q 429 424 429 496 q 443 319 429 353 q 485 286 457 286 q 526 303 514 286 q 539 363 538 321 l 663 372 l 657 215 l 646 201 m 186 107 q 124 169 186 107 q 63 407 63 231 q 186 707 63 583 q 485 831 310 831 q 784 706 660 831 q 908 406 908 582 q 784 107 908 231 q 485 -17 660 -17 q 186 107 310 -17 m 245 649 q 195 599 245 649 q 146 407 146 549 q 245 165 146 265 q 485 65 344 65 q 725 165 625 65 q 825 407 825 265 q 725 649 825 549 q 485 749 625 749 q 245 649 344 749 z "},"ª":{"ha":504,"x_min":21,"x_max":500,"o":"m 449 769 l 428 613 q 454 582 428 582 l 483 588 l 500 561 q 394 443 439 451 q 283 510 292 443 l 271 515 q 164 447 203 447 q 63 495 104 447 q 21 611 21 543 q 38 664 21 642 q 83 693 56 686 l 272 724 q 249 766 271 750 q 200 782 228 782 q 85 743 151 782 l 72 749 l 47 828 q 251 907 200 907 q 403 867 357 907 q 449 769 449 828 m 193 622 q 228 574 193 574 l 269 574 l 271 651 l 208 640 q 193 622 193 638 z "},"«":{"ha":661,"x_min":14,"x_max":613,"o":"m 517 586 l 603 538 l 613 506 q 517 322 588 464 q 613 140 575 206 l 603 108 l 517 58 q 300 304 418 176 l 300 342 q 517 586 421 471 m 231 586 l 317 538 l 326 506 q 231 322 301 464 q 326 140 289 206 l 317 108 l 231 58 q 14 304 132 176 l 14 342 q 231 586 135 471 z "},"¬":{"ha":703,"x_min":21,"x_max":639,"o":"m 629 499 l 639 478 q 621 228 622 369 l 622 40 l 435 15 l 417 28 q 418 288 417 154 l 347 288 l 33 286 l 21 304 l 46 492 q 364 490 240 490 l 629 499 z "},"®":{"ha":650,"x_min":42,"x_max":608,"o":"m 124 503 q 83 545 124 503 q 42 704 42 586 q 124 905 42 822 q 325 988 207 988 q 526 905 443 988 q 608 704 608 822 q 526 503 608 586 q 325 421 443 421 q 124 503 207 421 m 166 863 q 133 830 166 863 q 100 704 100 797 q 166 545 100 611 q 325 479 232 479 q 484 545 418 479 q 550 704 550 611 q 484 863 550 797 q 325 929 418 929 q 166 863 232 929 m 218 650 l 218 793 q 207 818 218 818 l 192 817 l 188 819 l 192 854 l 267 854 q 324 857 296 854 q 450 778 450 857 q 399 696 450 726 l 426 651 q 468 613 444 615 l 471 608 l 472 590 q 468 582 472 583 q 417 573 449 574 q 374 578 385 572 q 351 610 363 585 l 325 675 l 301 675 l 301 646 q 306 621 301 625 q 322 615 311 617 q 334 614 333 614 q 335 613 335 614 l 331 576 q 265 579 283 579 l 249 579 l 186 575 l 190 613 q 218 650 218 618 m 303 728 l 336 726 q 361 769 361 735 q 314 804 361 804 q 307 793 307 804 l 303 728 z "},"¯":{"ha":553,"x_min":69,"x_max":497,"o":"m 482 963 l 497 938 l 472 786 l 92 783 l 69 804 l 96 956 q 310 954 228 954 l 482 963 z "},"°":{"ha":419,"x_min":22,"x_max":397,"o":"m 77 595 q 50 623 77 595 q 22 728 22 650 q 77 860 22 806 q 210 915 132 915 q 342 860 288 915 q 397 728 397 806 q 342 595 397 650 q 210 540 288 540 q 77 595 132 540 m 209 811 q 191 811 209 811 q 149 788 172 811 q 126 727 126 764 q 149 667 126 690 q 209 644 172 644 q 269 667 246 644 q 293 727 293 690 q 269 788 293 764 q 209 811 246 811 z "},"±":{"ha":703,"x_min":21,"x_max":681,"o":"m 663 278 l 446 276 l 447 81 l 267 56 l 249 68 q 250 276 249 171 l 33 275 l 21 293 l 46 481 q 250 479 147 479 l 251 697 l 433 715 l 454 706 q 446 479 449 583 l 671 488 l 681 467 l 663 278 m 639 -171 l 58 -172 l 43 -146 l 58 0 l 524 0 l 644 3 l 658 -24 l 639 -171 z "},"²":{"ha":524,"x_min":26,"x_max":504,"o":"m 157 685 q 236 808 236 769 q 187 847 236 847 q 81 786 138 847 l 63 786 l 38 906 q 135 983 79 954 q 262 1011 192 1011 q 384 972 332 1011 q 436 869 436 933 q 399 744 436 806 q 265 590 361 683 l 269 582 l 313 582 q 365 601 349 582 q 383 667 381 619 l 504 675 q 479 461 483 546 l 461 443 q 132 454 233 454 l 36 449 l 26 550 l 157 685 z "},"³":{"ha":457,"x_min":18,"x_max":426,"o":"m 131 581 q 221 629 221 581 q 119 668 221 668 l 107 683 l 96 775 l 158 786 q 210 850 210 806 q 171 881 210 881 q 74 843 132 881 l 58 843 l 25 946 q 127 994 69 976 q 244 1011 185 1011 q 350 980 304 1011 q 396 901 396 949 q 367 822 396 854 q 289 775 338 789 l 289 764 q 394 706 361 739 q 426 624 426 672 q 333 498 426 553 q 118 443 239 443 q 47 472 68 443 q 18 575 25 501 l 42 599 q 131 581 82 581 z "},"´":{"ha":553,"x_min":138,"x_max":521,"o":"m 521 915 l 518 892 q 225 729 368 814 l 194 739 l 138 824 l 397 1056 l 421 1056 l 521 915 z "},"µ":{"ha":758,"x_min":25,"x_max":767,"o":"m 264 -90 l 265 -146 l 274 -285 l 263 -301 l 46 -336 l 25 -317 q 53 101 44 -122 l 65 451 q 49 593 65 521 l 63 632 l 315 672 l 333 642 q 306 503 317 610 q 294 272 294 397 q 354 186 294 186 q 418 208 381 186 l 418 449 q 400 590 418 521 l 414 628 l 683 667 l 703 636 q 670 488 683 604 q 657 226 657 371 q 668 191 657 204 q 699 178 679 178 q 743 189 718 178 l 767 153 q 738 111 763 144 q 694 57 714 78 q 596 -17 643 1 q 433 85 451 -17 l 419 92 q 314 -14 340 -14 q 271 -4 288 -14 l 264 -8 l 264 -90 z "},"¶":{"ha":797,"x_min":7,"x_max":797,"o":"m 346 906 l 569 899 l 797 903 l 789 786 l 786 781 q 737 760 747 771 q 722 710 726 749 q 713 516 718 672 q 707 264 707 360 q 586 -10 707 110 q 311 -131 465 -131 q 169 -89 231 -131 q 108 7 108 -47 q 127 99 108 46 q 172 188 146 151 l 197 188 q 244 63 207 108 q 337 17 281 17 q 418 47 393 17 q 443 147 443 76 l 443 757 q 435 774 443 769 q 404 778 428 778 q 322 583 322 778 q 341 443 322 501 q 406 322 360 385 l 406 274 q 116 359 225 274 q 7 585 7 444 q 102 815 7 725 q 346 906 197 906 z "},"·":{"ha":331,"x_min":29,"x_max":300,"o":"m 300 356 q 300 324 300 356 q 263 253 300 292 q 160 214 225 214 q 63 248 96 214 q 29 347 29 282 q 67 451 29 413 q 169 490 106 490 q 266 456 232 490 q 300 356 300 421 z "},"¸":{"ha":553,"x_min":110,"x_max":438,"o":"m 288 -53 q 438 -206 438 -124 q 378 -296 438 -256 q 232 -336 318 -336 q 149 -316 188 -336 q 110 -265 110 -296 q 178 -167 110 -235 l 190 -167 q 210 -224 192 -204 q 265 -244 228 -244 q 303 -212 303 -244 q 182 -121 303 -179 l 225 49 l 310 49 l 288 -53 z "},"¹":{"ha":393,"x_min":17,"x_max":372,"o":"m 292 601 q 328 542 292 542 l 368 543 l 372 538 l 358 449 q 207 454 258 454 l 21 444 l 29 525 q 114 586 114 533 l 114 842 q 106 884 114 874 q 69 894 97 894 l 25 893 l 17 903 l 24 976 q 68 981 46 978 q 134 988 90 983 q 205 996 178 993 q 252 1001 232 999 q 290 1006 272 1004 q 326 1011 307 1008 l 343 967 q 304 903 317 947 q 292 601 292 858 z "},"º":{"ha":517,"x_min":25,"x_max":492,"o":"m 492 682 q 492 626 492 682 q 428 507 492 571 q 255 443 365 443 q 85 502 144 443 q 25 671 25 561 q 89 844 25 781 q 265 907 153 907 q 435 850 378 907 q 492 682 492 793 m 219 685 q 219 649 219 685 q 227 581 219 613 q 258 550 235 550 q 288 566 281 550 q 294 654 294 582 q 287 757 294 726 q 256 788 279 788 q 226 772 233 788 q 219 685 219 757 z "},"»":{"ha":661,"x_min":49,"x_max":647,"o":"m 431 58 l 344 107 l 335 139 q 431 322 360 181 q 335 504 372 439 l 344 536 l 431 586 q 647 340 529 468 l 647 303 q 431 58 526 174 m 144 58 l 58 107 l 49 139 q 144 322 74 181 q 49 504 86 439 l 58 536 l 144 586 q 361 340 243 468 l 361 303 q 144 58 240 174 z "},"¼":{"ha":1174,"x_min":17,"x_max":1144,"o":"m 292 500 q 328 440 292 440 l 368 442 l 372 436 l 358 347 q 207 353 258 353 l 21 343 l 29 424 q 114 485 114 432 l 114 740 q 106 783 114 772 q 69 793 97 793 l 25 792 l 17 801 l 24 875 q 68 879 46 876 q 134 887 90 882 q 205 894 178 892 q 252 900 232 897 q 290 905 272 903 q 326 910 307 907 l 343 865 q 304 801 317 846 q 292 500 292 756 m 933 899 l 947 865 q 572 288 699 481 l 310 -126 l 181 -78 l 172 -54 q 442 351 326 168 l 813 943 l 933 899 m 1071 235 l 1133 235 l 1144 221 l 1133 108 l 1072 110 l 1078 11 l 1065 0 l 897 -11 l 888 0 q 893 115 892 56 l 678 118 l 679 218 l 914 554 l 924 557 l 1071 544 l 1071 235 m 894 235 l 894 347 l 883 347 l 813 235 l 894 235 z "},"½":{"ha":1218,"x_min":17,"x_max":1199,"o":"m 292 500 q 328 440 292 440 l 368 442 l 372 436 l 358 347 q 207 353 258 353 l 21 343 l 29 424 q 114 485 114 432 l 114 740 q 106 783 114 772 q 69 793 97 793 l 25 792 l 17 801 l 24 875 q 68 879 46 876 q 134 887 90 882 q 205 894 178 892 q 252 900 232 897 q 290 905 272 903 q 326 910 307 907 l 343 865 q 304 801 317 846 q 292 500 292 756 m 933 899 l 947 865 q 572 288 699 481 l 310 -126 l 181 -78 l 172 -54 q 442 351 326 168 l 813 943 l 933 899 m 851 231 q 931 354 931 315 q 881 393 931 393 q 775 332 832 393 l 757 332 l 732 451 q 830 528 774 500 q 956 557 886 557 q 1078 518 1026 557 q 1131 415 1131 479 q 1093 290 1131 351 q 960 136 1056 229 l 964 128 l 1007 128 q 1059 147 1043 128 q 1078 213 1075 165 l 1199 221 q 1174 7 1178 92 l 1156 -11 q 826 0 928 0 l 731 -6 l 721 96 l 851 231 z "},"¾":{"ha":1168,"x_min":18,"x_max":1139,"o":"m 131 479 q 221 528 221 479 q 119 567 221 567 l 107 582 l 96 674 l 158 685 q 210 749 210 704 q 171 779 210 779 q 74 742 132 779 l 58 742 l 25 844 q 127 892 69 875 q 244 910 185 910 q 350 878 304 910 q 396 800 396 847 q 367 720 396 753 q 289 674 338 688 l 289 663 q 394 604 361 638 q 426 522 426 571 q 333 397 426 451 q 118 342 239 342 q 47 371 68 342 q 18 474 25 400 l 42 497 q 131 479 82 479 m 928 899 l 942 865 q 567 288 693 481 l 304 -126 l 175 -78 l 167 -54 q 436 351 321 168 l 807 943 l 928 899 m 1065 235 l 1128 235 l 1139 221 l 1128 108 l 1067 110 l 1072 11 l 1060 0 l 892 -11 l 882 0 q 888 115 886 56 l 672 118 l 674 218 l 908 554 l 918 557 l 1065 544 l 1065 235 m 889 235 l 889 347 l 878 347 l 807 235 l 889 235 z "},"¿":{"ha":529,"x_min":-17,"x_max":475,"o":"m 294 56 q 229 -26 229 19 q 288 -101 229 -72 q 456 -133 347 -129 l 475 -158 l 418 -322 l 394 -335 q 101 -258 218 -331 q -17 -82 -17 -186 q 27 42 -17 -10 q 210 186 71 94 l 214 194 l 203 290 l 215 310 l 379 338 l 400 326 l 433 142 l 429 121 l 294 56 m 165 530 q 165 562 165 530 q 203 633 165 594 q 305 672 240 672 q 403 638 369 672 q 436 539 436 604 q 398 435 436 474 q 297 396 360 396 q 199 431 233 396 q 165 530 165 465 z "},"À":{"ha":939,"x_min":-7,"x_max":946,"o":"m 549 247 q 447 250 474 250 q 331 243 421 250 q 313 149 313 164 q 320 128 313 133 q 356 124 328 124 l 392 124 l 403 110 l 392 -6 q 178 -1 263 -1 l -7 -3 l 3 118 q 74 194 53 131 l 294 892 l 660 914 l 681 897 q 854 213 814 363 q 885 144 867 165 q 936 119 904 122 l 946 106 l 935 -4 q 739 -1 815 -1 l 474 -8 l 463 4 l 471 121 q 547 135 535 128 q 560 158 560 142 q 549 247 560 175 m 446 418 q 518 421 468 418 l 471 664 l 440 664 l 375 418 l 446 418 m 271 1036 l 261 1058 l 311 1208 l 333 1215 q 679 1076 508 1140 l 650 978 l 624 960 q 271 1036 494 993 z "},"Á":{"ha":939,"x_min":-7,"x_max":946,"o":"m 549 247 q 447 250 474 250 q 331 243 421 250 q 313 149 313 164 q 320 128 313 133 q 356 124 328 124 l 392 124 l 403 110 l 392 -6 q 178 -1 263 -1 l -7 -3 l 3 118 q 74 194 53 131 l 294 892 l 660 914 l 681 897 q 854 213 814 363 q 885 144 867 165 q 936 119 904 122 l 946 106 l 935 -4 q 739 -1 815 -1 l 474 -8 l 463 4 l 471 121 q 547 135 535 128 q 560 158 560 142 q 549 247 560 175 m 446 418 q 518 421 468 418 l 471 664 l 440 664 l 375 418 l 446 418 m 736 1058 l 726 1036 q 374 960 546 1003 l 347 978 l 318 1076 q 664 1215 461 1129 l 686 1208 l 736 1058 z "},"Â":{"ha":939,"x_min":-7,"x_max":946,"o":"m 549 247 q 447 250 474 250 q 331 243 421 250 q 313 149 313 164 q 320 128 313 133 q 356 124 328 124 l 392 124 l 403 110 l 392 -6 q 178 -1 263 -1 l -7 -3 l 3 118 q 74 194 53 131 l 294 892 l 660 914 l 681 897 q 854 213 814 363 q 885 144 867 165 q 936 119 904 122 l 946 106 l 935 -4 q 739 -1 815 -1 l 474 -8 l 463 4 l 471 121 q 547 135 535 128 q 560 158 560 142 q 549 247 560 175 m 446 418 q 518 421 468 418 l 471 664 l 440 664 l 375 418 l 446 418 m 496 1261 q 531 1238 496 1265 q 740 1069 668 1125 l 692 983 l 660 974 q 476 1044 594 1001 q 294 974 404 1018 l 263 983 l 213 1069 q 458 1261 328 1153 l 496 1261 z "},"Ã":{"ha":939,"x_min":-7,"x_max":946,"o":"m 549 247 q 447 250 474 250 q 331 243 421 250 q 313 149 313 164 q 320 128 313 133 q 356 124 328 124 l 392 124 l 403 110 l 392 -6 q 178 -1 263 -1 l -7 -3 l 3 118 q 74 194 53 131 l 294 892 l 660 914 l 681 897 q 854 213 814 363 q 885 144 867 165 q 936 119 904 122 l 946 106 l 935 -4 q 739 -1 815 -1 l 474 -8 l 463 4 l 471 121 q 547 135 535 128 q 560 158 560 142 q 549 247 560 175 m 446 418 q 518 421 468 418 l 471 664 l 440 664 l 375 418 l 446 418 m 338 1200 q 447 1176 363 1200 q 550 1153 532 1153 q 628 1214 581 1153 l 644 1233 l 667 1233 l 749 1158 l 749 1136 l 636 976 l 613 971 q 503 994 588 971 q 401 1018 418 1018 q 360 998 383 1018 q 306 938 336 978 l 283 938 l 201 1013 l 201 1035 l 314 1194 l 338 1200 z "},"Ä":{"ha":939,"x_min":-7,"x_max":946,"o":"m 549 247 q 447 250 474 250 q 331 243 421 250 q 313 149 313 164 q 320 128 313 133 q 356 124 328 124 l 392 124 l 403 110 l 392 -6 q 178 -1 263 -1 l -7 -3 l 3 118 q 74 194 53 131 l 294 892 l 660 914 l 681 897 q 854 213 814 363 q 885 144 867 165 q 936 119 904 122 l 946 106 l 935 -4 q 739 -1 815 -1 l 474 -8 l 463 4 l 471 121 q 547 135 535 128 q 560 158 560 142 q 549 247 560 175 m 446 418 q 518 421 468 418 l 471 664 l 440 664 l 375 418 l 446 418 m 604 951 q 493 1063 493 951 q 525 1151 493 1118 q 611 1183 557 1183 q 694 1154 665 1183 q 722 1071 722 1125 q 690 984 722 1017 q 604 951 658 951 m 336 951 q 226 1063 226 951 q 258 1151 226 1118 q 344 1183 290 1183 q 427 1154 399 1183 q 456 1071 456 1125 q 424 984 456 1017 q 336 951 392 951 z "},"Å":{"ha":939,"x_min":-7,"x_max":946,"o":"m 549 247 q 447 250 474 250 q 331 243 421 250 q 313 149 313 164 q 320 128 313 133 q 356 124 328 124 l 392 124 l 403 110 l 392 -6 q 178 -1 263 -1 l -7 -3 l 3 118 q 74 194 53 131 l 294 892 l 660 914 l 681 897 q 854 213 814 363 q 885 144 867 165 q 936 119 904 122 l 946 106 l 935 -4 q 739 -1 815 -1 l 474 -8 l 463 4 l 471 121 q 547 135 535 128 q 560 158 560 142 q 549 247 560 175 m 446 418 q 518 421 468 418 l 471 664 l 440 664 l 375 418 l 446 418 m 478 1044 q 526 1090 526 1044 q 475 1139 526 1139 q 424 1094 424 1139 q 440 1056 424 1068 q 478 1044 457 1044 m 622 1100 q 622 1069 622 1100 q 581 993 622 1039 q 470 947 539 947 q 365 986 401 947 q 328 1090 328 1025 q 369 1197 328 1156 q 482 1239 411 1239 q 588 1200 553 1239 q 622 1100 622 1161 z "},"Æ":{"ha":1303,"x_min":3,"x_max":1274,"o":"m 471 121 q 547 138 529 126 q 565 178 565 150 q 557 304 565 210 l 453 286 l 346 254 q 315 141 315 153 q 327 126 315 129 q 392 124 339 124 l 401 110 l 392 -6 q 118 -1 383 -1 l 7 -3 l 3 118 q 82 194 53 131 l 313 738 q 276 776 307 776 l 240 774 l 224 793 l 236 903 q 766 900 463 899 q 1176 915 1069 901 l 1194 893 q 1163 617 1169 747 l 971 604 q 974 656 974 638 q 948 717 974 703 q 866 732 922 732 q 800 725 810 732 q 790 699 790 718 l 817 517 l 918 535 l 1058 571 l 1082 547 l 1065 386 l 932 369 l 842 353 l 857 251 q 933 158 871 158 q 1040 185 1014 158 q 1079 307 1067 213 l 1257 319 l 1274 299 q 1235 13 1249 164 l 1214 -10 q 768 0 983 0 l 710 0 l 472 -8 l 463 4 l 471 121 m 414 450 l 474 456 l 543 468 l 524 664 l 493 664 l 414 450 z "},"Ç":{"ha":838,"x_min":21,"x_max":811,"o":"m 21 432 q 147 790 21 665 q 508 915 274 915 q 800 879 614 915 l 811 851 q 772 554 782 724 l 558 542 q 561 627 561 578 q 540 700 561 676 q 465 724 518 724 q 365 672 393 724 q 338 473 338 619 q 370 253 338 326 q 472 181 403 181 q 550 217 525 181 q 582 342 575 253 l 794 356 q 778 60 778 193 l 760 38 q 476 -14 633 -7 l 468 -53 q 572 -119 526 -81 q 618 -206 618 -157 q 558 -296 618 -256 q 413 -336 499 -336 q 329 -316 368 -336 q 290 -265 290 -296 q 358 -167 290 -235 l 371 -167 q 390 -224 372 -204 q 446 -244 408 -244 q 483 -212 483 -244 q 363 -121 483 -179 l 389 -14 q 117 115 214 -1 q 21 432 21 232 z "},"È":{"ha":838,"x_min":18,"x_max":817,"o":"m 403 538 l 517 536 l 669 544 l 686 525 l 667 365 q 517 369 564 369 q 396 361 471 369 q 394 251 394 314 q 406 174 394 189 q 461 160 418 160 q 581 187 551 160 q 622 307 610 214 l 800 319 l 817 299 q 778 13 792 164 l 757 -10 q 386 0 526 0 q 18 -14 185 0 l 31 114 q 102 148 83 122 q 121 236 121 174 l 122 701 q 115 761 122 746 q 85 776 107 776 l 49 774 l 32 793 l 44 903 q 453 899 242 899 q 797 915 664 899 l 815 893 q 783 617 790 747 l 592 604 q 594 656 594 638 q 569 717 594 703 q 486 732 543 732 q 420 725 429 732 q 411 694 411 718 l 403 538 m 208 1036 l 199 1058 l 249 1208 l 271 1215 q 617 1076 446 1140 l 588 978 l 561 960 q 208 1036 432 993 z "},"É":{"ha":838,"x_min":18,"x_max":817,"o":"m 403 538 l 517 536 l 669 544 l 686 525 l 667 365 q 517 369 564 369 q 396 361 471 369 q 394 251 394 314 q 406 174 394 189 q 461 160 418 160 q 581 187 551 160 q 622 307 610 214 l 800 319 l 817 299 q 778 13 792 164 l 757 -10 q 386 0 526 0 q 18 -14 185 0 l 31 114 q 102 148 83 122 q 121 236 121 174 l 122 701 q 115 761 122 746 q 85 776 107 776 l 49 774 l 32 793 l 44 903 q 453 899 242 899 q 797 915 664 899 l 815 893 q 783 617 790 747 l 592 604 q 594 656 594 638 q 569 717 594 703 q 486 732 543 732 q 420 725 429 732 q 411 694 411 718 l 403 538 m 715 1058 l 706 1036 q 353 960 525 1003 l 326 978 l 297 1076 q 643 1215 440 1129 l 665 1208 l 715 1058 z "},"Ê":{"ha":838,"x_min":18,"x_max":817,"o":"m 403 538 l 517 536 l 669 544 l 686 525 l 667 365 q 517 369 564 369 q 396 361 471 369 q 394 251 394 314 q 406 174 394 189 q 461 160 418 160 q 581 187 551 160 q 622 307 610 214 l 800 319 l 817 299 q 778 13 792 164 l 757 -10 q 386 0 526 0 q 18 -14 185 0 l 31 114 q 102 148 83 122 q 121 236 121 174 l 122 701 q 115 761 122 746 q 85 776 107 776 l 49 774 l 32 793 l 44 903 q 453 899 242 899 q 797 915 664 899 l 815 893 q 783 617 790 747 l 592 604 q 594 656 594 638 q 569 717 594 703 q 486 732 543 732 q 420 725 429 732 q 411 694 411 718 l 403 538 m 475 1261 q 508 1238 475 1265 q 719 1069 647 1125 l 671 983 l 639 974 q 456 1044 574 1001 q 274 974 383 1018 l 242 983 l 192 1069 q 438 1261 307 1153 l 475 1261 z "},"Ë":{"ha":838,"x_min":18,"x_max":817,"o":"m 403 538 l 517 536 l 669 544 l 686 525 l 667 365 q 517 369 564 369 q 396 361 471 369 q 394 251 394 314 q 406 174 394 189 q 461 160 418 160 q 581 187 551 160 q 622 307 610 214 l 800 319 l 817 299 q 778 13 792 164 l 757 -10 q 386 0 526 0 q 18 -14 185 0 l 31 114 q 102 148 83 122 q 121 236 121 174 l 122 701 q 115 761 122 746 q 85 776 107 776 l 49 774 l 32 793 l 44 903 q 453 899 242 899 q 797 915 664 899 l 815 893 q 783 617 790 747 l 592 604 q 594 656 594 638 q 569 717 594 703 q 486 732 543 732 q 420 725 429 732 q 411 694 411 718 l 403 538 m 583 951 q 472 1063 472 951 q 504 1151 472 1118 q 590 1183 536 1183 q 673 1154 644 1183 q 701 1071 701 1125 q 669 984 701 1017 q 583 951 638 951 m 315 951 q 206 1063 206 951 q 238 1151 206 1118 q 324 1183 269 1183 q 406 1154 378 1183 q 435 1071 435 1125 q 403 984 435 1017 q 315 951 371 951 z "},"Ì":{"ha":514,"x_min":6,"x_max":499,"o":"m 396 217 q 405 140 396 158 q 440 121 414 121 l 485 125 l 496 111 l 483 -6 q 251 0 310 0 l 21 -7 l 32 111 q 105 146 88 124 q 122 225 122 168 l 122 706 q 113 763 122 749 q 74 776 103 776 l 38 775 l 25 794 l 36 899 l 260 899 l 499 906 l 489 781 q 427 760 442 774 q 410 708 413 747 q 396 217 396 490 m 15 1036 l 6 1058 l 56 1208 l 78 1215 q 424 1076 253 1140 l 394 978 l 368 960 q 15 1036 239 993 z "},"Í":{"ha":514,"x_min":21,"x_max":522,"o":"m 396 217 q 405 140 396 158 q 440 121 414 121 l 485 125 l 496 111 l 483 -6 q 251 0 310 0 l 21 -7 l 32 111 q 105 146 88 124 q 122 225 122 168 l 122 706 q 113 763 122 749 q 74 776 103 776 l 38 775 l 25 794 l 36 899 l 260 899 l 499 906 l 489 781 q 427 760 442 774 q 410 708 413 747 q 396 217 396 490 m 522 1058 l 513 1036 q 160 960 332 1003 l 133 978 l 104 1076 q 450 1215 247 1129 l 472 1208 l 522 1058 z "},"Î":{"ha":514,"x_min":-1,"x_max":526,"o":"m 396 217 q 405 140 396 158 q 440 121 414 121 l 485 125 l 496 111 l 483 -6 q 251 0 310 0 l 21 -7 l 32 111 q 105 146 88 124 q 122 225 122 168 l 122 706 q 113 763 122 749 q 74 776 103 776 l 38 775 l 25 794 l 36 899 l 260 899 l 499 906 l 489 781 q 427 760 442 774 q 410 708 413 747 q 396 217 396 490 m 282 1261 q 317 1238 282 1265 q 526 1069 454 1125 l 478 983 l 446 974 q 263 1044 381 1001 q 81 974 190 1018 l 49 983 l -1 1069 q 244 1261 114 1153 l 282 1261 z "},"Ï":{"ha":514,"x_min":13,"x_max":508,"o":"m 396 217 q 405 140 396 158 q 440 121 414 121 l 485 125 l 496 111 l 483 -6 q 251 0 310 0 l 21 -7 l 32 111 q 105 146 88 124 q 122 225 122 168 l 122 706 q 113 763 122 749 q 74 776 103 776 l 38 775 l 25 794 l 36 899 l 260 899 l 499 906 l 489 781 q 427 760 442 774 q 410 708 413 747 q 396 217 396 490 m 390 951 q 279 1063 279 951 q 311 1151 279 1118 q 397 1183 343 1183 q 480 1154 451 1183 q 508 1071 508 1125 q 476 984 508 1017 q 390 951 444 951 m 122 951 q 13 1063 13 951 q 44 1151 13 1118 q 131 1183 76 1183 q 213 1154 185 1183 q 242 1071 242 1125 q 210 984 242 1017 q 122 951 178 951 z "},"Ð":{"ha":978,"x_min":10,"x_max":958,"o":"m 157 233 l 157 369 l 24 369 l 10 381 l 28 504 l 157 504 l 157 699 q 149 758 157 742 q 122 774 142 774 l 78 771 l 64 790 l 76 903 q 288 899 231 899 l 518 907 q 958 489 958 907 q 828 119 958 256 q 475 -17 699 -17 q 254 0 342 0 l 56 -11 l 67 118 q 138 151 119 126 q 157 233 157 175 m 425 371 l 425 225 q 435 171 425 185 q 475 157 446 157 q 603 221 565 157 q 640 445 640 285 q 603 668 640 606 q 468 731 567 731 q 439 693 440 731 l 429 506 l 533 510 l 544 496 l 535 371 l 425 371 z "},"Ñ":{"ha":1026,"x_min":18,"x_max":1026,"o":"m 646 776 l 603 776 l 596 792 l 603 904 q 891 899 756 899 q 1026 903 1026 899 l 1019 778 q 958 753 975 772 q 939 690 940 733 l 921 0 l 660 -17 q 375 438 515 224 l 354 438 l 358 190 q 371 135 360 150 q 413 119 382 119 l 460 125 l 472 113 l 457 -6 q 251 0 303 0 q 29 -11 157 0 l 43 114 q 122 201 121 124 l 139 686 q 119 750 139 733 q 35 774 100 767 l 18 793 l 26 906 q 232 899 131 899 l 410 904 q 676 463 521 704 l 697 463 l 692 717 q 681 764 690 751 q 646 776 671 776 m 397 1200 q 507 1176 422 1200 q 608 1153 592 1153 q 689 1214 640 1153 l 704 1233 l 726 1233 l 808 1158 l 808 1136 l 696 976 l 672 971 q 563 994 647 971 q 460 1018 478 1018 q 419 998 443 1018 q 365 938 396 978 l 343 938 l 261 1013 l 261 1035 l 374 1194 l 397 1200 z "},"Ò":{"ha":910,"x_min":21,"x_max":889,"o":"m 339 467 q 339 389 339 467 q 366 235 339 311 q 457 158 393 158 q 546 210 521 158 q 571 419 571 263 q 543 650 571 575 q 451 725 515 725 q 363 674 388 725 q 339 467 339 624 m 889 472 q 771 110 889 238 q 443 -17 653 -17 q 127 99 233 -17 q 21 441 21 215 q 138 791 21 667 q 475 915 254 915 q 889 472 889 915 m 206 1036 l 196 1058 l 246 1208 l 268 1215 q 614 1076 443 1140 l 585 978 l 558 960 q 206 1036 429 993 z "},"Ó":{"ha":910,"x_min":21,"x_max":889,"o":"m 339 467 q 339 389 339 467 q 366 235 339 311 q 457 158 393 158 q 546 210 521 158 q 571 419 571 263 q 543 650 571 575 q 451 725 515 725 q 363 674 388 725 q 339 467 339 624 m 889 472 q 771 110 889 238 q 443 -17 653 -17 q 127 99 233 -17 q 21 441 21 215 q 138 791 21 667 q 475 915 254 915 q 889 472 889 915 m 713 1058 l 703 1036 q 350 960 522 1003 l 324 978 l 294 1076 q 640 1215 438 1129 l 663 1208 l 713 1058 z "},"Ô":{"ha":910,"x_min":21,"x_max":889,"o":"m 339 467 q 339 389 339 467 q 366 235 339 311 q 457 158 393 158 q 546 210 521 158 q 571 419 571 263 q 543 650 571 575 q 451 725 515 725 q 363 674 388 725 q 339 467 339 624 m 889 472 q 771 110 889 238 q 443 -17 653 -17 q 127 99 233 -17 q 21 441 21 215 q 138 791 21 667 q 475 915 254 915 q 889 472 889 915 m 472 1261 q 506 1238 472 1265 q 717 1069 644 1125 l 668 983 l 636 974 q 453 1044 571 1001 q 271 974 381 1018 l 239 983 l 189 1069 q 435 1261 304 1153 l 472 1261 z "},"Õ":{"ha":910,"x_min":21,"x_max":889,"o":"m 339 467 q 339 389 339 467 q 366 235 339 311 q 457 158 393 158 q 546 210 521 158 q 571 419 571 263 q 543 650 571 575 q 451 725 515 725 q 363 674 388 725 q 339 467 339 624 m 889 472 q 771 110 889 238 q 443 -17 653 -17 q 127 99 233 -17 q 21 441 21 215 q 138 791 21 667 q 475 915 254 915 q 889 472 889 915 m 314 1200 q 424 1176 339 1200 q 525 1153 508 1153 q 606 1214 557 1153 l 621 1233 l 643 1233 l 725 1158 l 725 1136 l 613 976 l 589 971 q 479 994 564 971 q 377 1018 394 1018 q 336 998 360 1018 q 282 938 313 978 l 260 938 l 178 1013 l 178 1035 l 290 1194 l 314 1200 z "},"Ö":{"ha":910,"x_min":21,"x_max":889,"o":"m 339 467 q 339 389 339 467 q 366 235 339 311 q 457 158 393 158 q 546 210 521 158 q 571 419 571 263 q 543 650 571 575 q 451 725 515 725 q 363 674 388 725 q 339 467 339 624 m 889 472 q 771 110 889 238 q 443 -17 653 -17 q 127 99 233 -17 q 21 441 21 215 q 138 791 21 667 q 475 915 254 915 q 889 472 889 915 m 581 951 q 469 1063 469 951 q 501 1151 469 1118 q 588 1183 533 1183 q 670 1154 642 1183 q 699 1071 699 1125 q 667 984 699 1017 q 581 951 635 951 m 313 951 q 203 1063 203 951 q 235 1151 203 1118 q 321 1183 267 1183 q 403 1154 375 1183 q 432 1071 432 1125 q 400 984 432 1017 q 313 951 368 951 z "},"×":{"ha":703,"x_min":49,"x_max":650,"o":"m 506 632 l 526 624 l 643 482 l 490 328 l 650 179 l 642 157 l 496 36 l 346 183 l 200 36 l 178 40 l 68 185 q 207 322 136 253 l 49 479 l 53 501 l 203 617 q 350 467 278 540 l 506 632 z "},"Ø":{"ha":910,"x_min":21,"x_max":901,"o":"m 132 93 q 21 438 21 208 q 138 791 21 667 q 475 915 254 915 q 658 886 579 915 l 764 1044 l 899 969 l 901 951 l 794 793 q 889 460 889 682 q 771 110 889 238 q 435 -17 653 -17 q 271 7 344 -17 l 160 -162 l 28 -86 l 22 -72 l 132 93 m 339 467 q 339 389 339 467 q 366 235 339 311 q 457 158 393 158 q 546 210 521 158 q 571 419 571 263 q 543 650 571 575 q 451 725 515 725 q 363 674 388 725 q 339 467 339 624 z "},"Ù":{"ha":871,"x_min":0,"x_max":872,"o":"m 357 306 q 385 199 357 238 q 465 160 413 160 q 540 189 517 160 q 564 282 564 218 l 563 701 q 555 760 563 744 q 526 776 547 776 l 494 774 l 490 779 l 506 903 q 672 899 621 899 l 872 903 l 861 778 q 806 753 818 764 q 794 717 794 742 l 794 325 q 701 69 794 156 q 426 -17 607 -17 q 164 53 246 -17 q 82 276 82 124 l 82 701 q 74 762 82 747 q 43 776 67 776 l 3 774 l 0 779 l 14 903 q 260 899 150 899 l 446 904 l 432 775 q 381 756 396 772 q 365 707 367 740 l 357 306 m 217 1036 l 207 1058 l 257 1208 l 279 1215 q 625 1076 454 1140 l 596 978 l 569 960 q 217 1036 440 993 z "},"Ú":{"ha":871,"x_min":0,"x_max":872,"o":"m 357 306 q 385 199 357 238 q 465 160 413 160 q 540 189 517 160 q 564 282 564 218 l 563 701 q 555 760 563 744 q 526 776 547 776 l 494 774 l 490 779 l 506 903 q 672 899 621 899 l 872 903 l 861 778 q 806 753 818 764 q 794 717 794 742 l 794 325 q 701 69 794 156 q 426 -17 607 -17 q 164 53 246 -17 q 82 276 82 124 l 82 701 q 74 762 82 747 q 43 776 67 776 l 3 774 l 0 779 l 14 903 q 260 899 150 899 l 446 904 l 432 775 q 381 756 396 772 q 365 707 367 740 l 357 306 m 724 1058 l 714 1036 q 361 960 533 1003 l 335 978 l 306 1076 q 651 1215 449 1129 l 674 1208 l 724 1058 z "},"Û":{"ha":871,"x_min":0,"x_max":872,"o":"m 357 306 q 385 199 357 238 q 465 160 413 160 q 540 189 517 160 q 564 282 564 218 l 563 701 q 555 760 563 744 q 526 776 547 776 l 494 774 l 490 779 l 506 903 q 672 899 621 899 l 872 903 l 861 778 q 806 753 818 764 q 794 717 794 742 l 794 325 q 701 69 794 156 q 426 -17 607 -17 q 164 53 246 -17 q 82 276 82 124 l 82 701 q 74 762 82 747 q 43 776 67 776 l 3 774 l 0 779 l 14 903 q 260 899 150 899 l 446 904 l 432 775 q 381 756 396 772 q 365 707 367 740 l 357 306 m 483 1261 q 517 1238 483 1265 q 728 1069 656 1125 l 679 983 l 647 974 q 464 1044 582 1001 q 282 974 392 1018 l 250 983 l 200 1069 q 446 1261 315 1153 l 483 1261 z "},"Ü":{"ha":871,"x_min":0,"x_max":872,"o":"m 357 306 q 385 199 357 238 q 465 160 413 160 q 540 189 517 160 q 564 282 564 218 l 563 701 q 555 760 563 744 q 526 776 547 776 l 494 774 l 490 779 l 506 903 q 672 899 621 899 l 872 903 l 861 778 q 806 753 818 764 q 794 717 794 742 l 794 325 q 701 69 794 156 q 426 -17 607 -17 q 164 53 246 -17 q 82 276 82 124 l 82 701 q 74 762 82 747 q 43 776 67 776 l 3 774 l 0 779 l 14 903 q 260 899 150 899 l 446 904 l 432 775 q 381 756 396 772 q 365 707 367 740 l 357 306 m 592 951 q 481 1063 481 951 q 513 1151 481 1118 q 599 1183 544 1183 q 681 1154 653 1183 q 710 1071 710 1125 q 678 984 710 1017 q 592 951 646 951 m 324 951 q 214 1063 214 951 q 246 1151 214 1118 q 332 1183 278 1183 q 415 1154 386 1183 q 443 1071 443 1125 q 411 984 443 1017 q 324 951 379 951 z "},"Ý":{"ha":921,"x_min":0,"x_max":921,"o":"m 413 743 q 490 538 413 732 l 510 538 l 567 696 q 585 758 585 736 q 532 779 585 779 l 528 788 l 539 897 l 758 897 l 915 903 l 921 892 l 910 771 q 756 596 817 718 l 629 343 q 608 230 608 294 q 624 146 608 165 q 678 126 639 126 l 749 131 l 756 122 l 743 -8 q 456 0 536 0 l 176 -12 l 188 115 q 303 142 276 121 q 331 225 331 164 l 331 247 q 292 372 331 300 l 143 649 q 6 765 101 725 l 0 774 l 14 900 q 222 897 176 897 l 472 907 l 482 892 l 469 778 q 413 743 413 778 m 768 1058 l 758 1036 q 406 960 578 1003 l 379 978 l 350 1076 q 696 1215 493 1129 l 718 1208 l 768 1058 z "},"Þ":{"ha":840,"x_min":21,"x_max":840,"o":"m 489 781 q 425 762 438 769 q 411 742 413 754 q 408 725 410 731 l 504 725 q 758 660 676 725 q 840 468 840 596 q 744 267 840 340 q 494 193 649 193 l 396 193 l 396 161 q 404 128 396 136 q 440 121 413 121 l 499 125 l 510 111 l 497 -6 q 251 0 314 0 l 21 -7 l 32 111 q 105 144 88 122 q 122 225 122 167 l 122 706 q 113 763 122 749 q 74 776 103 776 l 38 775 l 25 794 l 36 899 l 260 899 l 499 906 l 489 781 m 400 535 l 397 356 q 486 342 460 342 q 554 460 554 360 q 524 540 554 515 q 428 565 493 565 q 400 535 400 565 z "},"ß":{"ha":1317,"x_min":18,"x_max":1294,"o":"m 267 -12 q 147 -1 206 -12 q 33 35 89 11 l 18 56 q 44 232 40 167 l 201 243 q 226 171 201 196 q 306 146 251 146 q 361 178 361 146 q 328 221 361 203 q 254 253 293 238 q 75 349 126 299 q 24 476 24 399 q 124 649 24 585 q 390 713 224 713 q 615 682 504 713 l 631 656 q 599 467 608 564 l 454 457 l 439 467 l 439 478 q 418 530 439 511 q 365 549 397 549 q 315 538 333 549 q 297 515 297 528 q 301 494 297 501 q 313 479 304 486 q 330 467 322 472 q 353 455 338 461 q 380 444 369 449 q 411 433 390 440 q 458 417 432 426 q 512 392 483 407 q 572 353 540 378 q 636 215 636 306 q 538 48 636 108 q 267 -12 440 -12 m 925 -12 q 806 -1 864 -12 q 692 35 747 11 l 676 56 q 703 232 699 167 l 860 243 q 885 171 860 196 q 965 146 910 146 q 1019 178 1019 146 q 986 221 1019 203 q 913 253 951 238 q 733 349 785 299 q 682 476 682 399 q 782 649 682 585 q 1049 713 882 713 q 1274 682 1163 713 l 1289 656 q 1257 467 1267 564 l 1113 457 l 1097 467 l 1097 478 q 1076 530 1097 511 q 1024 549 1056 549 q 974 538 992 549 q 956 515 956 528 q 959 494 956 501 q 972 479 963 486 q 988 467 981 472 q 1012 455 996 461 q 1038 444 1028 449 q 1069 433 1049 440 q 1116 417 1090 426 q 1170 392 1142 407 q 1231 353 1199 378 q 1294 215 1294 306 q 1197 48 1294 108 q 925 -12 1099 -12 z "},"à":{"ha":814,"x_min":6,"x_max":808,"o":"m 472 140 l 468 182 q 383 183 436 183 l 296 179 q 286 124 286 138 q 290 108 286 111 q 317 106 294 106 l 342 106 l 353 93 l 343 -4 q 163 -1 232 -1 l 6 -1 l 14 100 q 68 154 53 111 l 246 694 l 581 713 l 599 697 q 733 186 711 267 q 800 101 756 106 l 808 89 l 799 -3 q 632 -1 697 -1 l 404 -6 l 394 4 l 401 104 q 469 119 464 111 q 472 140 472 125 m 190 836 l 181 858 l 231 1008 l 253 1015 q 599 876 428 940 l 569 778 l 543 760 q 190 836 414 793 m 388 331 q 442 332 421 331 l 408 504 l 382 504 l 335 331 l 388 331 z "},"á":{"ha":814,"x_min":6,"x_max":808,"o":"m 472 140 l 468 182 q 383 183 436 183 l 296 179 q 286 124 286 138 q 290 108 286 111 q 317 106 294 106 l 342 106 l 353 93 l 343 -4 q 163 -1 232 -1 l 6 -1 l 14 100 q 68 154 53 111 l 246 694 l 581 713 l 599 697 q 733 186 711 267 q 800 101 756 106 l 808 89 l 799 -3 q 632 -1 697 -1 l 404 -6 l 394 4 l 401 104 q 469 119 464 111 q 472 140 472 125 m 658 858 l 649 836 q 296 760 468 803 l 269 778 l 240 876 q 586 1015 383 929 l 608 1008 l 658 858 m 388 331 q 442 332 421 331 l 408 504 l 382 504 l 335 331 l 388 331 z "},"â":{"ha":814,"x_min":6,"x_max":808,"o":"m 472 140 l 468 182 q 383 183 436 183 l 296 179 q 286 124 286 138 q 290 108 286 111 q 317 106 294 106 l 342 106 l 353 93 l 343 -4 q 163 -1 232 -1 l 6 -1 l 14 100 q 68 154 53 111 l 246 694 l 581 713 l 599 697 q 733 186 711 267 q 800 101 756 106 l 808 89 l 799 -3 q 632 -1 697 -1 l 404 -6 l 394 4 l 401 104 q 469 119 464 111 q 472 140 472 125 m 432 1061 q 467 1038 432 1065 q 676 869 604 925 l 628 783 l 596 774 q 413 844 531 801 q 231 774 340 818 l 199 783 l 149 869 q 394 1061 264 953 l 432 1061 m 388 331 q 442 332 421 331 l 408 504 l 382 504 l 335 331 l 388 331 z "},"ã":{"ha":814,"x_min":6,"x_max":808,"o":"m 472 140 l 468 182 q 383 183 436 183 l 296 179 q 286 124 286 138 q 290 108 286 111 q 317 106 294 106 l 342 106 l 353 93 l 343 -4 q 163 -1 232 -1 l 6 -1 l 14 100 q 68 154 53 111 l 246 694 l 581 713 l 599 697 q 733 186 711 267 q 800 101 756 106 l 808 89 l 799 -3 q 632 -1 697 -1 l 404 -6 l 394 4 l 401 104 q 469 119 464 111 q 472 140 472 125 m 272 1000 q 382 976 297 1000 q 483 953 467 953 q 564 1014 515 953 l 579 1033 l 601 1033 l 683 958 l 683 936 l 571 776 l 547 771 q 438 794 522 771 q 335 818 353 818 q 294 798 318 818 q 240 738 271 778 l 218 738 l 136 813 l 136 835 l 249 994 l 272 1000 m 388 331 q 442 332 421 331 l 408 504 l 382 504 l 335 331 l 388 331 z "},"ä":{"ha":814,"x_min":6,"x_max":808,"o":"m 472 140 l 468 182 q 383 183 436 183 l 296 179 q 286 124 286 138 q 290 108 286 111 q 317 106 294 106 l 342 106 l 353 93 l 343 -4 q 163 -1 232 -1 l 6 -1 l 14 100 q 68 154 53 111 l 246 694 l 581 713 l 599 697 q 733 186 711 267 q 800 101 756 106 l 808 89 l 799 -3 q 632 -1 697 -1 l 404 -6 l 394 4 l 401 104 q 469 119 464 111 q 472 140 472 125 m 540 751 q 429 863 429 751 q 461 951 429 918 q 547 983 493 983 q 630 954 601 983 q 658 871 658 925 q 626 784 658 817 q 540 751 594 751 m 272 751 q 163 863 163 751 q 194 951 163 918 q 281 983 226 983 q 363 954 335 983 q 392 871 392 925 q 360 784 392 817 q 272 751 328 751 m 388 331 q 442 332 421 331 l 408 504 l 382 504 l 335 331 l 388 331 z "},"å":{"ha":814,"x_min":6,"x_max":808,"o":"m 472 140 l 468 182 q 383 183 436 183 l 296 179 q 286 124 286 138 q 290 108 286 111 q 317 106 294 106 l 342 106 l 353 93 l 343 -4 q 163 -1 232 -1 l 6 -1 l 14 100 q 68 154 53 111 l 246 694 l 581 713 l 599 697 q 733 186 711 267 q 800 101 756 106 l 808 89 l 799 -3 q 632 -1 697 -1 l 404 -6 l 394 4 l 401 104 q 469 119 464 111 q 472 140 472 125 m 558 900 q 558 869 558 900 q 517 793 558 839 q 406 747 475 747 q 301 786 338 747 q 264 890 264 825 q 306 997 264 956 q 418 1039 347 1039 q 524 1000 489 1039 q 558 900 558 961 m 388 331 q 442 332 421 331 l 408 504 l 382 504 l 335 331 l 388 331 m 414 844 q 463 890 463 844 q 411 939 463 939 q 360 894 360 939 q 376 856 360 868 q 414 844 393 844 z "},"æ":{"ha":1121,"x_min":14,"x_max":1088,"o":"m 257 564 q 228 596 254 596 l 199 594 l 183 611 l 194 703 q 1008 713 826 694 l 1025 694 q 999 472 1004 575 l 825 463 q 828 511 828 488 q 807 546 828 535 q 745 557 786 557 q 697 552 704 557 q 690 532 690 547 l 710 410 l 788 425 l 906 456 l 926 435 l 913 297 l 801 282 l 733 268 l 743 208 q 801 136 754 136 q 881 158 861 136 q 911 249 901 179 l 1072 260 l 1088 242 q 1054 11 1067 133 l 1036 -7 q 658 0 844 0 l 608 0 l 407 -6 l 399 4 l 407 104 q 466 117 451 108 q 481 149 481 126 l 481 176 l 476 225 l 393 210 l 307 183 l 292 118 q 298 107 292 108 q 325 106 304 106 l 354 106 l 356 93 l 347 -4 q 111 -1 342 -1 l 17 -1 l 14 103 q 79 154 58 113 l 257 564 m 367 353 l 410 357 l 464 367 l 450 504 l 424 504 l 367 353 z "},"ç":{"ha":711,"x_min":24,"x_max":686,"o":"m 668 288 q 657 47 657 165 l 640 29 q 411 -10 538 -3 l 401 -53 q 506 -119 460 -81 q 551 -206 551 -157 q 492 -296 551 -256 q 346 -336 432 -336 q 263 -316 301 -336 q 224 -265 224 -296 q 292 -167 224 -235 l 304 -167 q 324 -224 306 -204 q 379 -244 342 -244 q 417 -212 417 -244 q 296 -121 417 -179 l 324 -10 q 101 92 179 1 q 24 352 24 182 q 126 617 24 522 q 428 713 229 713 q 676 685 515 713 l 686 660 q 653 421 661 558 l 460 410 q 461 476 461 438 q 447 532 461 515 q 386 549 432 549 q 324 515 340 549 q 307 371 307 482 q 328 209 307 260 q 394 158 349 158 q 456 184 439 158 q 476 275 472 210 l 668 288 z "},"è":{"ha":717,"x_min":18,"x_max":697,"o":"m 349 203 q 357 149 349 161 q 415 138 365 138 q 488 158 464 138 q 521 249 511 179 l 681 260 l 696 242 q 664 11 675 133 l 644 -7 q 339 0 460 0 q 18 -11 163 0 l 29 97 q 86 124 71 103 q 101 193 101 144 l 103 538 q 97 584 103 572 q 74 596 92 596 l 44 594 l 29 611 l 40 703 q 389 700 213 700 q 681 713 565 700 l 697 694 q 671 472 676 575 l 497 463 q 500 511 500 488 q 479 546 500 535 q 417 557 458 557 q 368 551 375 557 q 361 531 361 546 l 356 424 l 446 424 l 571 429 l 586 411 l 569 276 q 459 279 486 279 q 349 274 432 279 l 349 203 m 154 836 l 144 858 l 194 1008 l 217 1015 q 563 876 392 940 l 533 778 l 507 760 q 154 836 378 793 z "},"é":{"ha":717,"x_min":18,"x_max":697,"o":"m 349 203 q 357 149 349 161 q 415 138 365 138 q 488 158 464 138 q 521 249 511 179 l 681 260 l 696 242 q 664 11 675 133 l 644 -7 q 339 0 460 0 q 18 -11 163 0 l 29 97 q 86 124 71 103 q 101 193 101 144 l 103 538 q 97 584 103 572 q 74 596 92 596 l 44 594 l 29 611 l 40 703 q 389 700 213 700 q 681 713 565 700 l 697 694 q 671 472 676 575 l 497 463 q 500 511 500 488 q 479 546 500 535 q 417 557 458 557 q 368 551 375 557 q 361 531 361 546 l 356 424 l 446 424 l 571 429 l 586 411 l 569 276 q 459 279 486 279 q 349 274 432 279 l 349 203 m 636 858 l 626 836 q 274 760 446 803 l 247 778 l 218 876 q 564 1015 361 929 l 586 1008 l 636 858 z "},"ê":{"ha":717,"x_min":18,"x_max":697,"o":"m 349 203 q 357 149 349 161 q 415 138 365 138 q 488 158 464 138 q 521 249 511 179 l 681 260 l 696 242 q 664 11 675 133 l 644 -7 q 339 0 460 0 q 18 -11 163 0 l 29 97 q 86 124 71 103 q 101 193 101 144 l 103 538 q 97 584 103 572 q 74 596 92 596 l 44 594 l 29 611 l 40 703 q 389 700 213 700 q 681 713 565 700 l 697 694 q 671 472 676 575 l 497 463 q 500 511 500 488 q 479 546 500 535 q 417 557 458 557 q 368 551 375 557 q 361 531 361 546 l 356 424 l 446 424 l 571 429 l 586 411 l 569 276 q 459 279 486 279 q 349 274 432 279 l 349 203 m 410 1061 q 444 1038 410 1065 q 654 869 582 925 l 606 783 l 574 774 q 390 844 508 801 q 208 774 318 818 l 176 783 l 126 869 q 372 1061 242 953 l 410 1061 z "},"ë":{"ha":717,"x_min":18,"x_max":697,"o":"m 349 203 q 357 149 349 161 q 415 138 365 138 q 488 158 464 138 q 521 249 511 179 l 681 260 l 696 242 q 664 11 675 133 l 644 -7 q 339 0 460 0 q 18 -11 163 0 l 29 97 q 86 124 71 103 q 101 193 101 144 l 103 538 q 97 584 103 572 q 74 596 92 596 l 44 594 l 29 611 l 40 703 q 389 700 213 700 q 681 713 565 700 l 697 694 q 671 472 676 575 l 497 463 q 500 511 500 488 q 479 546 500 535 q 417 557 458 557 q 368 551 375 557 q 361 531 361 546 l 356 424 l 446 424 l 571 429 l 586 411 l 569 276 q 459 279 486 279 q 349 274 432 279 l 349 203 m 518 751 q 407 863 407 751 q 439 951 407 918 q 525 983 471 983 q 608 954 579 983 q 636 871 636 925 q 604 784 636 817 q 518 751 572 751 m 250 751 q 140 863 140 751 q 172 951 140 918 q 258 983 204 983 q 341 954 313 983 q 369 871 369 925 q 338 784 369 817 q 250 751 306 751 z "},"ì":{"ha":447,"x_min":-17,"x_max":432,"o":"m 349 176 q 356 117 349 132 q 385 103 363 103 l 418 106 l 428 93 l 418 -4 q 219 0 268 0 l 21 -4 l 31 96 q 90 122 76 106 q 103 183 103 138 l 103 542 q 94 585 103 575 q 63 596 86 596 l 35 596 l 24 613 l 33 700 l 225 700 l 432 704 l 424 599 q 374 583 385 593 q 360 543 363 574 q 349 176 349 399 m -7 836 l -17 858 l 33 1008 l 56 1015 q 401 876 231 940 l 372 778 l 346 760 q -7 836 217 793 z "},"í":{"ha":447,"x_min":21,"x_max":474,"o":"m 349 176 q 356 117 349 132 q 385 103 363 103 l 418 106 l 428 93 l 418 -4 q 219 0 268 0 l 21 -4 l 31 96 q 90 122 76 106 q 103 183 103 138 l 103 542 q 94 585 103 575 q 63 596 86 596 l 35 596 l 24 613 l 33 700 l 225 700 l 432 704 l 424 599 q 374 583 385 593 q 360 543 363 574 q 349 176 349 399 m 474 858 l 464 836 q 111 760 283 803 l 85 778 l 56 876 q 401 1015 199 929 l 424 1008 l 474 858 z "},"î":{"ha":447,"x_min":-36,"x_max":492,"o":"m 349 176 q 356 117 349 132 q 385 103 363 103 l 418 106 l 428 93 l 418 -4 q 219 0 268 0 l 21 -4 l 31 96 q 90 122 76 106 q 103 183 103 138 l 103 542 q 94 585 103 575 q 63 596 86 596 l 35 596 l 24 613 l 33 700 l 225 700 l 432 704 l 424 599 q 374 583 385 593 q 360 543 363 574 q 349 176 349 399 m 247 1061 q 281 1038 247 1065 q 492 869 419 925 l 443 783 l 411 774 q 228 844 346 801 q 46 774 156 818 l 14 783 l -36 869 q 210 1061 79 953 l 247 1061 z "},"ï":{"ha":447,"x_min":-22,"x_max":474,"o":"m 349 176 q 356 117 349 132 q 385 103 363 103 l 418 106 l 428 93 l 418 -4 q 219 0 268 0 l 21 -4 l 31 96 q 90 122 76 106 q 103 183 103 138 l 103 542 q 94 585 103 575 q 63 596 86 596 l 35 596 l 24 613 l 33 700 l 225 700 l 432 704 l 424 599 q 374 583 385 593 q 360 543 363 574 q 349 176 349 399 m 356 751 q 244 863 244 751 q 276 951 244 918 q 363 983 308 983 q 445 954 417 983 q 474 871 474 925 q 442 784 474 817 q 356 751 410 751 m 88 751 q -22 863 -22 751 q 10 951 -22 918 q 96 983 42 983 q 178 954 150 983 q 207 871 207 925 q 175 784 207 817 q 88 751 143 751 z "},"ð":{"ha":831,"x_min":18,"x_max":808,"o":"m 135 183 l 135 281 l 29 281 l 18 289 l 33 396 l 135 396 l 135 536 q 128 582 135 569 q 107 594 122 594 l 71 592 l 58 608 l 69 703 q 251 700 203 700 l 444 707 q 808 382 808 707 q 701 92 808 197 q 407 -12 594 -12 q 221 0 296 0 l 53 -8 l 61 101 q 119 125 103 107 q 135 183 135 143 m 403 136 q 497 180 471 136 q 524 347 524 224 q 501 513 524 469 q 408 556 479 556 q 386 525 386 556 l 378 397 l 450 400 l 460 389 l 451 281 l 374 281 l 375 181 q 381 145 375 154 q 403 136 386 136 z "},"ñ":{"ha":875,"x_min":18,"x_max":869,"o":"m 538 597 l 503 597 l 496 610 l 501 704 q 753 700 636 700 q 869 703 869 700 l 864 597 q 814 577 828 592 q 799 529 800 563 l 783 6 l 543 -7 l 332 301 l 313 301 l 318 158 q 328 113 319 125 q 364 101 338 101 l 400 106 l 413 96 l 399 -4 q 214 0 264 0 l 28 -8 l 40 97 q 88 117 74 101 q 104 165 103 133 l 118 525 q 103 574 118 563 q 33 593 88 586 l 18 610 l 25 706 q 206 700 114 700 l 363 704 q 561 396 436 578 l 581 396 l 575 550 q 565 588 572 578 q 538 597 558 597 m 318 1000 q 428 976 343 1000 q 531 953 513 953 q 608 1014 561 953 l 625 1033 l 647 1033 l 729 958 l 729 936 l 617 776 l 593 771 q 483 794 568 771 q 381 818 399 818 q 340 798 364 818 q 286 738 317 778 l 264 738 l 182 813 l 182 835 l 294 994 l 318 1000 z "},"ò":{"ha":769,"x_min":24,"x_max":746,"o":"m 310 365 q 310 305 310 365 q 326 191 310 244 q 386 138 342 138 q 445 171 431 138 q 460 325 460 204 q 444 498 460 446 q 383 550 428 550 q 324 518 338 550 q 310 365 310 486 m 746 362 q 746 272 746 362 q 649 85 746 182 q 376 -12 553 -12 q 24 340 24 -12 q 400 713 24 713 q 660 627 575 713 q 746 362 746 542 m 147 836 l 138 858 l 188 1008 l 210 1015 q 556 876 385 940 l 526 778 l 500 760 q 147 836 371 793 z "},"ó":{"ha":769,"x_min":24,"x_max":746,"o":"m 310 365 q 310 305 310 365 q 326 191 310 244 q 386 138 342 138 q 445 171 431 138 q 460 325 460 204 q 444 498 460 446 q 383 550 428 550 q 324 518 338 550 q 310 365 310 486 m 746 362 q 746 272 746 362 q 649 85 746 182 q 376 -12 553 -12 q 24 340 24 -12 q 400 713 24 713 q 660 627 575 713 q 746 362 746 542 m 629 858 l 619 836 q 267 760 439 803 l 240 778 l 211 876 q 557 1015 354 929 l 579 1008 l 629 858 z "},"ô":{"ha":769,"x_min":24,"x_max":746,"o":"m 310 365 q 310 305 310 365 q 326 191 310 244 q 386 138 342 138 q 445 171 431 138 q 460 325 460 204 q 444 498 460 446 q 383 550 428 550 q 324 518 338 550 q 310 365 310 486 m 746 362 q 746 272 746 362 q 649 85 746 182 q 376 -12 553 -12 q 24 340 24 -12 q 400 713 24 713 q 660 627 575 713 q 746 362 746 542 m 401 1061 q 436 1038 401 1065 q 646 869 574 925 l 597 783 l 565 774 q 382 844 500 801 q 200 774 310 818 l 168 783 l 118 869 q 364 1061 233 953 l 401 1061 z "},"õ":{"ha":769,"x_min":24,"x_max":746,"o":"m 310 365 q 310 305 310 365 q 326 191 310 244 q 386 138 342 138 q 445 171 431 138 q 460 325 460 204 q 444 498 460 446 q 383 550 428 550 q 324 518 338 550 q 310 365 310 486 m 746 362 q 746 272 746 362 q 649 85 746 182 q 376 -12 553 -12 q 24 340 24 -12 q 400 713 24 713 q 660 627 575 713 q 746 362 746 542 m 243 1000 q 353 976 268 1000 q 456 953 438 953 q 533 1014 486 953 l 550 1033 l 572 1033 l 654 958 l 654 936 l 542 776 l 518 771 q 408 794 493 771 q 306 818 324 818 q 265 798 289 818 q 211 738 242 778 l 189 738 l 107 813 l 107 835 l 219 994 l 243 1000 z "},"ö":{"ha":769,"x_min":24,"x_max":746,"o":"m 310 365 q 310 305 310 365 q 326 191 310 244 q 386 138 342 138 q 445 171 431 138 q 460 325 460 204 q 444 498 460 446 q 383 550 428 550 q 324 518 338 550 q 310 365 310 486 m 746 362 q 746 272 746 362 q 649 85 746 182 q 376 -12 553 -12 q 24 340 24 -12 q 400 713 24 713 q 660 627 575 713 q 746 362 746 542 m 511 751 q 400 863 400 751 q 432 951 400 918 q 518 983 464 983 q 601 954 572 983 q 629 871 629 925 q 597 784 629 817 q 511 751 565 751 m 243 751 q 133 863 133 751 q 165 951 133 918 q 251 983 197 983 q 334 954 306 983 q 363 871 363 925 q 331 784 363 817 q 243 751 299 751 z "},"÷":{"ha":703,"x_min":21,"x_max":681,"o":"m 671 457 l 681 436 l 663 247 l 33 244 l 21 263 l 46 450 q 364 449 240 449 l 671 457 m 461 99 q 461 71 461 99 q 429 10 461 43 q 342 -24 397 -24 q 258 6 286 -24 q 229 91 229 35 q 262 181 229 147 q 349 214 294 214 q 432 184 403 214 q 461 99 461 154 m 461 600 q 461 572 461 600 q 429 511 461 544 q 342 478 397 478 q 258 507 286 478 q 229 592 229 536 q 262 682 229 649 q 349 715 294 715 q 432 685 403 715 q 461 600 461 656 z "},"ø":{"ha":769,"x_min":-6,"x_max":776,"o":"m 24 340 q 400 713 24 713 q 540 694 475 713 l 642 832 l 775 756 l 776 740 l 678 607 q 746 367 746 522 q 649 85 746 182 q 369 -12 553 -12 q 235 4 293 -12 l 129 -135 l -1 -56 l -6 -44 l 99 90 q 24 340 24 181 m 310 365 q 310 305 310 365 q 326 191 310 244 q 386 138 342 138 q 445 171 431 138 q 460 325 460 204 q 444 498 460 446 q 383 550 428 550 q 324 518 338 550 q 310 365 310 486 z "},"ù":{"ha":733,"x_min":4,"x_max":731,"o":"m 336 163 q 346 150 336 163 q 392 138 356 138 q 444 156 428 138 q 461 217 461 174 l 460 538 q 432 596 461 596 l 408 594 l 404 599 l 418 703 q 557 700 515 700 l 731 703 l 721 596 q 678 576 688 585 q 668 551 668 568 l 668 257 q 358 -12 668 -12 q 138 40 206 -12 q 71 213 71 93 l 71 538 q 65 585 71 574 q 39 596 58 596 l 7 594 l 4 599 l 17 703 q 231 700 133 700 l 389 704 l 376 593 q 324 543 326 592 l 317 232 q 336 163 317 189 m 157 836 l 147 858 l 197 1008 l 219 1015 q 565 876 394 940 l 536 778 l 510 760 q 157 836 381 793 z "},"ú":{"ha":733,"x_min":4,"x_max":731,"o":"m 336 163 q 346 150 336 163 q 392 138 356 138 q 444 156 428 138 q 461 217 461 174 l 460 538 q 432 596 461 596 l 408 594 l 404 599 l 418 703 q 557 700 515 700 l 731 703 l 721 596 q 678 576 688 585 q 668 551 668 568 l 668 257 q 358 -12 668 -12 q 138 40 206 -12 q 71 213 71 93 l 71 538 q 65 585 71 574 q 39 596 58 596 l 7 594 l 4 599 l 17 703 q 231 700 133 700 l 389 704 l 376 593 q 324 543 326 592 l 317 232 q 336 163 317 189 m 639 858 l 629 836 q 276 760 449 803 l 250 778 l 221 876 q 567 1015 364 929 l 589 1008 l 639 858 z "},"û":{"ha":733,"x_min":4,"x_max":731,"o":"m 336 163 q 346 150 336 163 q 392 138 356 138 q 444 156 428 138 q 461 217 461 174 l 460 538 q 432 596 461 596 l 408 594 l 404 599 l 418 703 q 557 700 515 700 l 731 703 l 721 596 q 678 576 688 585 q 668 551 668 568 l 668 257 q 358 -12 668 -12 q 138 40 206 -12 q 71 213 71 93 l 71 538 q 65 585 71 574 q 39 596 58 596 l 7 594 l 4 599 l 17 703 q 231 700 133 700 l 389 704 l 376 593 q 324 543 326 592 l 317 232 q 336 163 317 189 m 411 1061 q 444 1038 411 1065 q 656 869 583 925 l 607 783 l 575 774 q 392 844 510 801 q 210 774 319 818 l 178 783 l 128 869 q 374 1061 243 953 l 411 1061 z "},"ü":{"ha":733,"x_min":4,"x_max":731,"o":"m 336 163 q 346 150 336 163 q 392 138 356 138 q 444 156 428 138 q 461 217 461 174 l 460 538 q 432 596 461 596 l 408 594 l 404 599 l 418 703 q 557 700 515 700 l 731 703 l 721 596 q 678 576 688 585 q 668 551 668 568 l 668 257 q 358 -12 668 -12 q 138 40 206 -12 q 71 213 71 93 l 71 538 q 65 585 71 574 q 39 596 58 596 l 7 594 l 4 599 l 17 703 q 231 700 133 700 l 389 704 l 376 593 q 324 543 326 592 l 317 232 q 336 163 317 189 m 521 751 q 410 863 410 751 q 442 951 410 918 q 528 983 474 983 q 610 954 582 983 q 639 871 639 925 q 607 784 639 817 q 521 751 575 751 m 253 751 q 143 863 143 751 q 175 951 143 918 q 261 983 207 983 q 344 954 315 983 q 372 871 372 925 q 340 784 372 817 q 253 751 308 751 z "},"ý":{"ha":803,"x_min":13,"x_max":790,"o":"m 463 697 l 651 699 l 786 703 l 790 694 l 781 590 q 711 532 746 569 q 656 456 676 494 l 553 258 q 536 179 536 221 q 549 122 536 138 q 594 107 561 107 l 654 111 l 660 104 l 650 -7 q 399 0 468 0 l 154 -10 l 163 99 q 262 118 238 103 q 286 179 286 133 l 286 190 q 254 283 286 229 l 128 501 q 18 586 99 544 l 13 593 l 25 701 q 204 699 168 699 l 417 707 l 426 693 l 414 596 q 407 596 410 596 q 372 571 372 596 q 396 508 372 560 q 429 433 419 457 l 446 433 l 482 536 q 497 582 497 567 q 464 597 497 597 q 457 597 460 597 l 453 604 l 463 697 m 676 858 l 667 836 q 314 760 486 803 l 288 778 l 258 876 q 604 1015 401 929 l 626 1008 l 676 858 z "},"þ":{"ha":726,"x_min":21,"x_max":719,"o":"m 436 567 q 651 515 582 567 q 719 363 719 464 q 640 205 719 261 q 431 149 561 149 l 349 149 l 349 126 q 356 107 349 111 q 385 103 363 103 l 431 106 l 442 93 l 431 -4 q 219 0 271 0 l 21 -4 l 31 96 q 89 121 75 104 q 103 183 103 138 l 103 542 q 94 585 103 575 q 63 596 86 596 l 35 596 l 24 613 l 33 700 l 225 700 l 432 704 l 424 599 q 372 585 382 590 q 360 567 363 581 l 436 567 m 351 375 l 350 286 q 418 276 394 276 q 464 361 464 292 q 374 431 464 431 q 351 404 351 431 l 351 375 z "},"ÿ":{"ha":803,"x_min":13,"x_max":790,"o":"m 463 697 l 651 699 l 786 703 l 790 694 l 781 590 q 711 532 746 569 q 656 456 676 494 l 553 258 q 536 179 536 221 q 549 122 536 138 q 594 107 561 107 l 654 111 l 660 104 l 650 -7 q 399 0 468 0 l 154 -10 l 163 99 q 262 118 238 103 q 286 179 286 133 l 286 190 q 254 283 286 229 l 128 501 q 18 586 99 544 l 13 593 l 25 701 q 204 699 168 699 l 417 707 l 426 693 l 414 596 q 407 596 410 596 q 372 571 372 596 q 396 508 372 560 q 429 433 419 457 l 446 433 l 482 536 q 497 582 497 567 q 464 597 497 597 q 457 597 460 597 l 453 604 l 463 697 m 558 751 q 447 863 447 751 q 479 951 447 918 q 565 983 511 983 q 648 954 619 983 q 676 871 676 925 q 644 784 676 817 q 558 751 613 751 m 290 751 q 181 863 181 751 q 213 951 181 918 q 299 983 244 983 q 381 954 353 983 q 410 871 410 925 q 378 784 410 817 q 290 751 346 751 z "},"Ā":{"ha":939,"x_min":-7,"x_max":946,"o":"m 549 247 q 447 250 474 250 q 331 243 421 250 q 313 149 313 164 q 320 128 313 133 q 356 124 328 124 l 392 124 l 403 110 l 392 -6 q 178 -1 263 -1 l -7 -3 l 3 118 q 74 194 53 131 l 294 892 l 660 914 l 681 897 q 854 213 814 363 q 885 144 867 165 q 936 119 904 122 l 946 106 l 935 -4 q 739 -1 815 -1 l 474 -8 l 463 4 l 471 121 q 547 135 535 128 q 560 158 560 142 q 549 247 560 175 m 446 418 q 518 421 468 418 l 471 664 l 440 664 l 375 418 l 446 418 m 679 1143 l 694 1118 l 669 967 l 289 964 l 267 985 l 293 1136 q 507 1135 425 1135 l 679 1143 z "},"ā":{"ha":814,"x_min":6,"x_max":808,"o":"m 472 140 l 468 182 q 383 183 436 183 l 296 179 q 286 124 286 138 q 290 108 286 111 q 317 106 294 106 l 342 106 l 353 93 l 343 -4 q 163 -1 232 -1 l 6 -1 l 14 100 q 68 154 53 111 l 246 694 l 581 713 l 599 697 q 733 186 711 267 q 800 101 756 106 l 808 89 l 799 -3 q 632 -1 697 -1 l 404 -6 l 394 4 l 401 104 q 469 119 464 111 q 472 140 472 125 m 614 943 l 629 918 l 604 767 l 224 764 l 201 785 l 228 936 q 442 935 360 935 l 614 943 m 388 331 q 442 332 421 331 l 408 504 l 382 504 l 335 331 l 388 331 z "},"Ă":{"ha":939,"x_min":-7,"x_max":946,"o":"m 549 247 q 447 250 474 250 q 331 243 421 250 q 313 149 313 164 q 320 128 313 133 q 356 124 328 124 l 392 124 l 403 110 l 392 -6 q 178 -1 263 -1 l -7 -3 l 3 118 q 74 194 53 131 l 294 892 l 660 914 l 681 897 q 854 213 814 363 q 885 144 867 165 q 936 119 904 122 l 946 106 l 935 -4 q 739 -1 815 -1 l 474 -8 l 463 4 l 471 121 q 547 135 535 128 q 560 158 560 142 q 549 247 560 175 m 446 418 q 518 421 468 418 l 471 664 l 440 664 l 375 418 l 446 418 m 319 1222 q 474 1125 361 1125 q 628 1222 586 1125 l 665 1213 l 721 1126 q 634 992 696 1046 q 474 938 572 938 q 313 992 375 938 q 226 1126 251 1046 l 282 1213 l 319 1222 z "},"ă":{"ha":814,"x_min":6,"x_max":808,"o":"m 472 140 l 468 182 q 383 183 436 183 l 296 179 q 286 124 286 138 q 290 108 286 111 q 317 106 294 106 l 342 106 l 353 93 l 343 -4 q 163 -1 232 -1 l 6 -1 l 14 100 q 68 154 53 111 l 246 694 l 581 713 l 599 697 q 733 186 711 267 q 800 101 756 106 l 808 89 l 799 -3 q 632 -1 697 -1 l 404 -6 l 394 4 l 401 104 q 469 119 464 111 q 472 140 472 125 m 256 1036 q 410 939 297 939 q 564 1036 522 939 l 601 1026 l 657 940 q 570 806 632 860 q 410 751 508 751 q 249 806 311 751 q 163 940 188 860 l 218 1026 l 256 1036 m 388 331 q 442 332 421 331 l 408 504 l 382 504 l 335 331 l 388 331 z "},"Ą":{"ha":939,"x_min":-7,"x_max":946,"o":"m 799 -336 q 667 -303 715 -336 q 619 -219 619 -269 q 647 -121 619 -168 q 740 -1 674 -74 l 739 -1 l 474 -8 l 463 4 l 471 121 q 547 135 535 128 q 560 168 560 142 q 549 247 560 175 q 447 250 474 250 q 331 243 421 250 q 313 149 313 164 q 320 128 313 133 q 356 124 328 124 l 392 124 l 403 110 l 392 -6 q 178 -1 263 -1 l -7 -3 l 3 118 q 74 194 53 131 l 294 892 l 660 914 l 681 897 q 854 213 814 363 q 885 144 867 165 q 936 119 904 122 l 946 106 l 935 -4 q 844 -1 893 -3 q 760 -161 760 -117 q 775 -203 760 -187 q 813 -218 790 -218 q 908 -183 850 -218 l 943 -237 q 799 -336 865 -311 m 446 418 q 518 421 468 418 l 471 664 l 440 664 l 375 418 l 446 418 z "},"ą":{"ha":814,"x_min":6,"x_max":825,"o":"m 383 183 l 296 179 q 286 124 286 138 q 290 108 286 111 q 317 106 294 106 l 342 106 l 353 93 l 343 -4 q 163 -1 232 -1 l 6 -1 l 14 100 q 68 154 53 111 l 246 694 l 581 713 l 599 697 q 733 186 711 267 q 800 101 756 106 l 808 89 l 799 -3 q 726 -1 764 -1 q 642 -161 642 -117 q 657 -203 642 -187 q 694 -218 672 -218 q 790 -183 732 -218 l 825 -237 q 681 -336 747 -311 q 549 -303 597 -336 q 501 -219 501 -269 q 528 -121 501 -168 q 622 -1 556 -74 l 404 -6 l 394 4 l 401 104 q 469 119 464 111 q 472 140 472 125 l 468 182 q 383 183 436 183 m 388 331 q 442 332 421 331 l 408 504 l 382 504 l 335 331 l 388 331 z "},"Ć":{"ha":838,"x_min":21,"x_max":811,"o":"m 760 38 q 424 -15 610 -15 q 129 103 238 -15 q 21 443 21 221 q 147 790 21 665 q 508 915 274 915 q 800 879 614 915 l 811 851 q 772 554 782 724 l 558 542 q 561 627 561 578 q 540 700 561 676 q 465 724 518 724 q 365 672 393 724 q 338 473 338 619 q 370 253 338 326 q 472 181 403 181 q 550 217 525 181 q 582 342 575 253 l 794 356 q 778 60 778 193 l 760 38 m 728 1058 l 718 1036 q 365 960 538 1003 l 339 978 l 310 1076 q 656 1215 453 1129 l 678 1208 l 728 1058 z "},"ć":{"ha":711,"x_min":24,"x_max":686,"o":"m 668 288 q 657 47 657 165 l 640 29 q 357 -11 513 -11 q 113 81 201 -11 q 24 347 24 172 q 126 617 24 522 q 428 713 229 713 q 676 685 515 713 l 686 660 q 653 421 661 558 l 460 410 q 461 476 461 438 q 447 532 461 515 q 386 549 432 549 q 324 515 340 549 q 307 371 307 482 q 328 209 307 260 q 394 158 349 158 q 456 184 439 158 q 476 275 472 210 l 668 288 m 640 858 l 631 836 q 278 760 450 803 l 251 778 l 222 876 q 568 1015 365 929 l 590 1008 l 640 858 z "},"Ĉ":{"ha":838,"x_min":21,"x_max":811,"o":"m 760 38 q 424 -15 610 -15 q 129 103 238 -15 q 21 443 21 221 q 147 790 21 665 q 508 915 274 915 q 800 879 614 915 l 811 851 q 772 554 782 724 l 558 542 q 561 627 561 578 q 540 700 561 676 q 465 724 518 724 q 365 672 393 724 q 338 473 338 619 q 370 253 338 326 q 472 181 403 181 q 550 217 525 181 q 582 342 575 253 l 794 356 q 778 60 778 193 l 760 38 m 286 994 l 222 1081 q 454 1297 333 1179 l 492 1297 q 722 1081 614 1176 l 660 994 l 628 985 q 472 1081 575 1021 q 318 985 378 1026 l 286 994 z "},"ĉ":{"ha":711,"x_min":24,"x_max":686,"o":"m 668 288 q 657 47 657 165 l 640 29 q 357 -11 513 -11 q 113 81 201 -11 q 24 347 24 172 q 126 617 24 522 q 428 713 229 713 q 676 685 515 713 l 686 660 q 653 421 661 558 l 460 410 q 461 476 461 438 q 447 532 461 515 q 386 549 432 549 q 324 515 340 549 q 307 371 307 482 q 328 209 307 260 q 394 158 349 158 q 456 184 439 158 q 476 275 472 210 l 668 288 m 215 794 l 151 881 q 383 1097 263 979 l 421 1097 q 651 881 543 976 l 589 794 l 557 785 q 401 881 504 821 q 247 785 307 826 l 215 794 z "},"Ċ":{"ha":838,"x_min":21,"x_max":811,"o":"m 760 38 q 424 -15 610 -15 q 129 103 238 -15 q 21 443 21 221 q 147 790 21 665 q 508 915 274 915 q 800 879 614 915 l 811 851 q 772 554 782 724 l 558 542 q 561 627 561 578 q 540 700 561 676 q 465 724 518 724 q 365 672 393 724 q 338 473 338 619 q 370 253 338 326 q 472 181 403 181 q 550 217 525 181 q 582 342 575 253 l 794 356 q 778 60 778 193 l 760 38 m 604 1091 q 604 1059 604 1091 q 567 988 604 1026 q 465 949 529 949 q 367 983 400 949 q 333 1082 333 1017 q 372 1186 333 1147 q 473 1225 410 1225 q 570 1190 536 1225 q 604 1091 604 1156 z "},"ċ":{"ha":711,"x_min":24,"x_max":686,"o":"m 668 288 q 657 47 657 165 l 640 29 q 357 -11 513 -11 q 113 81 201 -11 q 24 347 24 172 q 126 617 24 522 q 428 713 229 713 q 676 685 515 713 l 686 660 q 653 421 661 558 l 460 410 q 461 476 461 438 q 447 532 461 515 q 386 549 432 549 q 324 515 340 549 q 307 371 307 482 q 328 209 307 260 q 394 158 349 158 q 456 184 439 158 q 476 275 472 210 l 668 288 m 531 905 q 531 873 531 905 q 493 801 531 840 q 391 763 456 763 q 293 797 326 763 q 260 896 260 831 q 298 1000 260 961 q 399 1039 336 1039 q 497 1004 463 1039 q 531 905 531 969 z "},"Č":{"ha":838,"x_min":21,"x_max":811,"o":"m 760 38 q 424 -15 610 -15 q 129 103 238 -15 q 21 443 21 221 q 147 790 21 665 q 508 915 274 915 q 800 879 614 915 l 811 851 q 772 554 782 724 l 558 542 q 561 627 561 578 q 540 700 561 676 q 465 724 518 724 q 365 672 393 724 q 338 473 338 619 q 370 253 338 326 q 472 181 403 181 q 550 217 525 181 q 582 342 575 253 l 794 356 q 778 60 778 193 l 760 38 m 679 1233 l 729 1147 q 483 956 614 1064 l 446 956 q 201 1147 317 1063 l 250 1233 l 282 1243 q 465 1172 347 1215 q 647 1243 538 1199 l 679 1233 z "},"č":{"ha":711,"x_min":24,"x_max":686,"o":"m 668 288 q 657 47 657 165 l 640 29 q 357 -11 513 -11 q 113 81 201 -11 q 24 347 24 172 q 126 617 24 522 q 428 713 229 713 q 676 685 515 713 l 686 660 q 653 421 661 558 l 460 410 q 461 476 461 438 q 447 532 461 515 q 386 549 432 549 q 324 515 340 549 q 307 371 307 482 q 328 209 307 260 q 394 158 349 158 q 456 184 439 158 q 476 275 472 210 l 668 288 m 606 1033 l 656 947 q 410 756 540 864 l 372 756 q 128 947 243 863 l 176 1033 l 208 1043 q 392 972 274 1015 q 574 1043 464 999 l 606 1033 z "},"Ď":{"ha":947,"x_min":24,"x_max":926,"o":"m 125 233 l 125 699 q 117 758 125 742 q 90 774 110 774 l 46 771 l 32 790 l 44 903 q 256 899 199 899 l 486 907 q 926 489 926 907 q 797 119 926 256 q 443 -17 667 -17 q 222 0 310 0 l 24 -11 l 35 118 q 106 151 88 126 q 125 233 125 175 m 436 731 q 407 693 408 731 q 393 225 393 494 q 403 171 393 185 q 443 157 414 157 q 571 221 533 157 q 608 445 608 285 q 572 668 608 606 q 436 731 535 731 m 696 1233 l 746 1147 q 500 956 631 1064 l 463 956 q 218 1147 333 1063 l 267 1233 l 299 1243 q 482 1172 364 1215 q 664 1243 554 1199 l 696 1233 z "},"ď":{"ha":803,"x_min":24,"x_max":779,"o":"m 106 190 l 106 536 q 99 582 106 569 q 78 594 93 594 l 42 592 l 29 608 l 40 703 q 222 700 175 700 l 415 707 q 779 382 779 707 q 672 92 779 197 q 378 -12 565 -12 q 192 0 267 0 l 24 -8 l 32 101 q 90 126 75 107 q 106 190 106 146 m 379 554 q 357 525 358 554 q 346 181 346 394 q 352 145 346 154 q 374 136 358 136 q 468 180 442 136 q 494 346 494 224 q 472 511 494 468 q 379 554 450 554 m 625 1033 l 675 947 q 429 756 560 864 l 392 756 q 147 947 263 863 l 196 1033 l 228 1043 q 411 972 293 1015 q 593 1043 483 999 l 625 1033 z "},"Đ":{"ha":978,"x_min":10,"x_max":958,"o":"m 157 233 l 157 369 l 24 369 l 10 381 l 28 504 l 157 504 l 157 699 q 149 758 157 742 q 122 774 142 774 l 78 771 l 64 790 l 76 903 q 288 899 231 899 l 518 907 q 958 489 958 907 q 828 119 958 256 q 475 -17 699 -17 q 254 0 342 0 l 56 -11 l 67 118 q 138 151 119 126 q 157 233 157 175 m 425 371 l 425 225 q 435 171 425 185 q 475 157 446 157 q 603 221 565 157 q 640 445 640 285 q 603 668 640 606 q 468 731 567 731 q 439 693 440 731 l 429 506 l 533 510 l 544 496 l 535 371 l 425 371 z "},"đ":{"ha":831,"x_min":18,"x_max":808,"o":"m 135 183 l 135 281 l 29 281 l 18 289 l 33 396 l 135 396 l 135 536 q 128 582 135 569 q 107 594 122 594 l 71 592 l 58 608 l 69 703 q 251 700 203 700 l 444 707 q 808 382 808 707 q 701 92 808 197 q 407 -12 594 -12 q 221 0 296 0 l 53 -8 l 61 101 q 119 125 103 107 q 135 183 135 143 m 403 136 q 497 180 471 136 q 524 347 524 224 q 501 513 524 469 q 408 556 479 556 q 386 525 386 556 l 378 397 l 450 400 l 460 389 l 451 281 l 374 281 l 375 181 q 381 145 375 154 q 403 136 386 136 z "},"Ē":{"ha":838,"x_min":18,"x_max":817,"o":"m 403 538 l 517 536 l 669 544 l 686 525 l 667 365 q 517 369 564 369 q 396 361 471 369 q 394 251 394 314 q 406 174 394 189 q 461 160 418 160 q 581 187 551 160 q 622 307 610 214 l 800 319 l 817 299 q 778 13 792 164 l 757 -10 q 386 0 526 0 q 18 -14 185 0 l 31 114 q 102 148 83 122 q 121 236 121 174 l 122 701 q 115 761 122 746 q 85 776 107 776 l 49 774 l 32 793 l 44 903 q 453 899 242 899 q 797 915 664 899 l 815 893 q 783 617 790 747 l 592 604 q 594 656 594 638 q 569 717 594 703 q 486 732 543 732 q 420 725 429 732 q 411 694 411 718 l 403 538 m 658 1143 l 674 1118 l 649 967 l 268 964 l 246 985 l 272 1136 q 486 1135 404 1135 l 658 1143 z "},"ē":{"ha":717,"x_min":18,"x_max":697,"o":"m 349 203 q 357 149 349 161 q 415 138 365 138 q 488 158 464 138 q 521 249 511 179 l 681 260 l 696 242 q 664 11 675 133 l 644 -7 q 339 0 460 0 q 18 -11 163 0 l 29 97 q 86 124 71 103 q 101 193 101 144 l 103 538 q 97 584 103 572 q 74 596 92 596 l 44 594 l 29 611 l 40 703 q 389 700 213 700 q 681 713 565 700 l 697 694 q 671 472 676 575 l 497 463 q 500 511 500 488 q 479 546 500 535 q 417 557 458 557 q 368 551 375 557 q 361 531 361 546 l 356 424 l 446 424 l 571 429 l 586 411 l 569 276 q 459 279 486 279 q 349 274 432 279 l 349 203 m 592 943 l 607 918 l 582 767 l 201 764 l 179 785 l 206 936 q 419 935 338 935 l 592 943 z "},"Ĕ":{"ha":838,"x_min":18,"x_max":817,"o":"m 403 538 l 517 536 l 669 544 l 686 525 l 667 365 q 517 369 564 369 q 396 361 471 369 q 394 251 394 314 q 406 174 394 189 q 461 160 418 160 q 581 187 551 160 q 622 307 610 214 l 800 319 l 817 299 q 778 13 792 164 l 757 -10 q 386 0 526 0 q 18 -14 185 0 l 31 114 q 102 148 83 122 q 121 236 121 174 l 122 701 q 115 761 122 746 q 85 776 107 776 l 49 774 l 32 793 l 44 903 q 453 899 242 899 q 797 915 664 899 l 815 893 q 783 617 790 747 l 592 604 q 594 656 594 638 q 569 717 594 703 q 486 732 543 732 q 420 725 429 732 q 411 694 411 718 l 403 538 m 300 1257 q 454 1160 342 1160 q 608 1257 567 1160 l 646 1247 l 701 1161 q 615 1026 676 1081 q 454 972 553 972 q 294 1026 356 972 q 207 1161 232 1081 l 263 1247 l 300 1257 z "},"ĕ":{"ha":717,"x_min":18,"x_max":697,"o":"m 349 203 q 357 149 349 161 q 415 138 365 138 q 488 158 464 138 q 521 249 511 179 l 681 260 l 696 242 q 664 11 675 133 l 644 -7 q 339 0 460 0 q 18 -11 163 0 l 29 97 q 86 124 71 103 q 101 193 101 144 l 103 538 q 97 584 103 572 q 74 596 92 596 l 44 594 l 29 611 l 40 703 q 389 700 213 700 q 681 713 565 700 l 697 694 q 671 472 676 575 l 497 463 q 500 511 500 488 q 479 546 500 535 q 417 557 458 557 q 368 551 375 557 q 361 531 361 546 l 356 424 l 446 424 l 571 429 l 586 411 l 569 276 q 459 279 486 279 q 349 274 432 279 l 349 203 m 232 1043 q 386 946 274 946 q 540 1043 499 946 l 578 1033 l 633 947 q 547 813 608 867 q 386 758 485 758 q 226 813 288 758 q 139 947 164 867 l 194 1033 l 232 1043 z "},"Ė":{"ha":838,"x_min":18,"x_max":817,"o":"m 403 538 l 517 536 l 669 544 l 686 525 l 667 365 q 517 369 564 369 q 396 361 471 369 q 394 251 394 314 q 406 174 394 189 q 461 160 418 160 q 581 187 551 160 q 622 307 610 214 l 800 319 l 817 299 q 778 13 792 164 l 757 -10 q 386 0 526 0 q 18 -14 185 0 l 31 114 q 102 148 83 122 q 121 236 121 174 l 122 701 q 115 761 122 746 q 85 776 107 776 l 49 774 l 32 793 l 44 903 q 453 899 242 899 q 797 915 664 899 l 815 893 q 783 617 790 747 l 592 604 q 594 656 594 638 q 569 717 594 703 q 486 732 543 732 q 420 725 429 732 q 411 694 411 718 l 403 538 m 592 1091 q 592 1059 592 1091 q 554 988 592 1026 q 452 949 517 949 q 354 983 388 949 q 321 1082 321 1017 q 359 1186 321 1147 q 460 1225 397 1225 q 558 1190 524 1225 q 592 1091 592 1156 z "},"ė":{"ha":717,"x_min":18,"x_max":697,"o":"m 349 203 q 357 149 349 161 q 415 138 365 138 q 488 158 464 138 q 521 249 511 179 l 681 260 l 696 242 q 664 11 675 133 l 644 -7 q 339 0 460 0 q 18 -11 163 0 l 29 97 q 86 124 71 103 q 101 193 101 144 l 103 538 q 97 584 103 572 q 74 596 92 596 l 44 594 l 29 611 l 40 703 q 389 700 213 700 q 681 713 565 700 l 697 694 q 671 472 676 575 l 497 463 q 500 511 500 488 q 479 546 500 535 q 417 557 458 557 q 368 551 375 557 q 361 531 361 546 l 356 424 l 446 424 l 571 429 l 586 411 l 569 276 q 459 279 486 279 q 349 274 432 279 l 349 203 m 526 891 q 526 859 526 891 q 489 788 526 826 q 387 749 451 749 q 289 783 322 749 q 256 882 256 817 q 294 986 256 947 q 395 1025 332 1025 q 492 990 458 1025 q 526 891 526 956 z "},"Ę":{"ha":838,"x_min":18,"x_max":817,"o":"m 403 538 l 517 536 l 669 544 l 686 525 l 667 365 q 517 369 564 369 q 396 361 471 369 q 394 251 394 314 q 406 174 394 189 q 461 160 418 160 q 581 187 551 160 q 622 307 610 214 l 800 319 l 817 299 q 778 13 792 164 l 757 -10 q 714 -7 740 -8 q 633 -161 633 -115 q 649 -203 633 -187 q 686 -218 664 -218 q 782 -183 724 -218 l 817 -237 q 672 -336 739 -311 q 541 -303 589 -336 q 493 -219 493 -269 q 519 -121 493 -168 q 611 -4 546 -74 q 365 0 483 0 q 18 -14 185 0 l 31 114 q 102 148 83 122 q 121 236 121 174 l 122 701 q 115 761 122 746 q 85 776 107 776 l 49 774 l 32 793 l 44 903 q 453 899 242 899 q 797 915 664 899 l 815 893 q 783 617 790 747 l 592 604 q 594 656 594 638 q 569 717 594 703 q 486 732 543 732 q 420 725 429 732 q 411 694 411 718 l 403 538 z "},"ę":{"ha":717,"x_min":18,"x_max":717,"o":"m 572 -336 q 441 -303 489 -336 q 393 -219 393 -269 q 419 -121 393 -168 q 513 -3 446 -74 q 297 0 376 0 q 18 -11 163 0 l 29 97 q 86 124 71 103 q 101 193 101 144 l 103 538 q 97 584 103 572 q 74 596 92 596 l 44 594 l 29 611 l 40 703 q 389 700 213 700 q 681 713 565 700 l 697 694 q 671 472 676 575 l 497 463 q 500 511 500 488 q 479 546 500 535 q 417 557 458 557 q 368 551 375 557 q 361 531 361 546 l 356 424 l 446 424 l 571 429 l 586 411 l 569 276 q 459 279 486 279 q 349 274 432 279 l 349 203 q 357 149 349 161 q 415 138 365 138 q 488 158 464 138 q 521 249 511 179 l 681 260 l 696 242 q 664 11 675 133 l 644 -7 q 615 -6 631 -6 q 533 -161 533 -114 q 549 -203 533 -187 q 586 -218 564 -218 q 682 -183 624 -218 l 717 -237 q 572 -336 639 -311 z "},"Ě":{"ha":838,"x_min":18,"x_max":817,"o":"m 403 538 l 517 536 l 669 544 l 686 525 l 667 365 q 517 369 564 369 q 396 361 471 369 q 394 251 394 314 q 406 174 394 189 q 461 160 418 160 q 581 187 551 160 q 622 307 610 214 l 800 319 l 817 299 q 778 13 792 164 l 757 -10 q 386 0 526 0 q 18 -14 185 0 l 31 114 q 102 148 83 122 q 121 236 121 174 l 122 701 q 115 761 122 746 q 85 776 107 776 l 49 774 l 32 793 l 44 903 q 453 899 242 899 q 797 915 664 899 l 815 893 q 783 617 790 747 l 592 604 q 594 656 594 638 q 569 717 594 703 q 486 732 543 732 q 420 725 429 732 q 411 694 411 718 l 403 538 m 667 1233 l 717 1147 q 471 956 601 1064 l 433 956 q 189 1147 304 1063 l 238 1233 l 269 1243 q 453 1172 335 1215 q 635 1243 525 1199 l 667 1233 z "},"ě":{"ha":717,"x_min":18,"x_max":697,"o":"m 349 203 q 357 149 349 161 q 415 138 365 138 q 488 158 464 138 q 521 249 511 179 l 681 260 l 696 242 q 664 11 675 133 l 644 -7 q 339 0 460 0 q 18 -11 163 0 l 29 97 q 86 124 71 103 q 101 193 101 144 l 103 538 q 97 584 103 572 q 74 596 92 596 l 44 594 l 29 611 l 40 703 q 389 700 213 700 q 681 713 565 700 l 697 694 q 671 472 676 575 l 497 463 q 500 511 500 488 q 479 546 500 535 q 417 557 458 557 q 368 551 375 557 q 361 531 361 546 l 356 424 l 446 424 l 571 429 l 586 411 l 569 276 q 459 279 486 279 q 349 274 432 279 l 349 203 m 601 1033 l 651 947 q 406 756 536 864 l 368 756 q 124 947 239 863 l 172 1033 l 204 1043 q 388 972 269 1015 q 569 1043 460 999 l 601 1033 z "},"Ĝ":{"ha":888,"x_min":21,"x_max":860,"o":"m 482 181 q 554 197 526 181 l 554 285 q 545 330 554 318 q 510 342 536 342 l 464 340 l 451 360 l 468 492 l 681 492 q 846 499 846 492 l 860 418 q 799 349 811 390 q 788 201 788 308 q 797 53 788 93 l 781 31 q 457 -15 669 -15 q 133 103 244 -15 q 21 444 21 221 q 149 792 21 668 q 522 915 278 915 q 804 879 638 915 l 819 851 q 781 571 789 733 l 567 558 q 569 638 569 590 q 552 705 569 686 q 488 724 535 724 q 370 672 403 724 q 338 472 338 619 q 372 252 338 324 q 482 181 406 181 m 296 994 l 232 1081 q 464 1297 343 1179 l 501 1297 q 732 1081 624 1176 l 669 994 l 638 985 q 482 1081 585 1021 q 328 985 388 1026 l 296 994 z "},"ĝ":{"ha":753,"x_min":24,"x_max":728,"o":"m 393 390 l 572 392 q 715 397 715 392 l 728 328 q 674 274 685 306 q 664 158 664 242 q 672 40 664 75 l 657 21 q 389 -11 568 -11 q 117 81 210 -11 q 24 348 24 172 q 129 618 24 524 q 442 713 235 713 q 676 685 540 713 l 690 660 q 657 436 664 567 l 464 425 q 467 486 467 450 q 456 536 467 522 q 413 550 444 550 q 328 515 349 550 q 307 369 307 481 q 330 207 307 257 q 408 157 353 157 q 456 165 439 157 l 456 222 q 449 255 456 246 q 422 264 442 264 l 390 263 l 378 281 l 393 390 m 222 794 l 158 881 q 390 1097 269 979 l 428 1097 q 658 881 550 976 l 596 794 l 564 785 q 408 881 511 821 q 254 785 314 826 l 222 794 z "},"Ğ":{"ha":888,"x_min":21,"x_max":860,"o":"m 482 181 q 554 197 526 181 l 554 285 q 545 330 554 318 q 510 342 536 342 l 464 340 l 451 360 l 468 492 l 681 492 q 846 499 846 492 l 860 418 q 799 349 811 390 q 788 201 788 308 q 797 53 788 93 l 781 31 q 457 -15 669 -15 q 133 103 244 -15 q 21 444 21 221 q 149 792 21 668 q 522 915 278 915 q 804 879 638 915 l 819 851 q 781 571 789 733 l 567 558 q 569 638 569 590 q 552 705 569 686 q 488 724 535 724 q 370 672 403 724 q 338 472 338 619 q 372 252 338 324 q 482 181 406 181 m 321 1264 q 475 1167 363 1167 q 629 1264 588 1167 l 667 1254 l 722 1168 q 635 1033 697 1088 q 475 979 574 979 q 315 1033 376 979 q 228 1168 253 1088 l 283 1254 l 321 1264 z "},"ğ":{"ha":753,"x_min":24,"x_max":728,"o":"m 393 390 l 572 392 q 715 397 715 392 l 728 328 q 674 274 685 306 q 664 158 664 242 q 672 40 664 75 l 657 21 q 389 -11 568 -11 q 117 81 210 -11 q 24 348 24 172 q 129 618 24 524 q 442 713 235 713 q 676 685 540 713 l 690 660 q 657 436 664 567 l 464 425 q 467 486 467 450 q 456 536 467 522 q 413 550 444 550 q 328 515 349 550 q 307 369 307 481 q 330 207 307 257 q 408 157 353 157 q 456 165 439 157 l 456 222 q 449 255 456 246 q 422 264 442 264 l 390 263 l 378 281 l 393 390 m 246 1050 q 400 953 288 953 q 554 1050 513 953 l 592 1040 l 647 954 q 560 819 622 874 q 400 765 499 765 q 240 819 301 765 q 153 954 178 874 l 208 1040 l 246 1050 z "},"Ġ":{"ha":888,"x_min":21,"x_max":860,"o":"m 482 181 q 554 197 526 181 l 554 285 q 545 330 554 318 q 510 342 536 342 l 464 340 l 451 360 l 468 492 l 681 492 q 846 499 846 492 l 860 418 q 799 349 811 390 q 788 201 788 308 q 797 53 788 93 l 781 31 q 457 -15 669 -15 q 133 103 244 -15 q 21 444 21 221 q 149 792 21 668 q 522 915 278 915 q 804 879 638 915 l 819 851 q 781 571 789 733 l 567 558 q 569 638 569 590 q 552 705 569 686 q 488 724 535 724 q 370 672 403 724 q 338 472 338 619 q 372 252 338 324 q 482 181 406 181 m 614 1091 q 614 1059 614 1091 q 576 988 614 1026 q 474 949 539 949 q 376 983 410 949 q 343 1082 343 1017 q 381 1186 343 1147 q 483 1225 419 1225 q 580 1190 546 1225 q 614 1091 614 1156 z "},"ġ":{"ha":753,"x_min":24,"x_max":728,"o":"m 393 390 l 572 392 q 715 397 715 392 l 728 328 q 674 274 685 306 q 664 158 664 242 q 672 40 664 75 l 657 21 q 389 -11 568 -11 q 117 81 210 -11 q 24 348 24 172 q 129 618 24 524 q 442 713 235 713 q 676 685 540 713 l 690 660 q 657 436 664 567 l 464 425 q 467 486 467 450 q 456 536 467 522 q 413 550 444 550 q 328 515 349 550 q 307 369 307 481 q 330 207 307 257 q 408 157 353 157 q 456 165 439 157 l 456 222 q 449 255 456 246 q 422 264 442 264 l 390 263 l 378 281 l 393 390 m 539 891 q 539 859 539 891 q 501 788 539 826 q 399 749 464 749 q 301 783 335 749 q 268 882 268 817 q 306 986 268 947 q 408 1025 344 1025 q 505 990 471 1025 q 539 891 539 956 z "},"Ģ":{"ha":888,"x_min":21,"x_max":860,"o":"m 482 181 q 554 197 526 181 l 554 285 q 545 330 554 318 q 510 342 536 342 l 464 340 l 451 360 l 468 492 l 681 492 q 846 499 846 492 l 860 418 q 799 349 811 390 q 788 201 788 308 q 797 53 788 93 l 781 31 q 457 -15 669 -15 q 133 103 244 -15 q 21 444 21 221 q 149 792 21 668 q 522 915 278 915 q 804 879 638 915 l 819 851 q 781 571 789 733 l 567 558 q 569 638 569 590 q 552 705 569 686 q 488 724 535 724 q 370 672 403 724 q 338 472 338 619 q 372 252 338 324 q 482 181 406 181 m 329 -108 q 466 -47 408 -47 q 556 -85 524 -47 q 589 -192 589 -124 q 526 -340 589 -261 q 357 -479 464 -418 l 276 -415 l 276 -381 q 341 -311 317 -351 q 365 -222 365 -271 q 325 -128 365 -172 l 329 -108 z "},"ģ":{"ha":753,"x_min":24,"x_max":728,"o":"m 393 390 l 572 392 q 715 397 715 392 l 728 328 q 674 274 685 306 q 664 158 664 242 q 672 40 664 75 l 657 21 q 389 -11 568 -11 q 117 81 210 -11 q 24 348 24 172 q 129 618 24 524 q 442 713 235 713 q 676 685 540 713 l 690 660 q 657 436 664 567 l 464 425 q 467 486 467 450 q 456 536 467 522 q 413 550 444 550 q 328 515 349 550 q 307 369 307 481 q 330 207 307 257 q 408 157 353 157 q 456 165 439 157 l 456 222 q 449 255 456 246 q 422 264 442 264 l 390 263 l 378 281 l 393 390 m 269 -108 q 406 -47 349 -47 q 497 -85 464 -47 q 529 -192 529 -124 q 467 -340 529 -261 q 297 -479 404 -418 l 217 -415 l 217 -381 q 281 -311 257 -351 q 306 -222 306 -271 q 265 -128 306 -172 l 269 -108 z "},"Ĥ":{"ha":1026,"x_min":21,"x_max":1015,"o":"m 908 217 q 920 144 908 165 q 963 124 932 124 l 1001 128 l 1013 113 l 1000 -3 q 763 0 878 0 l 532 -1 l 543 119 q 614 144 593 121 q 635 225 635 168 l 635 367 q 553 368 588 368 l 396 356 l 396 217 q 405 140 396 158 q 440 121 414 121 l 478 125 l 489 111 l 476 -6 q 251 0 308 0 l 21 -7 l 32 111 q 105 144 88 122 q 122 225 122 167 l 122 706 q 113 763 122 749 q 74 776 103 776 l 38 775 l 25 794 l 36 899 l 215 899 l 492 906 l 482 781 q 424 759 438 772 q 408 708 411 746 l 400 540 l 518 536 q 635 540 594 536 l 635 706 q 625 762 635 747 q 586 776 615 776 l 549 775 l 536 794 l 547 899 l 771 899 l 1015 906 l 1006 783 q 940 761 956 775 q 922 708 924 747 q 908 217 908 521 m 326 1031 l 263 1117 q 494 1333 374 1215 l 532 1333 q 763 1117 654 1213 l 700 1031 l 668 1021 q 513 1117 615 1057 q 358 1021 418 1063 l 326 1031 z "},"ĥ":{"ha":868,"x_min":21,"x_max":858,"o":"m 771 176 q 781 122 771 138 q 815 106 792 106 l 844 108 l 856 94 l 844 -1 q 640 0 742 0 l 442 -1 l 450 101 q 508 121 490 103 q 525 178 525 139 l 525 278 q 471 279 496 279 l 349 269 l 349 176 q 356 117 349 132 q 385 103 363 103 l 413 106 l 422 93 l 413 -4 q 223 0 263 0 q 133 -1 183 0 q 21 -4 83 -3 l 31 96 q 89 121 75 104 q 103 183 103 138 l 103 542 q 94 585 103 575 q 63 596 86 596 l 33 596 l 22 613 l 32 700 l 183 700 l 426 704 l 418 599 q 372 583 383 593 q 360 550 361 574 l 353 428 l 438 424 q 525 426 492 424 l 525 542 q 517 585 525 574 q 485 596 508 596 l 454 596 l 443 613 l 453 700 l 647 700 l 858 704 l 850 601 q 796 584 808 594 q 782 543 783 574 q 771 176 771 425 m 247 831 l 183 917 q 415 1133 294 1015 l 453 1133 q 683 917 575 1013 l 621 831 l 589 821 q 433 917 536 857 q 279 821 339 863 l 247 831 z "},"Ħ":{"ha":1026,"x_min":-7,"x_max":1039,"o":"m 922 708 q 921 703 922 707 l 1018 706 l 1039 685 l 1032 608 l 917 607 q 908 217 908 439 q 920 144 908 165 q 963 124 932 124 l 1001 128 l 1013 113 l 1000 -3 q 763 0 878 0 l 532 -1 l 543 119 q 614 144 593 121 q 635 225 635 168 l 635 367 q 553 368 588 368 l 396 356 l 396 217 q 405 140 396 158 q 440 121 414 121 l 478 125 l 489 111 l 476 -6 q 251 0 308 0 l 21 -7 l 32 111 q 105 144 88 122 q 122 225 122 167 l 122 606 l 8 606 l -7 619 l 4 700 q 122 699 53 699 l 122 706 q 113 763 122 749 q 74 776 103 776 l 38 775 l 25 794 l 36 899 l 215 899 l 492 906 l 482 781 q 424 759 438 772 q 408 708 411 746 l 407 699 l 635 699 l 635 706 q 625 762 635 747 q 586 776 615 776 l 549 775 l 536 794 l 547 899 l 771 899 l 1015 906 l 1006 783 q 940 761 956 775 q 922 708 924 747 m 635 607 l 403 607 l 400 540 l 518 536 q 635 540 594 536 l 635 607 z "},"ħ":{"ha":868,"x_min":-3,"x_max":878,"o":"m 360 544 l 525 544 q 515 585 524 575 q 485 596 507 596 l 454 596 l 443 613 l 453 700 l 647 700 l 858 704 l 850 601 q 797 585 810 594 q 782 547 783 575 l 861 550 l 878 533 l 872 471 l 776 469 q 771 176 771 365 q 781 122 771 138 q 815 106 792 106 l 844 108 l 856 94 l 844 -1 q 640 0 742 0 l 442 -1 l 450 101 q 508 121 490 103 q 525 178 525 139 l 525 278 q 471 279 496 279 l 349 269 l 349 176 q 356 117 349 132 q 385 103 363 103 l 413 106 l 422 93 l 413 -4 q 223 0 263 0 q 133 -1 183 0 q 21 -4 83 -3 l 31 96 q 89 121 75 104 q 103 183 103 138 l 103 468 l 10 468 l -3 479 l 6 546 q 103 544 44 544 q 94 585 101 575 q 63 596 86 596 l 33 596 l 22 613 l 32 700 l 183 700 l 426 704 l 418 599 q 372 583 383 593 q 360 550 361 574 l 360 544 m 525 469 l 354 469 l 353 428 l 438 424 q 525 426 492 424 l 525 469 z "},"Ĩ":{"ha":514,"x_min":-15,"x_max":532,"o":"m 396 217 q 405 140 396 158 q 440 121 414 121 l 485 125 l 496 111 l 483 -6 q 251 0 310 0 l 21 -7 l 32 111 q 105 146 88 124 q 122 225 122 168 l 122 706 q 113 763 122 749 q 74 776 103 776 l 38 775 l 25 794 l 36 899 l 260 899 l 499 906 l 489 781 q 427 760 442 774 q 410 708 413 747 q 396 217 396 490 m 121 1235 q 231 1211 146 1235 q 333 1188 315 1188 q 411 1247 364 1188 l 428 1268 l 450 1268 l 532 1193 l 532 1171 l 419 1011 l 396 1006 q 286 1029 371 1006 q 184 1053 201 1053 q 143 1033 167 1053 q 89 972 119 1013 l 67 972 l -15 1047 l -15 1069 l 97 1229 l 121 1235 z "},"ĩ":{"ha":447,"x_min":-50,"x_max":497,"o":"m 349 176 q 356 117 349 132 q 385 103 363 103 l 418 106 l 428 93 l 418 -4 q 219 0 268 0 l 21 -4 l 31 96 q 90 122 76 106 q 103 183 103 138 l 103 542 q 94 585 103 575 q 63 596 86 596 l 35 596 l 24 613 l 33 700 l 225 700 l 432 704 l 424 599 q 374 583 385 593 q 360 543 363 574 q 349 176 349 399 m 86 1035 q 196 1011 111 1035 q 297 988 281 988 q 378 1047 329 988 l 393 1068 l 415 1068 l 497 993 l 497 971 l 385 811 l 361 806 q 251 829 336 806 q 149 853 167 853 q 108 833 132 853 q 54 772 85 813 l 32 772 l -50 847 l -50 869 l 63 1029 l 86 1035 z "},"Ī":{"ha":514,"x_min":21,"x_max":499,"o":"m 396 217 q 405 140 396 158 q 440 121 414 121 l 485 125 l 496 111 l 483 -6 q 251 0 310 0 l 21 -7 l 32 111 q 105 146 88 124 q 122 225 122 168 l 122 706 q 113 763 122 749 q 74 776 103 776 l 38 775 l 25 794 l 36 899 l 260 899 l 499 906 l 489 781 q 427 760 442 774 q 410 708 413 747 q 396 217 396 490 m 465 1143 l 481 1118 l 456 967 l 75 964 l 53 985 l 79 1136 q 293 1135 211 1135 l 465 1143 z "},"ī":{"ha":447,"x_min":17,"x_max":444,"o":"m 349 176 q 356 117 349 132 q 385 103 363 103 l 418 106 l 428 93 l 418 -4 q 219 0 268 0 l 21 -4 l 31 96 q 90 122 76 106 q 103 183 103 138 l 103 542 q 94 585 103 575 q 63 596 86 596 l 35 596 l 24 613 l 33 700 l 225 700 l 432 704 l 424 599 q 374 583 385 593 q 360 543 363 574 q 349 176 349 399 m 429 943 l 444 918 l 419 767 l 39 764 l 17 785 l 43 936 q 257 935 175 935 l 429 943 z "},"Ĭ":{"ha":514,"x_min":14,"x_max":508,"o":"m 396 217 q 405 140 396 158 q 440 121 414 121 l 485 125 l 496 111 l 483 -6 q 251 0 310 0 l 21 -7 l 32 111 q 105 146 88 124 q 122 225 122 168 l 122 706 q 113 763 122 749 q 74 776 103 776 l 38 775 l 25 794 l 36 899 l 260 899 l 499 906 l 489 781 q 427 760 442 774 q 410 708 413 747 q 396 217 396 490 m 107 1257 q 261 1160 149 1160 q 415 1257 374 1160 l 453 1247 l 508 1161 q 422 1026 483 1081 q 261 972 360 972 q 101 1026 163 972 q 14 1161 39 1081 l 69 1247 l 107 1257 z "},"ĭ":{"ha":447,"x_min":-21,"x_max":474,"o":"m 349 176 q 356 117 349 132 q 385 103 363 103 l 418 106 l 428 93 l 418 -4 q 219 0 268 0 l 21 -4 l 31 96 q 90 122 76 106 q 103 183 103 138 l 103 542 q 94 585 103 575 q 63 596 86 596 l 35 596 l 24 613 l 33 700 l 225 700 l 432 704 l 424 599 q 374 583 385 593 q 360 543 363 574 q 349 176 349 399 m 72 1071 q 226 974 114 974 q 381 1071 339 974 l 418 1061 l 474 975 q 387 840 449 894 q 226 786 325 786 q 66 840 128 786 q -21 975 4 894 l 35 1061 l 72 1071 z "},"Į":{"ha":514,"x_min":21,"x_max":504,"o":"m 360 -336 q 228 -303 276 -336 q 181 -219 181 -269 q 208 -121 181 -168 q 303 0 235 -74 l 251 0 l 21 -7 l 32 111 q 105 146 88 124 q 122 225 122 168 l 122 706 q 113 763 122 749 q 74 776 103 776 l 38 775 l 25 794 l 36 899 l 260 899 l 499 906 l 489 781 q 427 760 442 774 q 410 708 413 747 q 396 217 396 490 q 405 140 396 158 q 440 121 414 121 l 485 125 l 496 111 l 483 -6 q 406 -3 446 -4 q 321 -161 321 -115 q 336 -203 321 -187 q 374 -218 351 -218 q 469 -183 411 -218 l 504 -237 q 360 -336 426 -311 z "},"į":{"ha":447,"x_min":21,"x_max":453,"o":"m 129 -212 q 251 0 129 -129 l 219 0 l 21 -4 l 31 96 q 90 122 76 106 q 103 183 103 138 l 103 542 q 94 585 103 575 q 63 596 86 596 l 35 596 l 24 613 l 33 700 l 225 700 l 432 704 l 424 599 q 374 583 385 593 q 360 543 363 574 q 349 176 349 399 q 356 117 349 132 q 385 103 363 103 l 418 106 l 428 93 l 418 -4 q 354 -1 388 -3 q 269 -161 269 -117 q 285 -203 269 -187 q 322 -218 300 -218 q 418 -183 360 -218 l 453 -237 q 308 -336 375 -311 q 177 -303 225 -336 q 129 -212 129 -269 z "},"İ":{"ha":514,"x_min":21,"x_max":499,"o":"m 396 217 q 405 140 396 158 q 440 121 414 121 l 485 125 l 496 111 l 483 -6 q 251 0 310 0 l 21 -7 l 32 111 q 105 146 88 124 q 122 225 122 168 l 122 706 q 113 763 122 749 q 74 776 103 776 l 38 775 l 25 794 l 36 899 l 260 899 l 499 906 l 489 781 q 427 760 442 774 q 410 708 413 747 q 396 217 396 490 m 399 1091 q 399 1059 399 1091 q 361 988 399 1026 q 259 949 324 949 q 161 983 194 949 q 128 1082 128 1017 q 166 1186 128 1147 q 267 1225 204 1225 q 365 1190 331 1225 q 399 1091 399 1156 z "},"ı":{"ha":447,"x_min":21,"x_max":432,"o":"m 349 176 q 356 117 349 132 q 385 103 363 103 l 418 106 l 428 93 l 418 -4 q 219 0 268 0 l 21 -4 l 31 96 q 90 122 76 106 q 103 183 103 138 l 103 542 q 94 585 103 575 q 63 596 86 596 l 35 596 l 24 613 l 33 700 l 225 700 l 432 704 l 424 599 q 374 583 385 593 q 360 543 363 574 q 349 176 349 399 z "},"Ĳ":{"ha":985,"x_min":21,"x_max":989,"o":"m 396 217 q 405 140 396 158 q 440 121 414 121 l 485 125 l 496 111 l 483 -6 q 251 0 310 0 l 21 -7 l 32 111 q 105 146 88 124 q 122 225 122 168 l 122 706 q 113 763 122 749 q 74 776 103 776 l 38 775 l 25 794 l 36 899 l 260 899 l 499 906 l 489 781 q 427 760 442 774 q 410 708 413 747 q 396 217 396 490 m 625 183 l 625 706 q 616 763 625 749 q 581 776 607 776 l 531 774 l 518 793 l 529 899 l 725 900 l 989 910 l 978 781 q 926 759 938 771 q 913 708 915 747 q 896 118 896 453 q 816 -99 896 -15 q 563 -228 736 -182 l 507 -161 l 510 -140 q 603 -13 581 -75 q 625 183 625 49 z "},"ĳ":{"ha":840,"x_min":21,"x_max":842,"o":"m 522 146 l 522 542 q 515 586 522 575 q 486 597 508 597 l 446 594 l 435 613 l 444 700 l 611 701 l 842 708 l 832 599 q 790 582 799 592 q 779 543 782 572 q 765 86 765 346 q 697 -81 765 -17 q 476 -181 628 -146 l 428 -126 l 429 -108 q 504 -8 486 -56 q 522 146 522 40 m 349 176 q 356 117 349 132 q 385 103 363 103 l 418 106 l 428 93 l 418 -4 q 219 0 268 0 l 21 -4 l 31 96 q 90 122 76 106 q 103 183 103 138 l 103 542 q 94 585 103 575 q 63 596 86 596 l 35 596 l 24 613 l 33 700 l 225 700 l 432 704 l 424 599 q 374 583 385 593 q 360 543 363 574 q 349 176 349 399 z "},"Ĵ":{"ha":471,"x_min":-10,"x_max":490,"o":"m 111 183 l 111 706 q 102 763 111 749 q 67 776 93 776 l 17 774 l 4 793 l 15 899 l 211 900 l 475 910 l 464 781 q 413 759 424 771 q 399 708 401 747 q 382 118 382 453 q 302 -99 382 -15 q 49 -228 222 -182 l -7 -161 l -4 -140 q 89 -13 67 -75 q 111 183 111 49 m 54 994 l -10 1081 q 222 1297 101 1179 l 260 1297 q 490 1081 382 1176 l 428 994 l 396 985 q 240 1081 343 1021 q 86 985 146 1026 l 54 994 z "},"ĵ":{"ha":413,"x_min":-42,"x_max":458,"o":"m 94 146 l 94 542 q 88 586 94 575 q 58 597 81 597 l 18 594 l 7 613 l 17 700 l 183 701 l 414 708 l 404 599 q 363 582 371 592 q 351 543 354 572 q 338 86 338 346 q 269 -81 338 -17 q 49 -181 200 -146 l 0 -126 l 1 -108 q 76 -8 58 -56 q 94 146 94 40 m 22 794 l -42 881 q 190 1097 69 979 l 228 1097 q 458 881 350 976 l 396 794 l 364 785 q 208 881 311 821 q 54 785 114 826 l 22 794 z "},"Ķ":{"ha":963,"x_min":21,"x_max":964,"o":"m 122 225 l 122 706 q 113 763 122 749 q 74 776 103 776 l 38 775 l 25 794 l 38 900 q 260 899 235 899 l 499 906 l 489 781 q 422 753 438 768 q 406 703 407 739 q 396 181 396 207 q 404 138 396 156 q 440 121 413 121 l 485 125 l 496 111 l 483 -6 q 251 0 310 0 l 21 -7 l 32 111 q 105 144 88 122 q 122 225 122 167 m 571 667 q 600 725 600 696 q 588 764 600 754 q 543 775 575 774 l 535 789 l 547 903 q 746 899 682 899 l 946 906 l 958 885 l 946 781 q 742 576 847 725 l 683 494 l 814 242 q 876 151 846 181 q 950 117 907 122 l 964 96 l 949 -7 q 726 -22 771 -22 q 649 2 682 -22 q 583 90 615 26 l 408 440 l 415 482 l 571 667 m 382 -108 q 519 -47 461 -47 q 609 -85 576 -47 q 642 -192 642 -124 q 579 -340 642 -261 q 410 -479 517 -418 l 329 -415 l 329 -381 q 394 -311 369 -351 q 418 -222 418 -271 q 378 -128 418 -172 l 382 -108 z "},"ķ":{"ha":828,"x_min":21,"x_max":821,"o":"m 103 183 l 103 542 q 94 585 103 575 q 63 596 86 596 l 33 596 l 22 613 l 33 701 q 225 700 207 700 l 433 704 l 425 599 q 370 577 382 588 q 357 539 358 567 l 349 176 q 356 117 349 132 q 385 103 363 103 l 419 106 l 429 93 l 419 -4 q 219 0 268 0 l 21 -6 l 29 93 q 89 121 75 104 q 103 183 103 138 m 482 511 q 504 555 504 531 q 495 586 504 579 q 461 594 486 593 l 453 607 l 464 703 q 633 700 579 700 l 807 706 l 819 688 l 808 600 q 633 429 722 550 l 604 388 l 700 199 q 808 100 744 111 l 821 82 l 808 -6 q 613 -18 651 -18 q 547 0 574 -18 q 494 69 521 18 l 357 343 l 363 378 l 482 511 m 321 -108 q 458 -47 400 -47 q 548 -85 515 -47 q 581 -192 581 -124 q 518 -340 581 -261 q 349 -479 456 -418 l 268 -415 l 268 -381 q 333 -311 308 -351 q 357 -222 357 -271 q 317 -128 357 -172 l 321 -108 z "},"ĸ":{"ha":828,"x_min":21,"x_max":821,"o":"m 103 183 l 103 542 q 94 585 103 575 q 63 596 86 596 l 33 596 l 22 613 l 33 701 q 225 700 207 700 l 433 704 l 425 599 q 370 577 382 588 q 357 539 358 567 l 349 176 q 356 117 349 132 q 385 103 363 103 l 419 106 l 429 93 l 419 -4 q 219 0 268 0 l 21 -6 l 29 93 q 89 121 75 104 q 103 183 103 138 m 482 511 q 504 555 504 531 q 495 586 504 579 q 461 594 486 593 l 453 607 l 464 703 q 633 700 579 700 l 807 706 l 819 688 l 808 600 q 633 429 722 550 l 604 388 l 700 199 q 808 100 744 111 l 821 82 l 808 -6 q 613 -18 651 -18 q 547 0 574 -18 q 494 69 521 18 l 357 343 l 363 378 l 482 511 z "},"Ĺ":{"ha":774,"x_min":18,"x_max":774,"o":"m 719 -10 q 378 0 510 0 q 18 -14 185 0 l 31 114 q 102 148 83 122 q 121 236 121 174 l 121 706 q 111 763 121 749 q 72 776 101 776 l 36 775 l 24 794 l 35 899 l 258 899 l 546 906 l 531 769 q 434 748 458 763 q 408 697 410 733 q 394 219 394 489 q 406 174 394 188 q 446 160 418 160 q 546 203 519 160 q 579 386 572 247 l 757 404 l 774 383 q 740 13 753 206 l 719 -10 m 526 1058 l 517 1036 q 164 960 336 1003 l 138 978 l 108 1076 q 454 1215 251 1129 l 476 1208 l 526 1058 z "},"ĺ":{"ha":669,"x_min":17,"x_max":660,"o":"m 614 -7 q 331 0 443 0 q 17 -11 161 0 l 28 97 q 86 124 71 103 q 101 193 101 144 l 101 542 q 93 585 101 575 q 61 596 85 596 l 33 596 l 21 613 l 31 700 l 224 700 l 478 704 l 464 589 q 382 574 403 583 q 360 540 361 564 q 347 178 347 378 q 383 138 347 138 q 460 173 440 138 q 485 318 479 208 l 644 333 l 660 315 q 633 13 643 169 l 614 -7 m 478 858 l 468 836 q 115 760 288 803 l 89 778 l 60 876 q 406 1015 203 929 l 428 1008 l 478 858 z "},"Ļ":{"ha":774,"x_min":18,"x_max":774,"o":"m 719 -10 q 378 0 510 0 q 18 -14 185 0 l 31 114 q 102 148 83 122 q 121 236 121 174 l 121 706 q 111 763 121 749 q 72 776 101 776 l 36 775 l 24 794 l 35 899 l 258 899 l 546 906 l 531 769 q 434 748 458 763 q 408 697 410 733 q 394 219 394 489 q 406 174 394 188 q 446 160 418 160 q 546 203 519 160 q 579 386 572 247 l 757 404 l 774 383 q 740 13 753 206 l 719 -10 m 264 -108 q 401 -47 343 -47 q 491 -85 458 -47 q 524 -192 524 -124 q 461 -340 524 -261 q 292 -479 399 -418 l 211 -415 l 211 -381 q 276 -311 251 -351 q 300 -222 300 -271 q 260 -128 300 -172 l 264 -108 z "},"ļ":{"ha":669,"x_min":17,"x_max":660,"o":"m 614 -7 q 331 0 443 0 q 17 -11 161 0 l 28 97 q 86 124 71 103 q 101 193 101 144 l 101 542 q 93 585 101 575 q 61 596 85 596 l 33 596 l 21 613 l 31 700 l 224 700 l 478 704 l 464 589 q 382 574 403 583 q 360 540 361 564 q 347 178 347 378 q 383 138 347 138 q 460 173 440 138 q 485 318 479 208 l 644 333 l 660 315 q 633 13 643 169 l 614 -7 m 214 -108 q 351 -47 293 -47 q 441 -85 408 -47 q 474 -192 474 -124 q 411 -340 474 -261 q 242 -479 349 -418 l 161 -415 l 161 -381 q 226 -311 201 -351 q 250 -222 250 -271 q 210 -128 250 -172 l 214 -108 z "},"Ľ":{"ha":792,"x_min":18,"x_max":797,"o":"m 611 549 q 611 608 611 569 q 599 879 611 708 l 785 899 l 797 882 q 739 575 775 731 l 638 540 l 611 549 m 719 -10 q 378 0 510 0 q 18 -14 185 0 l 31 114 q 102 148 83 122 q 121 236 121 174 l 121 706 q 111 763 121 749 q 72 776 101 776 l 36 775 l 24 794 l 35 899 l 258 899 l 546 906 l 531 769 q 434 748 458 763 q 408 697 410 733 q 394 219 394 489 q 406 174 394 188 q 446 160 418 160 q 546 203 519 160 q 579 386 572 247 l 757 404 l 774 383 q 740 13 753 206 l 719 -10 z "},"ľ":{"ha":688,"x_min":17,"x_max":685,"o":"m 614 -7 q 331 0 443 0 q 17 -11 161 0 l 28 97 q 86 124 71 103 q 101 193 101 144 l 101 542 q 93 585 101 575 q 61 596 85 596 l 33 596 l 21 613 l 31 700 l 224 700 l 478 704 l 464 589 q 382 574 403 583 q 360 540 361 564 q 347 178 347 378 q 383 138 347 138 q 460 173 440 138 q 485 318 479 208 l 644 333 l 660 315 q 633 13 643 169 l 614 -7 m 674 701 l 685 688 q 635 447 667 569 l 543 418 l 521 425 q 510 686 521 542 l 674 701 z "},"Ŀ":{"ha":801,"x_min":18,"x_max":794,"o":"m 719 -10 q 378 0 510 0 q 18 -14 185 0 l 31 114 q 102 148 83 122 q 121 236 121 174 l 121 706 q 111 763 121 749 q 72 776 101 776 l 36 775 l 24 794 l 35 899 l 258 899 l 546 906 l 531 769 q 434 748 458 763 q 408 697 410 733 q 394 219 394 489 q 406 174 394 188 q 446 160 418 160 q 546 203 519 160 q 579 386 572 247 l 757 404 l 774 383 q 740 13 753 206 l 719 -10 m 794 667 q 794 635 794 667 q 757 564 794 603 q 655 525 719 525 q 557 559 590 525 q 524 658 524 593 q 562 763 524 724 q 663 801 600 801 q 760 767 726 801 q 794 667 794 732 z "},"ŀ":{"ha":756,"x_min":17,"x_max":726,"o":"m 614 -7 q 331 0 443 0 q 17 -11 161 0 l 28 97 q 86 124 71 103 q 101 193 101 144 l 101 542 q 93 585 101 575 q 61 596 85 596 l 33 596 l 21 613 l 31 700 l 224 700 l 478 704 l 464 589 q 382 574 403 583 q 360 540 361 564 q 347 178 347 378 q 383 138 347 138 q 460 173 440 138 q 485 318 479 208 l 644 333 l 660 315 q 633 13 643 169 l 614 -7 m 726 533 q 726 504 726 533 q 692 440 726 475 q 601 404 658 404 q 513 435 543 404 q 482 526 482 467 q 516 619 482 585 q 608 654 550 654 q 696 623 665 654 q 726 533 726 592 z "},"Ł":{"ha":808,"x_min":21,"x_max":808,"o":"m 754 -10 q 414 0 544 0 q 53 -14 219 0 l 65 114 q 137 148 118 122 q 156 236 156 174 l 156 331 l 78 292 l 64 294 l 21 425 l 156 492 l 156 706 q 146 763 156 749 q 107 776 136 776 l 71 775 l 58 794 l 69 899 l 293 899 l 581 906 l 565 769 q 469 748 493 763 q 442 700 444 733 q 438 603 440 667 l 551 660 l 564 654 l 607 525 l 431 438 q 429 219 429 374 q 441 174 429 188 q 481 160 453 160 q 581 203 554 160 q 614 386 607 247 l 792 404 l 808 383 q 775 13 788 206 l 754 -10 z "},"ł":{"ha":694,"x_min":21,"x_max":693,"o":"m 647 -7 q 364 0 476 0 q 50 -11 194 0 l 61 97 q 119 124 104 103 q 135 193 135 144 l 135 246 l 72 217 l 61 219 l 21 333 l 135 386 l 135 542 q 126 585 135 575 q 94 596 118 596 l 67 596 l 54 613 l 64 700 l 257 700 l 511 704 l 497 589 q 415 574 436 583 q 393 540 394 564 l 389 479 l 468 517 l 479 513 l 518 400 l 382 336 q 381 178 381 290 q 417 138 381 138 q 493 173 474 138 q 518 318 513 208 l 678 333 l 693 315 q 667 13 676 169 l 647 -7 z "},"Ń":{"ha":1026,"x_min":18,"x_max":1026,"o":"m 646 776 l 603 776 l 596 792 l 603 904 q 891 899 756 899 q 1026 903 1026 899 l 1019 778 q 958 753 975 772 q 939 690 940 733 l 921 0 l 660 -17 q 375 438 515 224 l 354 438 l 358 190 q 371 135 360 150 q 413 119 382 119 l 460 125 l 472 113 l 457 -6 q 251 0 303 0 q 29 -11 157 0 l 43 114 q 122 201 121 124 l 139 686 q 119 750 139 733 q 35 774 100 767 l 18 793 l 26 906 q 232 899 131 899 l 410 904 q 676 463 521 704 l 697 463 l 692 717 q 681 764 690 751 q 646 776 671 776 m 796 1058 l 786 1036 q 433 960 606 1003 l 407 978 l 378 1076 q 724 1215 521 1129 l 746 1208 l 796 1058 z "},"ń":{"ha":875,"x_min":18,"x_max":869,"o":"m 538 597 l 503 597 l 496 610 l 501 704 q 753 700 636 700 q 869 703 869 700 l 864 597 q 814 577 828 592 q 799 529 800 563 l 783 6 l 543 -7 l 332 301 l 313 301 l 318 158 q 328 113 319 125 q 364 101 338 101 l 400 106 l 413 96 l 399 -4 q 214 0 264 0 l 28 -8 l 40 97 q 88 117 74 101 q 104 165 103 133 l 118 525 q 103 574 118 563 q 33 593 88 586 l 18 610 l 25 706 q 206 700 114 700 l 363 704 q 561 396 436 578 l 581 396 l 575 550 q 565 588 572 578 q 538 597 558 597 m 703 858 l 693 836 q 340 760 513 803 l 314 778 l 285 876 q 631 1015 428 929 l 653 1008 l 703 858 z "},"Ņ":{"ha":1026,"x_min":18,"x_max":1026,"o":"m 646 776 l 603 776 l 596 792 l 603 904 q 891 899 756 899 q 1026 903 1026 899 l 1019 778 q 958 753 975 772 q 939 690 940 733 l 921 0 l 660 -17 q 375 438 515 224 l 354 438 l 358 190 q 371 135 360 150 q 413 119 382 119 l 460 125 l 472 113 l 457 -6 q 251 0 303 0 q 29 -11 157 0 l 43 114 q 122 201 121 124 l 139 686 q 119 750 139 733 q 35 774 100 767 l 18 793 l 26 906 q 232 899 131 899 l 410 904 q 676 463 521 704 l 697 463 l 692 717 q 681 764 690 751 q 646 776 671 776 m 397 -108 q 534 -47 476 -47 q 624 -85 592 -47 q 657 -192 657 -124 q 594 -340 657 -261 q 425 -479 532 -418 l 344 -415 l 344 -381 q 409 -311 385 -351 q 433 -222 433 -271 q 393 -128 433 -172 l 397 -108 z "},"ņ":{"ha":875,"x_min":18,"x_max":869,"o":"m 538 597 l 503 597 l 496 610 l 501 704 q 753 700 636 700 q 869 703 869 700 l 864 597 q 814 577 828 592 q 799 529 800 563 l 783 6 l 543 -7 l 332 301 l 313 301 l 318 158 q 328 113 319 125 q 364 101 338 101 l 400 106 l 413 96 l 399 -4 q 214 0 264 0 l 28 -8 l 40 97 q 88 117 74 101 q 104 165 103 133 l 118 525 q 103 574 118 563 q 33 593 88 586 l 18 610 l 25 706 q 206 700 114 700 l 363 704 q 561 396 436 578 l 581 396 l 575 550 q 565 588 572 578 q 538 597 558 597 m 329 -108 q 466 -47 408 -47 q 556 -85 524 -47 q 589 -192 589 -124 q 526 -340 589 -261 q 357 -479 464 -418 l 276 -415 l 276 -381 q 341 -311 317 -351 q 365 -222 365 -271 q 325 -128 365 -172 l 329 -108 z "},"Ň":{"ha":1026,"x_min":18,"x_max":1026,"o":"m 646 776 l 603 776 l 596 792 l 603 904 q 891 899 756 899 q 1026 903 1026 899 l 1019 778 q 958 753 975 772 q 939 690 940 733 l 921 0 l 660 -17 q 375 438 515 224 l 354 438 l 358 190 q 371 135 360 150 q 413 119 382 119 l 460 125 l 472 113 l 457 -6 q 251 0 303 0 q 29 -11 157 0 l 43 114 q 122 201 121 124 l 139 686 q 119 750 139 733 q 35 774 100 767 l 18 793 l 26 906 q 232 899 131 899 l 410 904 q 676 463 521 704 l 697 463 l 692 717 q 681 764 690 751 q 646 776 671 776 m 747 1233 l 797 1147 q 551 956 682 1064 l 514 956 q 269 1147 385 1063 l 318 1233 l 350 1243 q 533 1172 415 1215 q 715 1243 606 1199 l 747 1233 z "},"ň":{"ha":875,"x_min":18,"x_max":869,"o":"m 538 597 l 503 597 l 496 610 l 501 704 q 753 700 636 700 q 869 703 869 700 l 864 597 q 814 577 828 592 q 799 529 800 563 l 783 6 l 543 -7 l 332 301 l 313 301 l 318 158 q 328 113 319 125 q 364 101 338 101 l 400 106 l 413 96 l 399 -4 q 214 0 264 0 l 28 -8 l 40 97 q 88 117 74 101 q 104 165 103 133 l 118 525 q 103 574 118 563 q 33 593 88 586 l 18 610 l 25 706 q 206 700 114 700 l 363 704 q 561 396 436 578 l 581 396 l 575 550 q 565 588 572 578 q 538 597 558 597 m 668 1033 l 718 947 q 472 756 603 864 l 435 756 q 190 947 306 863 l 239 1033 l 271 1043 q 454 972 336 1015 q 636 1043 526 999 l 668 1033 z "},"Ŋ":{"ha":1022,"x_min":24,"x_max":1022,"o":"m 233 899 l 401 904 q 685 442 524 688 l 704 442 l 699 722 q 688 769 699 756 q 653 782 678 782 l 610 781 l 603 794 l 610 904 q 838 899 796 899 l 1022 904 l 1015 783 q 952 758 969 778 q 933 696 935 739 l 918 118 q 838 -107 914 -22 q 593 -239 761 -192 l 540 -175 l 543 -154 q 620 -79 594 -114 q 658 0 646 -44 q 368 460 511 243 l 349 460 l 351 185 q 364 130 353 144 q 406 115 375 115 l 454 119 l 465 108 l 451 -6 q 201 0 311 0 l 35 -11 l 49 108 q 108 135 90 114 q 128 199 126 156 l 144 693 q 125 755 144 738 q 39 779 106 772 l 24 799 l 32 906 q 233 899 158 899 z "},"ŋ":{"ha":868,"x_min":24,"x_max":865,"o":"m 207 700 l 354 704 q 569 378 442 557 l 586 378 l 582 556 q 573 592 582 582 q 543 601 564 601 l 508 600 l 503 613 l 508 704 q 707 700 674 700 l 865 704 l 860 601 q 808 582 822 597 q 793 533 794 567 l 781 92 q 711 -85 778 -18 q 500 -189 644 -153 l 453 -137 l 456 -119 q 546 -1 529 -57 q 325 322 411 203 l 308 322 l 311 153 q 322 109 313 121 q 357 97 332 97 l 396 100 l 406 92 l 394 -4 q 176 0 272 0 l 32 -8 l 44 92 q 110 158 108 100 l 124 531 q 108 578 124 565 q 38 597 92 592 l 24 615 l 31 706 q 207 700 140 700 z "},"Ō":{"ha":910,"x_min":21,"x_max":889,"o":"m 339 467 q 339 389 339 467 q 366 235 339 311 q 457 158 393 158 q 546 210 521 158 q 571 419 571 263 q 543 650 571 575 q 451 725 515 725 q 363 674 388 725 q 339 467 339 624 m 889 472 q 771 110 889 238 q 443 -17 653 -17 q 127 99 233 -17 q 21 441 21 215 q 138 791 21 667 q 475 915 254 915 q 889 472 889 915 m 656 1143 l 671 1118 l 646 967 l 265 964 l 243 985 l 269 1136 q 483 1135 401 1135 l 656 1143 z "},"ō":{"ha":769,"x_min":24,"x_max":746,"o":"m 310 365 q 310 305 310 365 q 326 191 310 244 q 386 138 342 138 q 445 171 431 138 q 460 325 460 204 q 444 498 460 446 q 383 550 428 550 q 324 518 338 550 q 310 365 310 486 m 746 362 q 746 272 746 362 q 649 85 746 182 q 376 -12 553 -12 q 24 340 24 -12 q 400 713 24 713 q 660 627 575 713 q 746 362 746 542 m 585 943 l 600 918 l 575 767 l 194 764 l 172 785 l 199 936 q 413 935 331 935 l 585 943 z "},"Ŏ":{"ha":910,"x_min":21,"x_max":889,"o":"m 339 467 q 339 389 339 467 q 366 235 339 311 q 457 158 393 158 q 546 210 521 158 q 571 419 571 263 q 543 650 571 575 q 451 725 515 725 q 363 674 388 725 q 339 467 339 624 m 889 472 q 771 110 889 238 q 443 -17 653 -17 q 127 99 233 -17 q 21 441 21 215 q 138 791 21 667 q 475 915 254 915 q 889 472 889 915 m 297 1257 q 451 1160 339 1160 q 606 1257 564 1160 l 643 1247 l 699 1161 q 612 1026 674 1081 q 451 972 550 972 q 291 1026 353 972 q 204 1161 229 1081 l 260 1247 l 297 1257 z "},"ŏ":{"ha":769,"x_min":24,"x_max":746,"o":"m 310 365 q 310 305 310 365 q 326 191 310 244 q 386 138 342 138 q 445 171 431 138 q 460 325 460 204 q 444 498 460 446 q 383 550 428 550 q 324 518 338 550 q 310 365 310 486 m 746 362 q 746 272 746 362 q 649 85 746 182 q 376 -12 553 -12 q 24 340 24 -12 q 400 713 24 713 q 660 627 575 713 q 746 362 746 542 m 229 1057 q 383 960 271 960 q 538 1057 496 960 l 575 1047 l 631 961 q 544 826 606 881 q 383 772 482 772 q 223 826 285 772 q 136 961 161 881 l 192 1047 l 229 1057 z "},"Ő":{"ha":910,"x_min":21,"x_max":889,"o":"m 339 467 q 339 389 339 467 q 366 235 339 311 q 457 158 393 158 q 546 210 521 158 q 571 419 571 263 q 543 650 571 575 q 451 725 515 725 q 363 674 388 725 q 339 467 339 624 m 889 472 q 771 110 889 238 q 443 -17 653 -17 q 127 99 233 -17 q 21 441 21 215 q 138 791 21 667 q 475 915 254 915 q 889 472 889 915 m 518 1110 l 518 1089 q 278 936 394 1015 l 251 943 l 199 1010 l 406 1221 l 426 1222 l 518 1110 m 793 1110 l 793 1089 q 553 936 669 1015 l 526 943 l 474 1010 l 681 1221 l 701 1222 l 793 1110 z "},"ő":{"ha":769,"x_min":24,"x_max":746,"o":"m 310 365 q 310 305 310 365 q 326 191 310 244 q 386 138 342 138 q 445 171 431 138 q 460 325 460 204 q 444 498 460 446 q 383 550 428 550 q 324 518 338 550 q 310 365 310 486 m 746 362 q 746 272 746 362 q 649 85 746 182 q 376 -12 553 -12 q 24 340 24 -12 q 400 713 24 713 q 660 627 575 713 q 746 362 746 542 m 433 910 l 433 889 q 193 736 310 815 l 167 743 l 114 810 l 321 1021 l 342 1022 l 433 910 m 708 910 l 708 889 q 468 736 585 815 l 442 743 l 389 810 l 596 1021 l 617 1022 l 708 910 z "},"Œ":{"ha":1271,"x_min":21,"x_max":1250,"o":"m 894 160 q 1015 187 985 160 q 1056 307 1044 214 l 1233 319 l 1250 299 q 1211 13 1225 164 l 1190 -10 q 820 4 956 4 q 581 -5 685 4 q 442 -14 476 -14 q 131 101 240 -14 q 21 442 21 217 q 134 785 21 667 q 468 903 247 903 q 613 894 508 903 q 786 886 718 886 q 1231 915 997 886 l 1249 893 q 1217 617 1224 747 l 1025 604 q 1028 656 1028 638 q 1002 717 1028 703 q 919 732 976 732 q 853 725 863 732 q 844 694 844 718 l 836 538 l 950 536 l 1103 544 l 1119 525 l 1100 365 q 933 369 997 369 l 829 361 l 828 243 q 840 174 828 189 q 894 160 851 160 m 461 150 q 561 272 561 150 l 563 610 q 447 733 563 733 q 361 681 386 733 q 336 468 336 629 q 364 228 336 307 q 461 150 392 150 z "},"œ":{"ha":1058,"x_min":19,"x_max":1043,"o":"m 615 4 l 374 -10 q 110 79 201 -10 q 19 346 19 168 q 390 701 19 701 q 510 695 422 701 q 708 689 597 689 q 1026 713 818 689 l 1043 694 q 1017 472 1022 575 l 844 463 q 846 511 846 488 q 826 546 846 535 q 764 557 806 557 q 715 551 722 557 q 708 531 708 546 l 701 424 l 793 424 l 918 429 l 933 411 l 917 276 q 782 279 833 279 l 696 274 l 694 203 q 703 149 694 161 q 763 138 713 138 q 835 158 813 138 q 867 249 858 179 l 1028 260 l 1043 242 q 1010 11 1022 133 l 992 -7 q 615 4 803 4 m 386 131 q 454 210 454 131 l 454 468 q 374 557 454 557 q 317 524 332 557 q 303 366 303 490 q 319 186 303 242 q 386 131 336 131 z "},"Ŕ":{"ha":942,"x_min":19,"x_max":946,"o":"m 396 317 l 396 222 q 412 142 396 158 q 494 122 428 125 l 501 111 l 488 -6 q 267 0 318 0 q 19 -12 154 0 l 32 115 q 103 149 83 124 q 122 233 122 175 l 122 715 q 115 763 122 750 q 86 776 107 776 l 38 774 l 24 790 l 39 900 q 236 899 179 899 l 493 907 q 876 646 876 907 q 710 383 876 482 l 796 239 q 931 117 868 117 l 946 94 l 933 -7 l 718 -22 q 623 7 660 -22 q 560 104 586 36 l 474 317 l 396 317 m 506 478 q 572 528 553 497 q 590 619 590 560 q 552 706 590 678 q 433 733 514 733 q 415 728 419 733 q 400 492 406 714 l 506 478 m 738 1058 l 728 1036 q 375 960 547 1003 l 349 978 l 319 1076 q 665 1215 463 1129 l 688 1208 l 738 1058 z "},"ŕ":{"ha":811,"x_min":19,"x_max":807,"o":"m 349 238 l 349 179 q 362 119 349 132 q 431 104 375 107 l 438 94 l 425 -4 q 232 0 275 0 q 19 -11 150 0 l 29 97 q 87 125 71 104 q 103 190 103 146 l 103 551 q 97 586 103 576 q 75 596 90 596 l 33 594 l 21 608 l 35 701 q 203 700 156 700 l 425 707 q 756 499 756 707 q 621 294 756 372 l 685 196 q 793 100 747 100 l 807 81 l 796 -6 l 607 -17 q 526 5 556 -17 q 474 81 496 26 l 410 238 l 349 238 m 488 414 q 493 424 488 414 q 499 476 499 435 q 470 537 499 518 q 379 556 442 556 q 364 551 368 556 q 353 388 357 542 l 436 376 q 488 414 476 393 m 658 858 l 649 836 q 296 760 468 803 l 269 778 l 240 876 q 586 1015 383 929 l 608 1008 l 658 858 z "},"Ŗ":{"ha":942,"x_min":19,"x_max":946,"o":"m 396 317 l 396 222 q 412 142 396 158 q 494 122 428 125 l 501 111 l 488 -6 q 267 0 318 0 q 19 -12 154 0 l 32 115 q 103 149 83 124 q 122 233 122 175 l 122 715 q 115 763 122 750 q 86 776 107 776 l 38 774 l 24 790 l 39 900 q 236 899 179 899 l 493 907 q 876 646 876 907 q 710 383 876 482 l 796 239 q 931 117 868 117 l 946 94 l 933 -7 l 718 -22 q 623 7 660 -22 q 560 104 586 36 l 474 317 l 396 317 m 506 478 q 572 528 553 497 q 590 619 590 560 q 552 706 590 678 q 433 733 514 733 q 415 728 419 733 q 400 492 406 714 l 506 478 m 349 -108 q 485 -47 428 -47 q 576 -85 543 -47 q 608 -192 608 -124 q 546 -340 608 -261 q 376 -479 483 -418 l 296 -415 l 296 -381 q 360 -311 336 -351 q 385 -222 385 -271 q 344 -128 385 -172 l 349 -108 z "},"ŗ":{"ha":811,"x_min":19,"x_max":807,"o":"m 349 238 l 349 179 q 362 119 349 132 q 431 104 375 107 l 438 94 l 425 -4 q 232 0 275 0 q 19 -11 150 0 l 29 97 q 87 125 71 104 q 103 190 103 146 l 103 551 q 97 586 103 576 q 75 596 90 596 l 33 594 l 21 608 l 35 701 q 203 700 156 700 l 425 707 q 756 499 756 707 q 621 294 756 372 l 685 196 q 793 100 747 100 l 807 81 l 796 -6 l 607 -17 q 526 5 556 -17 q 474 81 496 26 l 410 238 l 349 238 m 488 414 q 493 424 488 414 q 499 476 499 435 q 470 537 499 518 q 379 556 442 556 q 364 551 368 556 q 353 388 357 542 l 436 376 q 488 414 476 393 m 292 -108 q 428 -47 371 -47 q 519 -85 486 -47 q 551 -192 551 -124 q 489 -340 551 -261 q 319 -479 426 -418 l 239 -415 l 239 -381 q 303 -311 279 -351 q 328 -222 328 -271 q 288 -128 328 -172 l 292 -108 z "},"Ř":{"ha":942,"x_min":19,"x_max":946,"o":"m 396 317 l 396 222 q 412 142 396 158 q 494 122 428 125 l 501 111 l 488 -6 q 267 0 318 0 q 19 -12 154 0 l 32 115 q 103 149 83 124 q 122 233 122 175 l 122 715 q 115 763 122 750 q 86 776 107 776 l 38 774 l 24 790 l 39 900 q 236 899 179 899 l 493 907 q 876 646 876 907 q 710 383 876 482 l 796 239 q 931 117 868 117 l 946 94 l 933 -7 l 718 -22 q 623 7 660 -22 q 560 104 586 36 l 474 317 l 396 317 m 506 478 q 572 528 553 497 q 590 619 590 560 q 552 706 590 678 q 433 733 514 733 q 415 728 419 733 q 400 492 406 714 l 506 478 m 689 1233 l 739 1147 q 493 956 624 1064 l 456 956 q 211 1147 326 1063 l 260 1233 l 292 1243 q 475 1172 357 1215 q 657 1243 547 1199 l 689 1233 z "},"ř":{"ha":811,"x_min":19,"x_max":807,"o":"m 349 238 l 349 179 q 362 119 349 132 q 431 104 375 107 l 438 94 l 425 -4 q 232 0 275 0 q 19 -11 150 0 l 29 97 q 87 125 71 104 q 103 190 103 146 l 103 551 q 97 586 103 576 q 75 596 90 596 l 33 594 l 21 608 l 35 701 q 203 700 156 700 l 425 707 q 756 499 756 707 q 621 294 756 372 l 685 196 q 793 100 747 100 l 807 81 l 796 -6 l 607 -17 q 526 5 556 -17 q 474 81 496 26 l 410 238 l 349 238 m 488 414 q 493 424 488 414 q 499 476 499 435 q 470 537 499 518 q 379 556 442 556 q 364 551 368 556 q 353 388 357 542 l 436 376 q 488 414 476 393 m 624 1033 l 674 947 q 428 756 558 864 l 390 756 q 146 947 261 863 l 194 1033 l 226 1043 q 410 972 292 1015 q 592 1043 482 999 l 624 1033 z "},"Ś":{"ha":765,"x_min":110,"x_max":835,"o":"m 400 -17 q 260 -2 328 -17 q 158 28 192 13 l 126 43 l 110 68 q 139 297 135 206 l 314 310 q 436 168 314 168 q 503 183 479 168 q 528 221 528 199 q 518 258 528 243 q 485 286 508 272 q 444 309 463 300 q 386 335 425 318 q 329 360 347 351 q 174 462 232 403 q 117 618 117 521 q 234 834 117 753 q 544 915 351 915 q 678 906 613 915 q 810 876 744 896 l 826 846 q 789 604 800 729 l 628 593 l 611 604 l 611 626 q 510 724 611 724 q 447 706 471 724 q 422 661 422 689 q 431 631 422 642 q 447 613 440 619 q 465 599 453 606 q 486 587 478 592 q 511 574 494 582 q 538 563 528 567 q 567 550 547 558 q 618 528 588 542 q 683 497 649 515 q 757 447 718 478 q 835 274 835 383 q 719 61 835 139 q 400 -17 603 -17 m 661 1058 l 651 1036 q 299 960 471 1003 l 272 978 l 243 1076 q 589 1215 386 1129 l 611 1208 l 661 1058 z "},"ś":{"ha":658,"x_min":18,"x_max":636,"o":"m 267 -12 q 147 -1 206 -12 q 33 35 89 11 l 18 56 q 44 232 40 167 l 201 243 q 226 171 201 196 q 306 146 251 146 q 361 178 361 146 q 328 221 361 203 q 254 253 293 238 q 75 349 126 299 q 24 476 24 399 q 124 649 24 585 q 390 713 224 713 q 615 682 504 713 l 631 656 q 599 467 608 564 l 454 457 l 439 467 l 439 478 q 418 530 439 511 q 365 549 397 549 q 315 538 333 549 q 297 515 297 528 q 301 494 297 501 q 313 479 304 486 q 330 467 322 472 q 353 455 338 461 q 380 444 369 449 q 411 433 390 440 q 458 417 432 426 q 512 392 483 407 q 572 353 540 378 q 636 215 636 306 q 538 48 636 108 q 267 -12 440 -12 m 593 858 l 583 836 q 231 760 403 803 l 204 778 l 175 876 q 521 1015 318 929 l 543 1008 l 593 858 z "},"Ŝ":{"ha":765,"x_min":18,"x_max":743,"o":"m 308 -17 q 168 -2 236 -17 q 67 28 100 13 l 35 43 l 18 68 q 47 297 43 206 l 222 310 q 344 168 222 168 q 412 183 388 168 q 436 221 436 199 q 426 258 436 243 q 394 286 417 272 q 352 309 371 300 q 294 335 333 318 q 238 360 256 351 q 83 462 140 403 q 25 618 25 521 q 142 834 25 753 q 453 915 260 915 q 587 906 521 915 q 718 876 653 896 l 735 846 q 697 604 708 729 l 536 593 l 519 604 l 519 626 q 418 724 519 724 q 355 706 379 724 q 331 661 331 689 q 340 631 331 642 q 355 613 349 619 q 374 599 361 606 q 394 587 386 592 q 419 574 403 582 q 446 563 436 567 q 476 550 456 558 q 526 528 496 542 q 592 497 557 515 q 665 447 626 478 q 743 274 743 383 q 627 61 743 139 q 308 -17 511 -17 m 219 994 l 156 1081 q 388 1297 267 1179 l 425 1297 q 656 1081 547 1176 l 593 994 l 561 985 q 406 1081 508 1021 q 251 985 311 1026 l 219 994 z "},"ŝ":{"ha":658,"x_min":18,"x_max":636,"o":"m 267 -12 q 147 -1 206 -12 q 33 35 89 11 l 18 56 q 44 232 40 167 l 201 243 q 226 171 201 196 q 306 146 251 146 q 361 178 361 146 q 328 221 361 203 q 254 253 293 238 q 75 349 126 299 q 24 476 24 399 q 124 649 24 585 q 390 713 224 713 q 615 682 504 713 l 631 656 q 599 467 608 564 l 454 457 l 439 467 l 439 478 q 418 530 439 511 q 365 549 397 549 q 315 538 333 549 q 297 515 297 528 q 301 494 297 501 q 313 479 304 486 q 330 467 322 472 q 353 455 338 461 q 380 444 369 449 q 411 433 390 440 q 458 417 432 426 q 512 392 483 407 q 572 353 540 378 q 636 215 636 306 q 538 48 636 108 q 267 -12 440 -12 m 160 794 l 96 881 q 328 1097 207 979 l 365 1097 q 596 881 488 976 l 533 794 l 501 785 q 346 881 449 821 q 192 785 251 826 l 160 794 z "},"Ş":{"ha":765,"x_min":110,"x_max":835,"o":"m 436 168 q 503 183 479 168 q 528 221 528 199 q 518 258 528 243 q 485 286 508 272 q 444 309 463 300 q 386 335 425 318 q 329 360 347 351 q 174 462 232 403 q 117 618 117 521 q 234 834 117 753 q 544 915 351 915 q 678 906 613 915 q 810 876 744 896 l 826 846 q 789 604 800 729 l 628 593 l 611 604 l 611 626 q 510 724 611 724 q 447 706 471 724 q 422 661 422 689 q 431 631 422 642 q 447 613 440 619 q 465 599 453 606 q 486 587 478 592 q 511 574 494 582 q 538 563 528 567 q 567 550 547 558 q 618 528 588 542 q 683 497 649 515 q 757 447 718 478 q 835 274 835 383 q 719 61 835 139 q 400 -17 603 -17 l 390 -17 l 383 -53 q 488 -119 442 -81 q 533 -206 533 -157 q 474 -296 533 -256 q 328 -336 414 -336 q 244 -316 283 -336 q 206 -265 206 -296 q 274 -167 206 -235 l 286 -167 q 306 -224 288 -204 q 361 -244 324 -244 q 399 -212 399 -244 q 278 -121 399 -179 l 306 -10 q 126 43 207 4 l 110 68 q 139 297 135 206 l 314 310 q 436 168 314 168 z "},"ş":{"ha":658,"x_min":18,"x_max":636,"o":"m 201 243 q 306 146 201 146 q 361 178 361 146 q 328 221 361 203 q 254 253 293 238 q 75 349 126 299 q 24 476 24 399 q 124 649 24 585 q 390 713 224 713 q 615 682 504 713 l 631 656 q 599 467 608 564 l 454 457 l 439 467 l 439 478 q 418 530 439 511 q 365 549 397 549 q 315 538 333 549 q 297 515 297 528 q 301 494 297 501 q 313 479 304 486 q 330 467 322 472 q 353 455 338 461 q 380 444 369 449 q 411 433 390 440 q 458 417 432 426 q 512 392 483 407 q 572 353 540 378 q 636 213 636 306 q 560 63 636 121 q 346 -8 483 4 l 336 -53 q 440 -119 394 -81 q 486 -206 486 -157 q 426 -296 486 -256 q 281 -336 367 -336 q 197 -316 236 -336 q 158 -265 158 -296 q 226 -167 158 -235 l 239 -167 q 258 -224 240 -204 q 314 -244 276 -244 q 351 -212 351 -244 q 231 -121 351 -179 l 258 -12 q 142 1 199 -11 q 33 35 86 13 l 18 56 q 44 232 40 167 l 201 243 z "},"Š":{"ha":765,"x_min":110,"x_max":835,"o":"m 400 -17 q 260 -2 328 -17 q 158 28 192 13 l 126 43 l 110 68 q 139 297 135 206 l 314 310 q 436 168 314 168 q 503 183 479 168 q 528 221 528 199 q 518 258 528 243 q 485 286 508 272 q 444 309 463 300 q 386 335 425 318 q 329 360 347 351 q 174 462 232 403 q 117 618 117 521 q 234 834 117 753 q 544 915 351 915 q 678 906 613 915 q 810 876 744 896 l 826 846 q 789 604 800 729 l 628 593 l 611 604 l 611 626 q 510 724 611 724 q 447 706 471 724 q 422 661 422 689 q 431 631 422 642 q 447 613 440 619 q 465 599 453 606 q 486 587 478 592 q 511 574 494 582 q 538 563 528 567 q 567 550 547 558 q 618 528 588 542 q 683 497 649 515 q 757 447 718 478 q 835 274 835 383 q 719 61 835 139 q 400 -17 603 -17 m 613 1233 l 663 1147 q 417 956 547 1064 l 379 956 q 135 1147 250 1063 l 183 1233 l 215 1243 q 399 1172 281 1215 q 581 1243 471 1199 l 613 1233 z "},"š":{"ha":658,"x_min":18,"x_max":636,"o":"m 267 -12 q 147 -1 206 -12 q 33 35 89 11 l 18 56 q 44 232 40 167 l 201 243 q 226 171 201 196 q 306 146 251 146 q 361 178 361 146 q 328 221 361 203 q 254 253 293 238 q 75 349 126 299 q 24 476 24 399 q 124 649 24 585 q 390 713 224 713 q 615 682 504 713 l 631 656 q 599 467 608 564 l 454 457 l 439 467 l 439 478 q 418 530 439 511 q 365 549 397 549 q 315 538 333 549 q 297 515 297 528 q 301 494 297 501 q 313 479 304 486 q 330 467 322 472 q 353 455 338 461 q 380 444 369 449 q 411 433 390 440 q 458 417 432 426 q 512 392 483 407 q 572 353 540 378 q 636 215 636 306 q 538 48 636 108 q 267 -12 440 -12 m 558 1033 l 608 947 q 363 756 493 864 l 325 756 q 81 947 196 863 l 129 1033 l 161 1043 q 344 972 226 1015 q 526 1043 417 999 l 558 1033 z "},"Ţ":{"ha":824,"x_min":0,"x_max":824,"o":"m 274 233 l 274 731 q 200 695 218 731 q 172 542 182 660 l 0 531 q 11 894 10 736 l 29 914 l 194 899 l 631 899 l 799 914 l 817 894 l 824 542 l 651 531 q 625 697 640 664 q 556 731 610 731 q 549 222 549 501 q 565 148 549 169 q 621 126 581 126 l 692 131 l 699 122 l 686 -8 q 449 0 542 -3 l 438 -53 q 542 -119 496 -81 q 588 -206 588 -157 q 528 -296 588 -256 q 382 -336 468 -336 q 299 -316 338 -336 q 260 -265 260 -296 q 328 -167 260 -235 l 340 -167 q 360 -224 342 -204 q 415 -244 378 -244 q 453 -212 453 -244 q 332 -121 453 -179 l 363 0 l 125 -12 l 136 115 q 247 145 221 122 q 274 233 274 168 z "},"ţ":{"ha":710,"x_min":8,"x_max":703,"o":"m 232 182 l 232 554 q 183 525 194 554 q 163 404 171 496 l 8 396 q 17 696 15 567 l 32 713 l 175 700 l 538 700 l 682 713 l 699 696 l 703 404 l 547 396 q 529 527 539 500 q 483 554 519 554 q 479 182 479 388 q 492 124 479 140 q 539 107 506 107 l 596 111 l 603 104 l 592 -7 q 394 0 474 -1 l 383 -53 q 488 -119 442 -81 q 533 -206 533 -157 q 474 -296 533 -256 q 328 -336 414 -336 q 244 -316 283 -336 q 206 -265 206 -296 q 274 -167 206 -235 l 286 -167 q 306 -224 288 -204 q 361 -244 324 -244 q 399 -212 399 -244 q 278 -121 399 -179 l 308 0 l 108 -11 l 117 99 q 209 121 186 104 q 232 182 232 138 z "},"Ť":{"ha":824,"x_min":0,"x_max":824,"o":"m 274 233 l 274 731 q 200 695 218 731 q 172 542 182 660 l 0 531 q 11 894 10 736 l 29 914 l 194 899 l 631 899 l 799 914 l 817 894 l 824 542 l 651 531 q 625 697 640 664 q 556 731 610 731 q 549 222 549 501 q 565 148 549 169 q 621 126 581 126 l 692 131 l 699 122 l 686 -8 q 404 0 483 0 l 125 -12 l 136 115 q 247 145 221 122 q 274 233 274 168 m 631 1233 l 681 1147 q 435 956 565 1064 l 397 956 q 153 1147 268 1063 l 201 1233 l 233 1243 q 417 1172 299 1215 q 599 1243 489 1199 l 631 1233 z "},"ť":{"ha":710,"x_min":8,"x_max":703,"o":"m 232 182 l 232 554 q 183 525 194 554 q 163 404 171 496 l 8 396 q 17 696 15 567 l 32 713 l 175 700 l 538 700 l 682 713 l 699 696 l 703 404 l 547 396 q 529 527 539 500 q 483 554 519 554 q 479 182 479 388 q 492 124 479 140 q 539 107 506 107 l 596 111 l 603 104 l 592 -7 q 350 0 417 0 l 108 -11 l 117 99 q 209 121 186 104 q 232 182 232 138 m 572 1033 l 622 947 q 376 756 507 864 l 339 756 q 94 947 210 863 l 143 1033 l 175 1043 q 358 972 240 1015 q 540 1043 431 999 l 572 1033 z "},"Ŧ":{"ha":824,"x_min":0,"x_max":824,"o":"m 274 233 l 274 350 l 167 349 l 151 363 l 163 443 q 274 442 215 442 l 274 731 q 200 695 218 731 q 172 542 182 660 l 0 531 q 11 894 10 736 l 29 914 l 194 899 l 631 899 l 799 914 l 817 894 l 824 542 l 651 531 q 625 697 640 664 q 556 731 610 731 q 549 443 550 578 l 649 447 l 669 426 l 663 350 l 549 350 l 549 222 q 565 148 549 169 q 621 126 581 126 l 692 131 l 699 122 l 686 -8 q 404 0 483 0 l 125 -12 l 136 115 q 247 145 221 122 q 274 233 274 168 z "},"ŧ":{"ha":710,"x_min":8,"x_max":703,"o":"m 232 182 l 232 232 l 108 231 l 93 244 l 104 325 q 232 324 165 324 l 232 554 q 183 525 194 554 q 163 404 171 496 l 8 396 q 17 696 15 567 l 32 713 l 175 700 l 538 700 l 682 713 l 699 696 l 703 404 l 547 396 q 529 527 539 500 q 483 554 519 554 q 479 325 479 447 l 590 329 l 611 308 l 604 232 l 479 232 l 479 182 q 492 124 479 140 q 539 107 506 107 l 596 111 l 603 104 l 592 -7 q 350 0 417 0 l 108 -11 l 117 99 q 209 121 186 104 q 232 182 232 138 z "},"Ũ":{"ha":871,"x_min":0,"x_max":872,"o":"m 357 306 q 385 199 357 238 q 465 160 413 160 q 540 189 517 160 q 564 282 564 218 l 563 701 q 555 760 563 744 q 526 776 547 776 l 494 774 l 490 779 l 506 903 q 672 899 621 899 l 872 903 l 861 778 q 806 753 818 764 q 794 717 794 742 l 794 325 q 701 69 794 156 q 426 -17 607 -17 q 164 53 246 -17 q 82 276 82 124 l 82 701 q 74 762 82 747 q 43 776 67 776 l 3 774 l 0 779 l 14 903 q 260 899 150 899 l 446 904 l 432 775 q 381 756 396 772 q 365 707 367 740 l 357 306 m 322 1235 q 432 1211 347 1235 q 533 1188 517 1188 q 614 1247 565 1188 l 629 1268 l 651 1268 l 733 1193 l 733 1171 l 621 1011 l 597 1006 q 488 1029 572 1006 q 385 1053 403 1053 q 344 1033 368 1053 q 290 972 321 1013 l 268 972 l 186 1047 l 186 1069 l 299 1229 l 322 1235 z "},"ũ":{"ha":733,"x_min":4,"x_max":731,"o":"m 336 163 q 346 150 336 163 q 392 138 356 138 q 444 156 428 138 q 461 217 461 174 l 460 538 q 432 596 461 596 l 408 594 l 404 599 l 418 703 q 557 700 515 700 l 731 703 l 721 596 q 678 576 688 585 q 668 551 668 568 l 668 257 q 358 -12 668 -12 q 138 40 206 -12 q 71 213 71 93 l 71 538 q 65 585 71 574 q 39 596 58 596 l 7 594 l 4 599 l 17 703 q 231 700 133 700 l 389 704 l 376 593 q 324 543 326 592 l 317 232 q 336 163 317 189 m 253 1035 q 363 1011 278 1035 q 464 988 447 988 q 544 1047 496 988 l 560 1068 l 582 1068 l 664 993 l 664 971 l 551 811 l 528 806 q 418 829 503 806 q 316 853 333 853 q 275 833 299 853 q 221 772 251 813 l 199 772 l 117 847 l 117 869 l 229 1029 l 253 1035 z "},"Ū":{"ha":871,"x_min":0,"x_max":872,"o":"m 357 306 q 385 199 357 238 q 465 160 413 160 q 540 189 517 160 q 564 282 564 218 l 563 701 q 555 760 563 744 q 526 776 547 776 l 494 774 l 490 779 l 506 903 q 672 899 621 899 l 872 903 l 861 778 q 806 753 818 764 q 794 717 794 742 l 794 325 q 701 69 794 156 q 426 -17 607 -17 q 164 53 246 -17 q 82 276 82 124 l 82 701 q 74 762 82 747 q 43 776 67 776 l 3 774 l 0 779 l 14 903 q 260 899 150 899 l 446 904 l 432 775 q 381 756 396 772 q 365 707 367 740 l 357 306 m 667 1143 l 682 1118 l 657 967 l 276 964 l 254 985 l 281 1136 q 494 1135 413 1135 l 667 1143 z "},"ū":{"ha":733,"x_min":4,"x_max":731,"o":"m 336 163 q 346 150 336 163 q 392 138 356 138 q 444 156 428 138 q 461 217 461 174 l 460 538 q 432 596 461 596 l 408 594 l 404 599 l 418 703 q 557 700 515 700 l 731 703 l 721 596 q 678 576 688 585 q 668 551 668 568 l 668 257 q 358 -12 668 -12 q 138 40 206 -12 q 71 213 71 93 l 71 538 q 65 585 71 574 q 39 596 58 596 l 7 594 l 4 599 l 17 703 q 231 700 133 700 l 389 704 l 376 593 q 324 543 326 592 l 317 232 q 336 163 317 189 m 594 943 l 610 918 l 585 767 l 204 764 l 182 785 l 208 936 q 422 935 340 935 l 594 943 z "},"Ŭ":{"ha":871,"x_min":0,"x_max":872,"o":"m 357 306 q 385 199 357 238 q 465 160 413 160 q 540 189 517 160 q 564 282 564 218 l 563 701 q 555 760 563 744 q 526 776 547 776 l 494 774 l 490 779 l 506 903 q 672 899 621 899 l 872 903 l 861 778 q 806 753 818 764 q 794 717 794 742 l 794 325 q 701 69 794 156 q 426 -17 607 -17 q 164 53 246 -17 q 82 276 82 124 l 82 701 q 74 762 82 747 q 43 776 67 776 l 3 774 l 0 779 l 14 903 q 260 899 150 899 l 446 904 l 432 775 q 381 756 396 772 q 365 707 367 740 l 357 306 m 308 1271 q 463 1174 350 1174 q 617 1271 575 1174 l 654 1261 l 710 1175 q 623 1040 685 1094 q 463 986 561 986 q 302 1040 364 986 q 215 1175 240 1094 l 271 1261 l 308 1271 z "},"ŭ":{"ha":733,"x_min":4,"x_max":731,"o":"m 336 163 q 346 150 336 163 q 392 138 356 138 q 444 156 428 138 q 461 217 461 174 l 460 538 q 432 596 461 596 l 408 594 l 404 599 l 418 703 q 557 700 515 700 l 731 703 l 721 596 q 678 576 688 585 q 668 551 668 568 l 668 257 q 358 -12 668 -12 q 138 40 206 -12 q 71 213 71 93 l 71 538 q 65 585 71 574 q 39 596 58 596 l 7 594 l 4 599 l 17 703 q 231 700 133 700 l 389 704 l 376 593 q 324 543 326 592 l 317 232 q 336 163 317 189 m 225 1057 q 379 960 267 960 q 533 1057 492 960 l 571 1047 l 626 961 q 540 826 601 881 q 379 772 478 772 q 219 826 281 772 q 132 961 157 881 l 188 1047 l 225 1057 z "},"Ů":{"ha":871,"x_min":0,"x_max":872,"o":"m 357 306 q 385 199 357 238 q 465 160 413 160 q 540 189 517 160 q 564 282 564 218 l 563 701 q 555 760 563 744 q 526 776 547 776 l 494 774 l 490 779 l 506 903 q 672 899 621 899 l 872 903 l 861 778 q 806 753 818 764 q 794 717 794 742 l 794 325 q 701 69 794 156 q 426 -17 607 -17 q 164 53 246 -17 q 82 276 82 124 l 82 701 q 74 762 82 747 q 43 776 67 776 l 3 774 l 0 779 l 14 903 q 260 899 150 899 l 446 904 l 432 775 q 381 756 396 772 q 365 707 367 740 l 357 306 m 465 1044 q 514 1090 514 1044 q 463 1139 514 1139 q 411 1094 411 1139 q 428 1056 411 1068 q 465 1044 444 1044 m 610 1100 q 610 1069 610 1100 q 568 993 610 1039 q 458 947 526 947 q 352 986 389 947 q 315 1090 315 1025 q 358 1197 315 1156 q 470 1239 400 1239 q 575 1200 540 1239 q 610 1100 610 1161 z "},"ů":{"ha":733,"x_min":4,"x_max":731,"o":"m 336 163 q 346 150 336 163 q 392 138 356 138 q 444 156 428 138 q 461 217 461 174 l 460 538 q 432 596 461 596 l 408 594 l 404 599 l 418 703 q 557 700 515 700 l 731 703 l 721 596 q 678 576 688 585 q 668 551 668 568 l 668 257 q 358 -12 668 -12 q 138 40 206 -12 q 71 213 71 93 l 71 538 q 65 585 71 574 q 39 596 58 596 l 7 594 l 4 599 l 17 703 q 231 700 133 700 l 389 704 l 376 593 q 324 543 326 592 l 317 232 q 336 163 317 189 m 394 844 q 443 890 443 844 q 392 939 443 939 q 340 894 340 939 q 357 856 340 868 q 394 844 374 844 m 539 900 q 539 869 539 900 q 497 793 539 839 q 387 747 456 747 q 281 786 318 747 q 244 890 244 825 q 286 997 244 956 q 399 1039 328 1039 q 504 1000 469 1039 q 539 900 539 961 z "},"Ű":{"ha":871,"x_min":0,"x_max":872,"o":"m 357 306 q 385 199 357 238 q 465 160 413 160 q 540 189 517 160 q 564 282 564 218 l 563 701 q 555 760 563 744 q 526 776 547 776 l 494 774 l 490 779 l 506 903 q 672 899 621 899 l 872 903 l 861 778 q 806 753 818 764 q 794 717 794 742 l 794 325 q 701 69 794 156 q 426 -17 607 -17 q 164 53 246 -17 q 82 276 82 124 l 82 701 q 74 762 82 747 q 43 776 67 776 l 3 774 l 0 779 l 14 903 q 260 899 150 899 l 446 904 l 432 775 q 381 756 396 772 q 365 707 367 740 l 357 306 m 529 1110 l 529 1089 q 289 936 406 1015 l 263 943 l 210 1010 l 417 1221 l 438 1222 l 529 1110 m 804 1110 l 804 1089 q 564 936 681 1015 l 538 943 l 485 1010 l 692 1221 l 713 1222 l 804 1110 z "},"ű":{"ha":733,"x_min":4,"x_max":731,"o":"m 336 163 q 346 150 336 163 q 392 138 356 138 q 444 156 428 138 q 461 217 461 174 l 460 538 q 432 596 461 596 l 408 594 l 404 599 l 418 703 q 557 700 515 700 l 731 703 l 721 596 q 678 576 688 585 q 668 551 668 568 l 668 257 q 358 -12 668 -12 q 138 40 206 -12 q 71 213 71 93 l 71 538 q 65 585 71 574 q 39 596 58 596 l 7 594 l 4 599 l 17 703 q 231 700 133 700 l 389 704 l 376 593 q 324 543 326 592 l 317 232 q 336 163 317 189 m 443 910 l 443 889 q 203 736 319 815 l 176 743 l 124 810 l 331 1021 l 351 1022 l 443 910 m 718 910 l 718 889 q 478 736 594 815 l 451 743 l 399 810 l 606 1021 l 626 1022 l 718 910 z "},"Ų":{"ha":871,"x_min":0,"x_max":872,"o":"m 603 -336 q 472 -303 519 -336 q 424 -218 424 -269 q 449 -121 424 -167 q 535 -7 474 -75 q 424 -17 488 -17 q 164 53 246 -17 q 82 276 82 124 l 82 701 q 74 762 82 747 q 43 776 67 776 l 3 774 l 0 779 l 14 903 q 260 899 150 899 l 446 904 l 432 775 q 382 756 397 772 q 365 707 367 740 l 357 306 q 385 199 357 238 q 465 160 414 160 q 540 189 517 160 q 564 282 564 218 l 563 701 q 555 760 563 744 q 526 776 547 776 l 494 774 l 490 779 l 506 903 q 672 899 621 899 l 872 903 l 861 778 q 806 753 818 764 q 794 717 794 742 l 794 325 q 704 66 794 182 q 589 -90 614 -50 q 564 -159 564 -131 q 579 -203 564 -187 q 617 -218 594 -218 q 713 -183 654 -218 l 747 -237 q 603 -336 669 -311 z "},"ų":{"ha":735,"x_min":4,"x_max":731,"o":"m 504 -336 q 373 -303 421 -336 q 325 -219 325 -269 q 351 -124 325 -169 q 439 -8 376 -78 q 358 -12 401 -12 q 139 40 207 -12 q 71 213 71 93 l 71 539 q 65 586 71 575 q 40 597 58 597 l 7 594 l 4 599 l 17 703 q 231 700 133 700 l 389 703 l 376 594 q 324 543 324 590 l 317 232 q 337 163 317 188 q 393 138 357 138 q 445 156 429 138 q 461 217 461 174 l 461 539 q 455 584 461 571 q 432 597 449 597 l 408 594 l 406 599 l 418 703 q 558 700 515 700 l 731 703 l 721 597 q 677 577 686 585 q 668 551 668 569 l 668 257 q 600 61 668 144 q 492 -87 519 -43 q 465 -160 465 -132 q 481 -203 465 -187 q 518 -218 496 -218 q 614 -183 556 -218 l 649 -237 q 504 -336 571 -311 z "},"Ŵ":{"ha":1386,"x_min":-7,"x_max":1394,"o":"m 460 233 q 569 735 569 676 q 555 769 569 761 q 492 778 540 778 l 482 792 l 494 901 q 719 899 638 899 l 974 906 l 985 893 l 975 776 q 901 762 913 768 q 890 731 890 756 q 961 233 890 672 l 990 233 q 1100 746 1100 700 q 1092 769 1100 764 q 1058 774 1085 774 l 1024 774 l 1014 788 l 1025 903 q 1231 899 1150 899 l 1394 900 l 1385 779 q 1352 758 1363 772 q 1329 703 1342 743 l 1138 6 l 769 -18 l 708 378 l 689 378 l 601 6 l 233 -18 q 76 685 113 535 q 3 778 54 771 l -7 792 l 6 901 q 188 899 117 899 l 443 906 l 453 893 l 444 776 q 370 762 382 768 q 358 731 358 756 q 431 233 358 681 l 460 233 m 742 1261 q 775 1238 742 1265 q 986 1069 914 1125 l 938 983 l 906 974 q 722 1044 840 1001 q 540 974 650 1018 l 508 983 l 458 1069 q 704 1261 574 1153 l 742 1261 z "},"ŵ":{"ha":1181,"x_min":4,"x_max":1178,"o":"m 369 196 l 396 196 q 435 364 403 218 q 474 546 468 510 l 481 569 q 472 593 482 589 q 446 597 463 597 q 421 597 429 597 l 413 610 l 424 703 q 617 700 546 700 l 835 704 l 844 694 l 836 594 q 777 584 785 588 q 769 561 769 581 q 817 196 769 521 l 842 196 q 888 397 853 240 q 922 570 922 553 q 917 590 922 588 q 893 593 913 593 l 868 593 l 860 606 l 868 703 q 1040 700 975 700 l 1178 701 l 1171 599 q 1147 581 1154 593 q 1128 539 1139 569 l 979 4 l 643 -14 q 604 267 625 99 l 588 267 l 526 4 l 190 -14 q 74 499 90 438 q 45 578 57 561 q 14 597 33 594 l 4 610 l 15 703 q 169 700 107 700 l 388 704 l 396 694 l 389 594 q 329 584 338 589 q 321 545 321 579 q 369 196 321 511 m 636 1061 q 669 1038 636 1065 q 881 869 808 925 l 832 783 l 800 774 q 617 844 735 801 q 435 774 544 818 l 403 783 l 353 869 q 599 1061 468 953 l 636 1061 z "},"Ŷ":{"ha":921,"x_min":0,"x_max":921,"o":"m 413 743 q 490 538 413 732 l 510 538 l 567 696 q 585 758 585 736 q 532 779 585 779 l 528 788 l 539 897 l 758 897 l 915 903 l 921 892 l 910 771 q 756 596 817 718 l 629 343 q 608 230 608 294 q 624 146 608 165 q 678 126 639 126 l 749 131 l 756 122 l 743 -8 q 456 0 536 0 l 176 -12 l 188 115 q 303 142 276 121 q 331 225 331 164 l 331 247 q 292 372 331 300 l 143 649 q 6 765 101 725 l 0 774 l 14 900 q 222 897 176 897 l 472 907 l 482 892 l 469 778 q 413 743 413 778 m 528 1261 q 561 1238 528 1265 q 772 1069 700 1125 l 724 983 l 692 974 q 508 1044 626 1001 q 326 974 436 1018 l 294 983 l 244 1069 q 490 1261 360 1153 l 528 1261 z "},"ŷ":{"ha":803,"x_min":13,"x_max":790,"o":"m 463 697 l 651 699 l 786 703 l 790 694 l 781 590 q 711 532 746 569 q 656 456 676 494 l 553 258 q 536 179 536 221 q 549 122 536 138 q 594 107 561 107 l 654 111 l 660 104 l 650 -7 q 399 0 468 0 l 154 -10 l 163 99 q 262 118 238 103 q 286 179 286 133 l 286 190 q 254 283 286 229 l 128 501 q 18 586 99 544 l 13 593 l 25 701 q 204 699 168 699 l 417 707 l 426 693 l 414 596 q 407 596 410 596 q 372 571 372 596 q 396 508 372 560 q 429 433 419 457 l 446 433 l 482 536 q 497 582 497 567 q 464 597 497 597 q 457 597 460 597 l 453 604 l 463 697 m 463 1061 q 497 1038 463 1065 q 707 869 635 925 l 658 783 l 626 774 q 443 844 561 801 q 261 774 371 818 l 229 783 l 179 869 q 425 1061 294 953 l 463 1061 z "},"Ÿ":{"ha":921,"x_min":0,"x_max":921,"o":"m 413 743 q 490 538 413 732 l 510 538 l 567 696 q 585 758 585 736 q 532 779 585 779 l 528 788 l 539 897 l 758 897 l 915 903 l 921 892 l 910 771 q 756 596 817 718 l 629 343 q 608 230 608 294 q 624 146 608 165 q 678 126 639 126 l 749 131 l 756 122 l 743 -8 q 456 0 536 0 l 176 -12 l 188 115 q 303 142 276 121 q 331 225 331 164 l 331 247 q 292 372 331 300 l 143 649 q 6 765 101 725 l 0 774 l 14 900 q 222 897 176 897 l 472 907 l 482 892 l 469 778 q 413 743 413 778 m 636 951 q 525 1063 525 951 q 557 1151 525 1118 q 643 1183 589 1183 q 726 1154 697 1183 q 754 1071 754 1125 q 722 984 754 1017 q 636 951 690 951 m 368 951 q 258 1063 258 951 q 290 1151 258 1118 q 376 1183 322 1183 q 459 1154 431 1183 q 488 1071 488 1125 q 456 984 488 1017 q 368 951 424 951 z "},"Ź":{"ha":825,"x_min":4,"x_max":829,"o":"m 793 26 l 764 -4 l 168 4 l 54 -10 l 4 71 l 457 753 l 350 739 q 247 697 269 724 q 222 581 225 669 l 47 568 q 68 901 64 772 l 83 917 l 335 901 l 794 901 l 829 826 q 367 151 640 574 l 513 172 q 610 228 579 185 q 650 369 640 272 l 825 382 q 793 26 796 165 m 722 1058 l 713 1036 q 360 960 532 1003 l 333 978 l 304 1076 q 650 1215 447 1129 l 672 1208 l 722 1058 z "},"ź":{"ha":708,"x_min":8,"x_max":710,"o":"m 679 22 l 654 -3 l 150 3 l 53 -8 l 8 60 l 376 575 l 303 564 q 222 530 238 549 q 204 444 206 511 l 46 435 q 63 703 60 601 l 76 714 l 285 703 l 678 704 l 710 640 q 333 131 533 425 l 439 149 q 519 192 494 160 q 549 297 543 225 l 706 308 q 679 22 682 131 m 632 858 l 622 836 q 269 760 442 803 l 243 778 l 214 876 q 560 1015 357 929 l 582 1008 l 632 858 z "},"Ż":{"ha":825,"x_min":4,"x_max":829,"o":"m 793 26 l 764 -4 l 168 4 l 54 -10 l 4 71 l 457 753 l 350 739 q 247 697 269 724 q 222 581 225 669 l 47 568 q 68 901 64 772 l 83 917 l 335 901 l 794 901 l 829 826 q 367 151 640 574 l 513 172 q 610 228 579 185 q 650 369 640 272 l 825 382 q 793 26 796 165 m 599 1091 q 599 1059 599 1091 q 561 988 599 1026 q 459 949 524 949 q 361 983 394 949 q 328 1082 328 1017 q 366 1186 328 1147 q 467 1225 404 1225 q 565 1190 531 1225 q 599 1091 599 1156 z "},"ż":{"ha":708,"x_min":8,"x_max":710,"o":"m 679 22 l 654 -3 l 150 3 l 53 -8 l 8 60 l 376 575 l 303 564 q 222 530 238 549 q 204 444 206 511 l 46 435 q 63 703 60 601 l 76 714 l 285 703 l 678 704 l 710 640 q 333 131 533 425 l 439 149 q 519 192 494 160 q 549 297 543 225 l 706 308 q 679 22 682 131 m 536 891 q 536 859 536 891 q 499 788 536 826 q 397 749 461 749 q 299 783 332 749 q 265 882 265 817 q 303 986 265 947 q 405 1025 342 1025 q 502 990 468 1025 q 536 891 536 956 z "},"Ž":{"ha":825,"x_min":4,"x_max":829,"o":"m 793 26 l 764 -4 l 168 4 l 54 -10 l 4 71 l 457 753 l 350 739 q 247 697 269 724 q 222 581 225 669 l 47 568 q 68 901 64 772 l 83 917 l 335 901 l 794 901 l 829 826 q 367 151 640 574 l 513 172 q 610 228 579 185 q 650 369 640 272 l 825 382 q 793 26 796 165 m 674 1233 l 724 1147 q 478 956 608 1064 l 440 956 q 196 1147 311 1063 l 244 1233 l 276 1243 q 460 1172 342 1215 q 642 1243 532 1199 l 674 1233 z "},"ž":{"ha":708,"x_min":8,"x_max":710,"o":"m 679 22 l 654 -3 l 150 3 l 53 -8 l 8 60 l 376 575 l 303 564 q 222 530 238 549 q 204 444 206 511 l 46 435 q 63 703 60 601 l 76 714 l 285 703 l 678 704 l 710 640 q 333 131 533 425 l 439 149 q 519 192 494 160 q 549 297 543 225 l 706 308 q 679 22 682 131 m 611 1033 l 661 947 q 415 756 546 864 l 378 756 q 133 947 249 863 l 182 1033 l 214 1043 q 397 972 279 1015 q 579 1043 469 999 l 611 1033 z "},"ƒ":{"ha":629,"x_min":-33,"x_max":707,"o":"m 200 64 q 199 349 200 64 q 172 394 196 382 q 81 406 149 406 l 76 414 l 88 496 l 203 514 l 203 533 q 248 658 203 590 q 388 778 293 725 q 576 831 482 831 q 667 821 628 831 q 707 799 707 811 q 686 715 707 778 q 651 629 665 651 l 626 625 q 521 681 561 681 q 463 656 481 681 q 440 572 444 631 l 435 513 l 593 513 l 600 501 l 586 406 l 428 406 l 415 138 q 362 -58 408 24 q 247 -183 315 -139 q 101 -228 179 -228 q 11 -205 56 -228 q -33 -156 -33 -182 q -12 -74 -33 -131 q 28 7 8 -17 l 53 7 q 81 -56 58 -32 q 136 -81 103 -81 q 185 -48 169 -81 q 200 64 200 -15 z "},"Ǻ":{"ha":939,"x_min":-7,"x_max":946,"o":"m 549 247 q 447 250 474 250 q 331 243 421 250 q 313 149 313 164 q 320 128 313 133 q 356 124 328 124 l 392 124 l 403 110 l 392 -6 q 178 -1 263 -1 l -7 -3 l 3 118 q 74 194 53 131 l 294 892 l 660 914 l 681 897 q 854 213 814 363 q 885 144 867 165 q 936 119 904 122 l 946 106 l 935 -4 q 739 -1 815 -1 l 474 -8 l 463 4 l 471 121 q 547 135 535 128 q 560 158 560 142 q 549 247 560 175 m 446 418 q 518 421 468 418 l 471 664 l 440 664 l 375 418 l 446 418 m 429 1074 q 475 1029 429 1029 q 521 1069 521 1029 q 475 1114 521 1114 q 429 1074 429 1114 m 607 1078 q 607 1051 607 1078 q 569 983 607 1024 q 471 942 532 942 q 376 976 410 942 q 343 1069 343 1011 q 381 1166 343 1128 q 481 1204 418 1204 q 576 1169 544 1204 q 607 1078 607 1133 m 661 1271 l 653 1250 q 335 1182 490 1221 l 311 1199 l 285 1286 l 596 1411 l 617 1406 l 661 1271 z "},"ǻ":{"ha":814,"x_min":6,"x_max":808,"o":"m 472 140 l 468 182 q 383 183 436 183 l 296 179 q 286 124 286 138 q 290 108 286 111 q 317 106 294 106 l 342 106 l 353 93 l 343 -4 q 163 -1 232 -1 l 6 -1 l 14 100 q 68 154 53 111 l 246 694 l 581 713 l 599 697 q 733 186 711 267 q 800 101 756 106 l 808 89 l 799 -3 q 632 -1 697 -1 l 404 -6 l 394 4 l 401 104 q 469 119 464 111 q 472 140 472 125 m 536 878 q 536 851 536 878 q 499 783 536 824 q 400 742 461 742 q 306 776 339 742 q 272 869 272 811 q 310 966 272 928 q 410 1004 347 1004 q 505 969 474 1004 q 536 878 536 933 m 585 1071 l 576 1050 q 258 982 414 1021 l 235 999 l 208 1086 l 519 1211 l 540 1206 l 585 1071 m 388 331 q 442 332 421 331 l 408 504 l 382 504 l 335 331 l 388 331 m 358 874 q 404 829 358 829 q 450 869 450 829 q 404 914 450 914 q 358 874 358 914 z "},"Ǽ":{"ha":1303,"x_min":3,"x_max":1274,"o":"m 471 121 q 547 138 529 126 q 565 178 565 150 q 557 304 565 210 l 453 286 l 346 254 q 315 141 315 153 q 327 126 315 129 q 392 124 339 124 l 401 110 l 392 -6 q 118 -1 383 -1 l 7 -3 l 3 118 q 82 194 53 131 l 313 738 q 276 776 307 776 l 240 774 l 224 793 l 236 903 q 766 900 463 899 q 1176 915 1069 901 l 1194 893 q 1163 617 1169 747 l 971 604 q 974 656 974 638 q 948 717 974 703 q 866 732 922 732 q 800 725 810 732 q 790 699 790 718 l 817 517 l 918 535 l 1058 571 l 1082 547 l 1065 386 l 932 369 l 842 353 l 857 251 q 933 158 871 158 q 1040 185 1014 158 q 1079 307 1067 213 l 1257 319 l 1274 299 q 1235 13 1249 164 l 1214 -10 q 768 0 983 0 l 710 0 l 472 -8 l 463 4 l 471 121 m 414 450 l 474 456 l 543 468 l 524 664 l 493 664 l 414 450 m 942 1158 l 939 1135 q 646 972 789 1057 l 615 982 l 558 1067 l 818 1299 l 842 1299 l 942 1158 z "},"ǽ":{"ha":1121,"x_min":14,"x_max":1088,"o":"m 257 564 q 228 596 254 596 l 199 594 l 183 611 l 194 703 q 1008 713 826 694 l 1025 694 q 999 472 1004 575 l 825 463 q 828 511 828 488 q 807 546 828 535 q 745 557 786 557 q 697 552 704 557 q 690 532 690 547 l 710 410 l 788 425 l 906 456 l 926 435 l 913 297 l 801 282 l 733 268 l 743 208 q 801 136 754 136 q 881 158 861 136 q 911 249 901 179 l 1072 260 l 1088 242 q 1054 11 1067 133 l 1036 -7 q 658 0 844 0 l 608 0 l 407 -6 l 399 4 l 407 104 q 466 117 451 108 q 481 149 481 126 l 481 176 l 476 225 l 393 210 l 307 183 l 292 118 q 298 107 292 108 q 325 106 304 106 l 354 106 l 356 93 l 347 -4 q 111 -1 342 -1 l 17 -1 l 14 103 q 79 154 58 113 l 257 564 m 822 958 l 819 935 q 526 772 669 857 l 496 782 l 439 867 l 699 1099 l 722 1099 l 822 958 m 367 353 l 410 357 l 464 367 l 450 504 l 424 504 l 367 353 z "},"Ǿ":{"ha":910,"x_min":21,"x_max":901,"o":"m 132 93 q 21 438 21 208 q 138 791 21 667 q 475 915 254 915 q 658 886 579 915 l 764 1044 l 899 969 l 901 951 l 794 793 q 889 460 889 682 q 771 110 889 238 q 435 -17 653 -17 q 271 7 344 -17 l 160 -162 l 28 -86 l 22 -72 l 132 93 m 339 467 q 339 389 339 467 q 366 235 339 311 q 457 158 393 158 q 546 210 521 158 q 571 419 571 263 q 543 650 571 575 q 451 725 515 725 q 363 674 388 725 q 339 467 339 624 m 689 1076 l 679 1054 q 326 978 499 1021 l 300 996 l 271 1094 q 617 1233 414 1147 l 639 1226 l 689 1076 z "},"ǿ":{"ha":769,"x_min":-6,"x_max":776,"o":"m 24 340 q 400 713 24 713 q 540 694 475 713 l 642 832 l 775 756 l 776 740 l 678 607 q 746 367 746 522 q 649 85 746 182 q 369 -12 553 -12 q 235 4 293 -12 l 129 -135 l -1 -56 l -6 -44 l 99 90 q 24 340 24 181 m 611 892 l 601 869 q 249 793 421 836 l 222 811 l 193 910 q 539 1049 336 963 l 561 1042 l 611 892 m 310 365 q 310 305 310 365 q 326 191 310 244 q 386 138 342 138 q 445 171 431 138 q 460 325 460 204 q 444 498 460 446 q 383 550 428 550 q 324 518 338 550 q 310 365 310 486 z "},"Ș":{"ha":765,"x_min":110,"x_max":835,"o":"m 400 -17 q 260 -2 328 -17 q 158 28 192 13 l 126 43 l 110 68 q 139 297 135 206 l 314 310 q 436 168 314 168 q 503 183 479 168 q 528 221 528 199 q 518 258 528 243 q 485 286 508 272 q 444 309 463 300 q 386 335 425 318 q 329 360 347 351 q 174 462 232 403 q 117 618 117 521 q 234 834 117 753 q 544 915 351 915 q 678 906 613 915 q 810 876 744 896 l 826 846 q 789 604 800 729 l 628 593 l 611 604 l 611 626 q 510 724 611 724 q 447 706 471 724 q 422 661 422 689 q 431 631 422 642 q 447 613 440 619 q 465 599 453 606 q 486 587 478 592 q 511 574 494 582 q 538 563 528 567 q 567 550 547 558 q 618 528 588 542 q 683 497 649 515 q 757 447 718 478 q 835 274 835 383 q 719 61 835 139 q 400 -17 603 -17 m 217 -108 q 353 -47 296 -47 q 444 -85 411 -47 q 476 -192 476 -124 q 414 -340 476 -261 q 244 -479 351 -418 l 164 -415 l 164 -381 q 228 -311 204 -351 q 253 -222 253 -271 q 213 -128 253 -172 l 217 -108 z "},"ș":{"ha":658,"x_min":18,"x_max":636,"o":"m 267 -12 q 147 -1 206 -12 q 33 35 89 11 l 18 56 q 44 232 40 167 l 201 243 q 226 171 201 196 q 306 146 251 146 q 361 178 361 146 q 328 221 361 203 q 254 253 293 238 q 75 349 126 299 q 24 476 24 399 q 124 649 24 585 q 390 713 224 713 q 615 682 504 713 l 631 656 q 599 467 608 564 l 454 457 l 439 467 l 439 478 q 418 530 439 511 q 365 549 397 549 q 315 538 333 549 q 297 515 297 528 q 301 494 297 501 q 313 479 304 486 q 330 467 322 472 q 353 455 338 461 q 380 444 369 449 q 411 433 390 440 q 458 417 432 426 q 512 392 483 407 q 572 353 540 378 q 636 215 636 306 q 538 48 636 108 q 267 -12 440 -12 m 178 -108 q 315 -47 257 -47 q 405 -85 372 -47 q 438 -192 438 -124 q 375 -340 438 -261 q 206 -479 313 -418 l 125 -415 l 125 -381 q 190 -311 165 -351 q 214 -222 214 -271 q 174 -128 214 -172 l 178 -108 z "},"Ț":{"ha":824,"x_min":0,"x_max":824,"o":"m 274 233 l 274 731 q 200 695 218 731 q 172 542 182 660 l 0 531 q 11 894 10 736 l 29 914 l 194 899 l 631 899 l 799 914 l 817 894 l 824 542 l 651 531 q 625 697 640 664 q 556 731 610 731 q 549 222 549 501 q 565 148 549 169 q 621 126 581 126 l 692 131 l 699 122 l 686 -8 q 404 0 483 0 l 125 -12 l 136 115 q 247 145 221 122 q 274 233 274 168 m 271 -108 q 408 -47 350 -47 q 498 -85 465 -47 q 531 -192 531 -124 q 468 -340 531 -261 q 299 -479 406 -418 l 218 -415 l 218 -381 q 283 -311 258 -351 q 307 -222 307 -271 q 267 -128 307 -172 l 271 -108 z "},"ț":{"ha":710,"x_min":8,"x_max":703,"o":"m 232 182 l 232 554 q 183 525 194 554 q 163 404 171 496 l 8 396 q 17 696 15 567 l 32 713 l 175 700 l 538 700 l 682 713 l 699 696 l 703 404 l 547 396 q 529 527 539 500 q 483 554 519 554 q 479 182 479 388 q 492 124 479 140 q 539 107 506 107 l 596 111 l 603 104 l 592 -7 q 350 0 417 0 l 108 -11 l 117 99 q 209 121 186 104 q 232 182 232 138 m 225 -108 q 362 -47 304 -47 q 452 -85 419 -47 q 485 -192 485 -124 q 422 -340 485 -261 q 253 -479 360 -418 l 172 -415 l 172 -381 q 237 -311 213 -351 q 261 -222 261 -271 q 221 -128 261 -172 l 225 -108 z "},"ȷ":{"ha":413,"x_min":0,"x_max":414,"o":"m 94 146 l 94 542 q 88 586 94 575 q 58 597 81 597 l 18 594 l 7 613 l 17 700 l 183 701 l 414 708 l 404 599 q 363 582 371 592 q 351 543 354 572 q 338 86 338 346 q 269 -81 338 -17 q 49 -181 200 -146 l 0 -126 l 1 -108 q 76 -8 58 -56 q 94 146 94 40 z "},"ˆ":{"ha":553,"x_min":25,"x_max":525,"o":"m 89 753 l 25 839 q 257 1056 136 938 l 294 1056 q 525 839 417 935 l 463 753 l 431 743 q 275 839 378 779 q 121 743 181 785 l 89 753 z "},"ˇ":{"ha":553,"x_min":25,"x_max":525,"o":"m 25 932 l 88 1018 l 119 1028 q 275 932 172 992 q 429 1028 369 986 l 461 1018 l 525 932 q 293 715 414 833 l 256 715 q 25 932 133 836 z "},"˘":{"ha":553,"x_min":29,"x_max":524,"o":"m 122 1028 q 276 931 164 931 q 431 1028 389 931 l 468 1018 l 524 932 q 437 797 499 851 q 276 743 375 743 q 116 797 178 743 q 29 932 54 851 l 85 1018 l 122 1028 z "},"˙":{"ha":553,"x_min":140,"x_max":411,"o":"m 411 897 q 411 864 411 897 q 374 793 411 832 q 272 754 336 754 q 174 788 207 754 q 140 888 140 822 q 178 992 140 953 q 280 1031 217 1031 q 377 996 343 1031 q 411 897 411 961 z "},"˚":{"ha":553,"x_min":129,"x_max":424,"o":"m 279 850 q 328 896 328 850 q 276 944 328 944 q 225 900 225 944 q 242 862 225 874 q 279 850 258 850 m 424 906 q 424 875 424 906 q 382 799 424 844 q 272 753 340 753 q 166 792 203 753 q 129 896 129 831 q 172 1003 129 961 q 284 1044 214 1044 q 389 1006 354 1044 q 424 906 424 967 z "},"˛":{"ha":553,"x_min":107,"x_max":431,"o":"m 286 -336 q 155 -303 203 -336 q 107 -215 107 -269 q 146 -101 107 -160 q 286 58 185 -43 l 379 58 q 274 -87 300 -44 q 247 -159 247 -131 q 263 -203 247 -187 q 300 -218 278 -218 q 396 -183 338 -218 l 431 -237 q 286 -336 353 -311 z "},"˜":{"ha":553,"x_min":3,"x_max":550,"o":"m 139 992 q 249 968 164 992 q 350 944 333 944 q 431 1006 382 944 l 446 1025 l 468 1025 l 550 950 l 550 928 l 438 768 l 414 763 q 304 786 389 763 q 202 810 219 810 q 161 790 185 810 q 107 729 138 769 l 85 729 l 3 804 l 3 826 l 115 986 l 139 992 z "},"˝":{"ha":553,"x_min":29,"x_max":546,"o":"m 315 960 l 319 940 q 124 733 218 839 l 97 733 l 29 786 l 179 1040 l 199 1047 l 315 960 m 542 960 l 546 940 q 350 733 444 839 l 324 733 l 256 786 l 406 1040 l 425 1047 l 542 960 z "},"̣":{"ha":331,"x_min":29,"x_max":300,"o":"m 300 -180 q 300 -212 300 -180 q 263 -283 300 -244 q 160 -322 225 -322 q 63 -288 96 -322 q 29 -189 29 -254 q 67 -85 29 -124 q 169 -46 106 -46 q 266 -81 232 -46 q 300 -180 300 -115 z "},"Δ":{"ha":938,"x_min":17,"x_max":921,"o":"m 33 0 l 17 18 l 294 892 l 663 915 l 676 915 q 921 10 788 415 l 908 0 l 33 0 m 471 690 l 439 690 l 315 189 l 564 189 l 471 690 z "},"Ω":{"ha":1201,"x_min":7,"x_max":1194,"o":"m 621 103 q 702 224 683 158 q 721 446 721 289 q 698 664 721 603 q 612 725 675 725 q 519 676 549 725 q 489 515 489 628 q 510 246 489 335 q 586 103 531 157 l 550 -10 l 450 4 l 40 -4 l 11 26 l 7 342 l 153 354 q 183 208 158 254 q 261 156 208 163 l 335 143 q 171 510 171 301 q 294 802 171 689 q 610 915 417 915 q 922 815 804 915 q 1039 550 1039 714 q 860 142 1039 308 l 940 156 q 1013 206 988 163 q 1047 342 1038 249 l 1194 354 q 1190 26 1190 154 l 1161 -4 l 758 4 l 658 -10 l 621 103 z "},"π":{"ha":893,"x_min":-42,"x_max":879,"o":"m 719 285 q 738 206 719 224 q 822 188 757 188 l 843 154 q 770 57 843 131 q 674 -17 697 -17 q 529 27 575 -17 q 483 165 483 71 l 485 483 q 476 532 485 519 q 439 544 467 544 q 403 536 411 544 q 393 493 394 528 q 390 61 390 304 l 393 -71 l 378 -92 l 147 -131 l 133 -107 q 144 105 139 -90 q 150 400 150 300 q 144 513 150 500 q 121 526 138 526 q 22 481 92 526 l 8 479 l -42 575 l -39 588 l 86 692 l 107 701 q 374 694 196 701 q 594 688 553 688 q 871 701 688 688 l 879 692 l 857 558 l 847 549 q 758 535 779 549 q 728 466 736 521 q 719 285 719 411 z "},"Ẁ":{"ha":1386,"x_min":-7,"x_max":1394,"o":"m 460 233 q 569 735 569 676 q 555 769 569 761 q 492 778 540 778 l 482 792 l 494 901 q 719 899 638 899 l 974 906 l 985 893 l 975 776 q 901 762 913 768 q 890 731 890 756 q 961 233 890 672 l 990 233 q 1100 746 1100 700 q 1092 769 1100 764 q 1058 774 1085 774 l 1024 774 l 1014 788 l 1025 903 q 1231 899 1150 899 l 1394 900 l 1385 779 q 1352 758 1363 772 q 1329 703 1342 743 l 1138 6 l 769 -18 l 708 378 l 689 378 l 601 6 l 233 -18 q 76 685 113 535 q 3 778 54 771 l -7 792 l 6 901 q 188 899 117 899 l 443 906 l 453 893 l 444 776 q 370 762 382 768 q 358 731 358 756 q 431 233 358 681 l 460 233 m 475 1036 l 465 1058 l 515 1208 l 538 1215 q 883 1076 713 1140 l 854 978 l 828 960 q 475 1036 699 993 z "},"ẁ":{"ha":1181,"x_min":4,"x_max":1178,"o":"m 369 196 l 396 196 q 435 364 403 218 q 474 546 468 510 l 481 569 q 472 593 482 589 q 446 597 463 597 q 421 597 429 597 l 413 610 l 424 703 q 617 700 546 700 l 835 704 l 844 694 l 836 594 q 777 584 785 588 q 769 561 769 581 q 817 196 769 521 l 842 196 q 888 397 853 240 q 922 570 922 553 q 917 590 922 588 q 893 593 913 593 l 868 593 l 860 606 l 868 703 q 1040 700 975 700 l 1178 701 l 1171 599 q 1147 581 1154 593 q 1128 539 1139 569 l 979 4 l 643 -14 q 604 267 625 99 l 588 267 l 526 4 l 190 -14 q 74 499 90 438 q 45 578 57 561 q 14 597 33 594 l 4 610 l 15 703 q 169 700 107 700 l 388 704 l 396 694 l 389 594 q 329 584 338 589 q 321 545 321 579 q 369 196 321 511 m 382 836 l 372 858 l 422 1008 l 444 1015 q 790 876 619 940 l 761 778 l 735 760 q 382 836 606 793 z "},"Ẃ":{"ha":1386,"x_min":-7,"x_max":1394,"o":"m 460 233 q 569 735 569 676 q 555 769 569 761 q 492 778 540 778 l 482 792 l 494 901 q 719 899 638 899 l 974 906 l 985 893 l 975 776 q 901 762 913 768 q 890 731 890 756 q 961 233 890 672 l 990 233 q 1100 746 1100 700 q 1092 769 1100 764 q 1058 774 1085 774 l 1024 774 l 1014 788 l 1025 903 q 1231 899 1150 899 l 1394 900 l 1385 779 q 1352 758 1363 772 q 1329 703 1342 743 l 1138 6 l 769 -18 l 708 378 l 689 378 l 601 6 l 233 -18 q 76 685 113 535 q 3 778 54 771 l -7 792 l 6 901 q 188 899 117 899 l 443 906 l 453 893 l 444 776 q 370 762 382 768 q 358 731 358 756 q 431 233 358 681 l 460 233 m 982 1058 l 972 1036 q 619 960 792 1003 l 593 978 l 564 1076 q 910 1215 707 1129 l 932 1208 l 982 1058 z "},"ẃ":{"ha":1181,"x_min":4,"x_max":1178,"o":"m 369 196 l 396 196 q 435 364 403 218 q 474 546 468 510 l 481 569 q 472 593 482 589 q 446 597 463 597 q 421 597 429 597 l 413 610 l 424 703 q 617 700 546 700 l 835 704 l 844 694 l 836 594 q 777 584 785 588 q 769 561 769 581 q 817 196 769 521 l 842 196 q 888 397 853 240 q 922 570 922 553 q 917 590 922 588 q 893 593 913 593 l 868 593 l 860 606 l 868 703 q 1040 700 975 700 l 1178 701 l 1171 599 q 1147 581 1154 593 q 1128 539 1139 569 l 979 4 l 643 -14 q 604 267 625 99 l 588 267 l 526 4 l 190 -14 q 74 499 90 438 q 45 578 57 561 q 14 597 33 594 l 4 610 l 15 703 q 169 700 107 700 l 388 704 l 396 694 l 389 594 q 329 584 338 589 q 321 545 321 579 q 369 196 321 511 m 863 858 l 853 836 q 500 760 672 803 l 474 778 l 444 876 q 790 1015 588 929 l 813 1008 l 863 858 z "},"Ẅ":{"ha":1386,"x_min":-7,"x_max":1394,"o":"m 460 233 q 569 735 569 676 q 555 769 569 761 q 492 778 540 778 l 482 792 l 494 901 q 719 899 638 899 l 974 906 l 985 893 l 975 776 q 901 762 913 768 q 890 731 890 756 q 961 233 890 672 l 990 233 q 1100 746 1100 700 q 1092 769 1100 764 q 1058 774 1085 774 l 1024 774 l 1014 788 l 1025 903 q 1231 899 1150 899 l 1394 900 l 1385 779 q 1352 758 1363 772 q 1329 703 1342 743 l 1138 6 l 769 -18 l 708 378 l 689 378 l 601 6 l 233 -18 q 76 685 113 535 q 3 778 54 771 l -7 792 l 6 901 q 188 899 117 899 l 443 906 l 453 893 l 444 776 q 370 762 382 768 q 358 731 358 756 q 431 233 358 681 l 460 233 m 850 951 q 739 1063 739 951 q 771 1151 739 1118 q 857 1183 803 1183 q 940 1154 911 1183 q 968 1071 968 1125 q 936 984 968 1017 q 850 951 904 951 m 582 951 q 472 1063 472 951 q 504 1151 472 1118 q 590 1183 536 1183 q 673 1154 644 1183 q 701 1071 701 1125 q 669 984 701 1017 q 582 951 638 951 z "},"ẅ":{"ha":1181,"x_min":4,"x_max":1178,"o":"m 369 196 l 396 196 q 435 364 403 218 q 474 546 468 510 l 481 569 q 472 593 482 589 q 446 597 463 597 q 421 597 429 597 l 413 610 l 424 703 q 617 700 546 700 l 835 704 l 844 694 l 836 594 q 777 584 785 588 q 769 561 769 581 q 817 196 769 521 l 842 196 q 888 397 853 240 q 922 570 922 553 q 917 590 922 588 q 893 593 913 593 l 868 593 l 860 606 l 868 703 q 1040 700 975 700 l 1178 701 l 1171 599 q 1147 581 1154 593 q 1128 539 1139 569 l 979 4 l 643 -14 q 604 267 625 99 l 588 267 l 526 4 l 190 -14 q 74 499 90 438 q 45 578 57 561 q 14 597 33 594 l 4 610 l 15 703 q 169 700 107 700 l 388 704 l 396 694 l 389 594 q 329 584 338 589 q 321 545 321 579 q 369 196 321 511 m 744 751 q 633 863 633 751 q 665 951 633 918 q 751 983 697 983 q 834 954 806 983 q 863 871 863 925 q 831 784 863 817 q 744 751 799 751 m 476 751 q 367 863 367 751 q 399 951 367 918 q 485 983 431 983 q 567 954 539 983 q 596 871 596 925 q 564 784 596 817 q 476 751 532 751 z "},"Ỳ":{"ha":921,"x_min":0,"x_max":921,"o":"m 413 743 q 490 538 413 732 l 510 538 l 567 696 q 585 758 585 736 q 532 779 585 779 l 528 788 l 539 897 l 758 897 l 915 903 l 921 892 l 910 771 q 756 596 817 718 l 629 343 q 608 230 608 294 q 624 146 608 165 q 678 126 639 126 l 749 131 l 756 122 l 743 -8 q 456 0 536 0 l 176 -12 l 188 115 q 303 142 276 121 q 331 225 331 164 l 331 247 q 292 372 331 300 l 143 649 q 6 765 101 725 l 0 774 l 14 900 q 222 897 176 897 l 472 907 l 482 892 l 469 778 q 413 743 413 778 m 261 1036 l 251 1058 l 301 1208 l 324 1215 q 669 1076 499 1140 l 640 978 l 614 960 q 261 1036 485 993 z "},"ỳ":{"ha":803,"x_min":13,"x_max":790,"o":"m 463 697 l 651 699 l 786 703 l 790 694 l 781 590 q 711 532 746 569 q 656 456 676 494 l 553 258 q 536 179 536 221 q 549 122 536 138 q 594 107 561 107 l 654 111 l 660 104 l 650 -7 q 399 0 468 0 l 154 -10 l 163 99 q 262 118 238 103 q 286 179 286 133 l 286 190 q 254 283 286 229 l 128 501 q 18 586 99 544 l 13 593 l 25 701 q 204 699 168 699 l 417 707 l 426 693 l 414 596 q 407 596 410 596 q 372 571 372 596 q 396 508 372 560 q 429 433 419 457 l 446 433 l 482 536 q 497 582 497 567 q 464 597 497 597 q 457 597 460 597 l 453 604 l 463 697 m 208 836 l 199 858 l 249 1008 l 271 1015 q 617 876 446 940 l 588 778 l 561 760 q 208 836 432 793 z "},"–":{"ha":622,"x_min":-17,"x_max":640,"o":"m 621 276 l -1 275 l -17 301 l -1 447 l 506 447 l 626 450 l 640 424 l 621 276 z "},"—":{"ha":1153,"x_min":-17,"x_max":1171,"o":"m 1151 276 l -1 275 l -17 301 l -1 447 l 564 447 q 1157 450 1128 447 l 1171 424 l 1151 276 z "},"‘":{"ha":365,"x_min":39,"x_max":351,"o":"m 299 544 q 162 483 219 483 q 72 522 104 483 q 39 628 39 560 q 101 776 39 697 q 271 915 164 854 l 351 851 l 351 817 q 287 747 311 788 q 263 658 263 707 q 303 564 263 608 l 299 544 z "},"’":{"ha":365,"x_min":14,"x_max":326,"o":"m 67 854 q 203 915 146 915 q 294 877 261 915 q 326 770 326 839 q 264 623 326 701 q 94 483 201 544 l 14 547 l 14 582 q 78 650 54 610 q 103 740 103 690 q 63 835 103 790 l 67 854 z "},"‚":{"ha":331,"x_min":-11,"x_max":301,"o":"m 42 201 q 178 263 121 263 q 269 224 236 263 q 301 117 301 186 q 239 -30 301 49 q 69 -169 176 -108 l -11 -106 l -11 -71 q 53 -1 29 -42 q 78 88 78 39 q 38 182 78 138 l 42 201 z "},"“":{"ha":664,"x_min":39,"x_max":650,"o":"m 597 544 q 460 483 518 483 q 370 522 403 483 q 338 628 338 560 q 400 776 338 697 q 569 915 463 854 l 650 851 l 650 817 q 585 747 610 788 q 561 658 561 707 q 601 564 561 608 l 597 544 m 299 544 q 162 483 219 483 q 72 522 104 483 q 39 628 39 560 q 101 776 39 697 q 271 915 164 854 l 351 851 l 351 817 q 287 747 311 788 q 263 658 263 707 q 303 564 263 608 l 299 544 z "},"”":{"ha":664,"x_min":14,"x_max":625,"o":"m 365 854 q 502 915 444 915 q 592 877 560 915 q 625 770 625 839 q 563 623 625 701 q 393 483 500 544 l 313 547 l 313 582 q 377 650 353 610 q 401 740 401 690 q 361 835 401 790 l 365 854 m 67 854 q 203 915 146 915 q 294 877 261 915 q 326 770 326 839 q 264 623 326 701 q 94 483 201 544 l 14 547 l 14 582 q 78 650 54 610 q 103 740 103 690 q 63 835 103 790 l 67 854 z "},"„":{"ha":621,"x_min":-11,"x_max":592,"o":"m 42 201 q 178 263 121 263 q 269 224 236 263 q 301 117 301 186 q 239 -30 301 49 q 69 -169 176 -108 l -11 -106 l -11 -71 q 53 -1 29 -42 q 78 88 78 39 q 38 182 78 138 l 42 201 m 332 201 q 469 263 411 263 q 559 224 526 263 q 592 117 592 186 q 529 -30 592 49 q 360 -169 467 -108 l 279 -106 l 279 -71 q 344 -1 319 -42 q 368 88 368 39 q 328 182 368 138 l 332 201 z "},"†":{"ha":743,"x_min":53,"x_max":690,"o":"m 447 824 l 467 810 l 463 593 l 676 600 l 690 581 l 675 424 l 460 424 l 461 -118 l 292 -128 l 278 -115 l 279 422 l 65 422 l 53 436 l 68 594 l 279 593 l 279 814 l 447 824 z "},"‡":{"ha":743,"x_min":53,"x_max":690,"o":"m 460 432 l 460 264 l 676 271 l 690 251 l 675 94 l 460 94 l 461 -118 l 292 -128 l 278 -115 l 278 93 l 65 93 l 53 107 l 68 265 l 278 264 l 279 431 l 65 431 l 53 444 l 68 603 l 279 601 l 279 814 l 447 824 l 467 810 l 463 601 l 676 608 l 690 589 l 675 432 l 460 432 z "},"•":{"ha":472,"x_min":56,"x_max":415,"o":"m 415 341 q 415 298 415 341 q 365 203 415 254 q 230 151 315 151 q 100 197 144 151 q 56 329 56 242 q 106 468 56 417 q 241 519 156 519 q 371 474 326 519 q 415 341 415 428 z "},"․":{"ha":331,"x_min":29,"x_max":300,"o":"m 300 130 q 300 98 300 130 q 263 26 300 65 q 160 -12 225 -12 q 63 22 96 -12 q 29 121 29 56 q 67 225 29 186 q 169 264 106 264 q 266 229 232 264 q 300 130 300 194 z "},"‥":{"ha":650,"x_min":29,"x_max":619,"o":"m 300 130 q 300 98 300 130 q 263 26 300 65 q 160 -12 225 -12 q 63 22 96 -12 q 29 121 29 56 q 67 225 29 186 q 169 264 106 264 q 266 229 232 264 q 300 130 300 194 m 619 130 q 619 98 619 130 q 582 26 619 65 q 480 -12 544 -12 q 382 22 415 -12 q 349 121 349 56 q 387 225 349 186 q 488 264 425 264 q 585 229 551 264 q 619 130 619 194 z "},"…":{"ha":969,"x_min":29,"x_max":939,"o":"m 619 130 q 619 98 619 130 q 582 26 619 65 q 480 -12 544 -12 q 382 22 415 -12 q 349 121 349 56 q 387 225 349 186 q 488 264 425 264 q 585 229 551 264 q 619 130 619 194 m 939 130 q 939 98 939 130 q 901 26 939 65 q 799 -12 864 -12 q 701 22 735 -12 q 668 121 668 56 q 706 225 668 186 q 808 264 744 264 q 905 229 871 264 q 939 130 939 194 m 300 130 q 300 98 300 130 q 263 26 300 65 q 160 -12 225 -12 q 63 22 96 -12 q 29 121 29 56 q 67 225 29 186 q 169 264 106 264 q 266 229 232 264 q 300 130 300 194 z "},"‰":{"ha":1522,"x_min":0,"x_max":1522,"o":"m 111 660 q 217 594 111 594 q 324 653 324 594 q 211 718 324 718 q 135 704 158 718 q 111 660 111 690 m 436 667 q 436 603 436 667 q 375 472 436 540 q 213 403 314 403 q 56 464 111 403 q 0 651 0 525 q 63 847 0 778 q 226 915 125 915 q 382 854 328 915 q 436 667 436 793 m 728 240 q 834 175 728 175 q 940 233 940 175 q 828 299 940 299 q 751 285 775 299 q 728 240 728 271 m 1053 247 q 1053 184 1053 247 q 992 52 1053 121 q 829 -17 931 -17 q 672 44 728 -17 q 617 232 617 106 q 679 427 617 358 q 843 496 742 496 q 999 435 944 496 q 1053 247 1053 374 m 1197 240 q 1303 175 1197 175 q 1410 233 1410 175 q 1297 299 1410 299 q 1221 285 1244 299 q 1197 240 1197 271 m 1522 247 q 1522 184 1522 247 q 1461 52 1522 121 q 1299 -17 1400 -17 q 1142 44 1197 -17 q 1086 232 1086 106 q 1149 427 1086 358 q 1313 496 1211 496 q 1468 435 1414 496 q 1522 247 1522 374 m 872 899 l 886 865 q 511 288 638 481 l 249 -126 l 119 -78 l 111 -54 q 381 351 265 168 l 751 943 l 872 899 z "},"‹":{"ha":375,"x_min":14,"x_max":326,"o":"m 231 586 l 317 538 l 326 506 q 231 322 301 464 q 326 140 289 206 l 317 108 l 231 58 q 14 304 132 176 l 14 342 q 231 586 135 471 z "},"›":{"ha":375,"x_min":49,"x_max":361,"o":"m 144 58 l 58 107 l 49 139 q 144 322 74 181 q 49 504 86 439 l 58 536 l 144 586 q 361 340 243 468 l 361 303 q 144 58 240 174 z "},"⁄":{"ha":260,"x_min":-276,"x_max":499,"o":"m 485 899 l 499 865 q 124 288 250 481 l -139 -126 l -268 -78 l -276 -54 q -7 351 -122 168 l 364 943 l 485 899 z "},"⁰":{"ha":493,"x_min":36,"x_max":457,"o":"m 238 443 q 36 714 36 443 q 94 934 36 857 q 258 1011 151 1011 q 457 738 457 1011 q 401 519 457 594 q 238 443 344 443 m 157 726 q 157 700 157 726 q 180 653 157 675 q 251 631 203 631 q 317 651 299 631 q 336 722 336 671 q 313 795 336 772 q 243 818 290 818 q 176 797 196 818 q 157 726 157 776 z "},"⁴":{"ha":507,"x_min":11,"x_max":478,"o":"m 404 689 l 467 689 l 478 675 l 467 563 l 406 564 l 411 465 l 399 454 l 231 443 l 221 454 q 226 569 225 510 l 11 572 l 13 672 l 247 1008 l 257 1011 l 404 999 l 404 689 m 228 689 l 228 801 l 217 801 l 146 689 l 228 689 z "},"⁵":{"ha":447,"x_min":14,"x_max":422,"o":"m 194 808 q 364 747 314 786 q 414 634 414 707 q 322 502 414 561 q 114 443 231 443 q 42 472 64 443 q 14 575 21 501 l 38 599 q 122 581 76 581 q 190 593 167 581 q 214 626 214 606 q 180 658 214 646 q 63 679 146 669 l 54 690 l 72 976 l 79 983 l 282 989 q 342 1026 329 989 l 422 1031 l 394 857 l 375 838 q 197 844 292 844 l 194 808 z "},"⁶":{"ha":483,"x_min":25,"x_max":461,"o":"m 304 811 q 419 767 376 811 q 461 637 461 724 q 400 497 461 550 q 238 443 339 443 q 81 499 136 443 q 25 644 25 556 q 61 798 25 732 q 149 903 97 864 q 340 1001 249 976 l 376 1011 l 390 1006 l 421 924 q 250 807 319 889 l 256 796 q 304 811 285 803 m 197 679 l 196 642 q 243 561 196 561 q 278 575 268 561 q 289 621 289 589 q 247 692 289 692 q 197 679 217 692 z "},"⁷":{"ha":444,"x_min":19,"x_max":436,"o":"m 163 1000 l 378 1000 l 436 931 q 285 585 349 743 l 247 444 l 218 444 l 92 482 l 81 508 l 261 858 l 182 850 q 126 832 140 844 q 106 775 113 819 l 19 769 q 39 1000 35 897 l 46 1004 q 163 1000 103 1000 z "},"⁸":{"ha":481,"x_min":28,"x_max":446,"o":"m 28 583 q 113 699 28 665 q 35 838 35 758 q 97 964 35 917 q 246 1011 160 1011 q 386 971 332 1011 q 440 874 440 931 q 365 760 440 799 q 446 628 446 710 q 383 495 446 547 q 229 443 319 443 q 83 483 139 443 q 28 583 28 524 m 232 551 q 275 588 275 551 q 199 649 275 613 q 188 654 192 653 q 179 610 179 638 q 194 567 179 583 q 232 551 208 551 m 204 861 q 222 831 204 843 q 276 803 240 818 q 289 850 289 828 q 244 894 289 894 q 204 861 204 894 z "}}}
